<svg xmlns="http://www.w3.org/2000/svg" width="449.996" height="450" viewBox="0 0 449.996 450">
  <g id="Untitled_design" data-name="Untitled design" transform="translate(-75.004 -577.871)">
    <path id="Path_3611" data-name="Path 3611" d="M300,577.871q7.541,0,15.066.5t15,1.512q7.471,1.008,14.864,2.515t14.66,3.5q7.277,2,14.394,4.477t14.063,5.43q6.943,2.952,13.668,6.363t13.211,7.262q6.486,3.849,12.7,8.128t12.121,8.961q5.913,4.688,11.5,9.754t10.817,10.5q5.232,5.431,10.086,11.2t9.316,11.852q4.459,6.082,8.5,12.449t7.648,12.992q3.61,6.621,6.762,13.473t5.844,13.9q2.69,7.044,4.9,14.254t3.934,14.555q1.722,7.343,2.949,14.781t1.957,14.95q.727,7.5.949,15.042T524.84,811.3q-.282,7.54-1.067,15.039T521.7,841.273q-1.288,7.435-3.07,14.762t-4.051,14.52q-2.268,7.19-5.012,14.215t-5.957,13.851q-3.21,6.827-6.867,13.418t-7.754,12.93L394.5,863.918q2.045-3.164,3.875-6.461t3.434-6.711q1.605-3.415,2.976-6.926t2.508-7.109q1.137-3.593,2.027-7.258t1.532-7.379q.644-3.714,1.039-7.469t.535-7.515q.141-3.768.027-7.539t-.472-7.524q-.364-3.75-.977-7.472t-1.477-7.391q-.861-3.673-1.968-7.277t-2.45-7.129q-1.341-3.522-2.921-6.945t-3.379-6.739q-1.8-3.31-3.825-6.5t-4.25-6.223q-2.232-3.04-4.66-5.929t-5.043-5.6q-2.619-2.718-5.41-5.25t-5.746-4.879q-2.953-2.343-6.058-4.48t-6.348-4.067q-3.246-1.922-6.606-3.629t-6.836-3.179q-3.468-1.477-7.031-2.719t-7.2-2.238q-3.639-1-7.332-1.75t-7.434-1.258q-3.732-.5-7.5-.754c-2.512-.172-5.019-.254-7.535-.254Zm0,0" fill="#007a78"/>
    <path id="Path_3612" data-name="Path 3612" d="M494.855,915.371q-3.773,6.534-7.968,12.8t-8.813,12.23q-4.605,5.972-9.609,11.618T458.1,962.961q-5.368,5.3-11.075,10.227t-11.734,9.464q-6.03,4.536-12.344,8.657t-12.894,7.808q-6.574,3.695-13.387,6.933t-13.824,6.01q-7.008,2.775-14.192,5.08t-14.5,4.12q-7.317,1.815-14.746,3.13t-14.922,2.15q-7.494.81-15.031,1.13t-15.074.13q-7.541-.18-15.047-.88t-14.957-1.89q-7.447-1.2-14.8-2.88-7.353-1.7-14.57-3.87-7.22-2.19-14.277-4.84t-13.922-5.78q-6.867-3.12-13.508-6.7t-13.024-7.589q-6.385-4.014-12.488-8.445t-11.894-9.262q-5.79-4.828-11.246-10.035t-10.551-10.77q-5.092-5.561-9.8-11.449t-9.016-12.082q-4.307-6.194-8.187-12.66t-7.32-13.176L199.883,854.18q1.716,3.357,3.66,6.59t4.094,6.328q2.15,3.1,4.508,6.043t4.9,5.722q2.549,2.784,5.277,5.387t5.621,5.02q2.895,2.414,5.95,4.628t6.242,4.223q3.194,2,6.511,3.793t6.754,3.352q3.434,1.565,6.961,2.89t7.137,2.418q3.615,1.091,7.285,1.934t7.4,1.445q3.726.593,7.48.942t7.524.441q3.767.093,7.539-.063t7.515-.57q3.744-.41,7.461-1.07t7.371-1.57q3.663-.9,7.25-2.055t7.1-2.539q3.51-1.389,6.91-3.012t6.7-3.465q3.288-1.839,6.45-3.9t6.168-4.328q3.017-2.268,5.867-4.731t5.539-5.117q2.684-2.649,5.183-5.473t4.8-5.8q2.3-2.988,4.4-6.117t3.989-6.4Zm0,0" fill="#55999f"/>
    <path id="Path_3613" data-name="Path 3613" d="M105.145,915.371q-3.685-6.381-6.942-12.984t-6.074-13.414q-2.818-6.8-5.184-13.782T82.672,861.1q-1.91-7.114-3.344-14.34t-2.4-14.528q-.961-7.3-1.441-14.652T75,802.867q0-7.365.484-14.715T76.93,773.5q.961-7.306,2.4-14.527t3.344-14.34q1.9-7.113,4.273-14.09t5.184-13.781q2.818-6.8,6.078-13.41t6.938-12.985q3.686-6.381,7.777-12.5T121.5,665.9q4.482-5.847,9.34-11.382T140.9,643.77q5.21-5.21,10.747-10.067t11.378-9.34q5.843-4.482,11.965-8.574t12.5-7.773q6.375-3.685,12.981-6.942T213.883,595q6.8-2.818,13.777-5.183t14.09-4.274q7.113-1.91,14.336-3.344t14.527-2.4q7.3-.961,14.649-1.445t14.715-.481l.011,112.5q-3.68,0-7.355.242t-7.328.723q-3.651.48-7.262,1.2t-7.168,1.672q-3.562.956-7.047,2.137t-6.887,2.594q-3.4,1.412-6.707,3.039t-6.492,3.468q-3.187,1.847-6.25,3.891t-5.984,4.289q-2.923,2.238-5.692,4.668t-5.371,5.035q-2.6,2.6-5.031,5.371t-4.672,5.692q-2.238,2.924-4.285,5.984t-3.887,6.25q-1.839,3.188-3.472,6.492t-3.035,6.707q-1.413,3.4-2.594,6.891t-2.137,7.043q-.955,3.557-1.672,7.168t-1.2,7.265q-.48,3.651-.719,7.325t-.242,7.359q0,3.68.242,7.355t.719,7.329q.486,3.649,1.2,7.261t1.672,7.168q.955,3.557,2.137,7.047t2.594,6.887q1.411,3.4,3.039,6.707t3.468,6.492Zm0,0" fill="#8db9c2"/>
    <path id="Path_3614" data-name="Path 3614" d="M300,577.871h.023l-.011,112.5H300Zm0,0" fill="#c3dae2"/>
  </g>
</svg>
