<?xml version="1.0" encoding="UTF-8"?><svg id="Layer_2" xmlns="http://www.w3.org/2000/svg" xmlns:xlink="http://www.w3.org/1999/xlink" viewBox="0 0 447.75 445.96"><defs><style>.cls-1,.cls-2,.cls-3,.cls-4,.cls-5,.cls-6,.cls-7{stroke:#263238;}.cls-1,.cls-2,.cls-3,.cls-4,.cls-5,.cls-6,.cls-7,.cls-8{stroke-linecap:round;stroke-linejoin:round;}.cls-1,.cls-2,.cls-3,.cls-5,.cls-6,.cls-7,.cls-8{stroke-width:.97px;}.cls-1,.cls-4,.cls-9,.cls-8{fill:none;}.cls-10,.cls-3{fill:#fff;}.cls-2,.cls-11{fill:#007172;}.cls-12{fill:#9c9c9c;}.cls-4{stroke-width:1.93px;}.cls-5,.cls-13{fill:#d94f04;}.cls-14{clip-path:url(#clippath-1);}.cls-15{fill:#cbdad5;}.cls-16{opacity:.3;}.cls-16,.cls-17,.cls-18,.cls-11{isolation:isolate;}.cls-17{fill:#fdfcdc;opacity:.7;stroke:#cbdad5;stroke-miterlimit:10;}.cls-18{opacity:.2;}.cls-6{fill:#b2b2b2;}.cls-19{fill:#92e3a9;}.cls-7,.cls-20{fill:#263238;}.cls-21{clip-path:url(#clippath);}.cls-8{stroke:#696969;}.cls-11{opacity:.6;}</style><clipPath id="clippath"><polygon class="cls-9" points="194.26 163.85 149.99 331.64 199.97 301.65 228.53 343.78 224.96 167.42 194.26 163.85"/></clipPath><clipPath id="clippath-1"><polygon class="cls-9" points="255.27 165.13 325.82 323.67 279.23 300.13 250.24 348.22 225.54 173.57 255.27 165.13"/></clipPath></defs><g id="Layer_1-2"><g><path class="cls-19" d="M287.9,4.51S211.96-12.49,141.62,36.86,39.64,171.44,12.17,240.04s-5.06,132.46,52.54,156.06c57.6,23.6,92.64-25.18,170.57-36.45s99.68-2.89,161.77-53.25,67.35-152.82,11.45-221.65S287.9,4.51,287.9,4.51Z"/><path class="cls-17" d="M287.9,4.51S211.96-12.49,141.62,36.86,39.64,171.44,12.17,240.04s-5.06,132.46,52.54,156.06c57.6,23.6,92.64-25.18,170.57-36.45s99.68-2.89,161.77-53.25,67.35-152.82,11.45-221.65S287.9,4.51,287.9,4.51Z"/><polygon class="cls-13" points="194.26 163.85 149.99 331.64 199.97 301.65 228.53 343.78 224.96 167.42 194.26 163.85"/><g class="cls-21"><g><polygon class="cls-10" points="201.96 292.63 160.69 317.4 199.26 171.19 218.37 173.41 221.37 321.25 201.96 292.63"/><path class="cls-16" d="M225.78,207.76l-.82-40.32-30.68-3.59-9.47,35.89c3.38,6.81,5.7,15.86,11.63,17.79,8,2.58,18.65-10,27.47-10,.63,.02,1.26,.1,1.87,.23Z"/></g></g><polygon class="cls-13" points="255.27 165.13 325.82 323.67 279.23 300.13 250.24 348.22 225.54 173.57 255.27 165.13"/><g class="cls-14"><g><polygon class="cls-10" points="233 178.42 251.51 173.17 312.03 309.19 276.7 291.33 254.24 328.6 233 178.42"/><path class="cls-16" d="M255.28,165.13l-29.73,8.44,4.73,33.34h.44c8.82,0,19.52,12.53,27.48,9.95,6.1-2,8.38-11.53,11.93-18.4l-14.85-33.33Z"/></g></g><path class="cls-13" d="M319.59,121.44c0,8.82-15.33,15.11-17.92,23.06-2.67,8.25,5.94,22.33,.94,29.2s-21.13,3.07-28.06,8.11-8.13,21.52-16.38,24.19c-8,2.59-18.66-10-27.48-10s-19.51,12.54-27.47,10c-8.25-2.67-9.52-19.19-16.38-24.19s-23-1.18-28.07-8.11,3.62-20.95,.94-29.19c-2.58-8-17.91-14.25-17.91-23.07s15.33-15.11,17.91-23.06c2.68-8.25-5.93-22.33-.94-29.2s21.13-3.07,28.07-8.11,8.13-21.52,16.38-24.19c8-2.59,18.65,9.95,27.47,9.95s19.52-12.54,27.48-9.95c8.24,2.67,9.51,19.19,16.38,24.19s23,1.18,28.06,8.11-3.61,21-.94,29.19c2.61,7.92,17.92,14.21,17.92,23.07Z"/><path class="cls-11" d="M309.89,121.44c0,7.86-13.66,13.46-16,20.55-2.39,7.35,5.28,19.89,.83,26s-18.82,2.74-25,7.23-7.24,19.17-14.59,21.56c-7.09,2.3-16.62-8.87-24.48-8.87s-17.37,11.13-24.43,8.83c-7.35-2.39-8.48-17.1-14.6-21.56s-20.5-1.05-25-7.23,3.22-18.65,.84-26c-2.31-7.09-16-12.69-16-20.55s13.65-13.46,16-20.55c2.38-7.35-5.29-19.89-.84-26s18.83-2.74,25-7.23,7.25-19.17,14.6-21.56c7.08-2.3,16.62,8.87,24.47,8.87s17.39-11.17,24.48-8.87c7.35,2.39,8.48,17.1,14.59,21.56s20.51,1,25,7.23-3.22,18.65-.83,26c2.35,7.09,15.96,12.69,15.96,20.59Z"/><path class="cls-9" d="M319.59,121.44c0,8.82-15.33,15.11-17.92,23.06-2.67,8.25,5.94,22.33,.94,29.2s-21.13,3.07-28.06,8.11-8.13,21.52-16.38,24.19c-8,2.59-18.66-10-27.48-10s-19.51,12.54-27.47,10c-8.25-2.67-9.52-19.19-16.38-24.19s-23-1.18-28.07-8.11,3.62-20.95,.94-29.19c-2.58-8-17.91-14.25-17.91-23.07s15.33-15.11,17.91-23.06c2.68-8.25-5.93-22.33-.94-29.2s21.13-3.07,28.07-8.11,8.13-21.52,16.38-24.19c8-2.59,18.65,9.95,27.47,9.95s19.52-12.54,27.48-9.95c8.24,2.67,9.51,19.19,16.38,24.19s23,1.18,28.06,8.11-3.61,21-.94,29.19c2.61,7.92,17.92,14.21,17.92,23.07Z"/><circle class="cls-10" cx="230.69" cy="121.4" r="66.04"/><path class="cls-20" d="M199.22,90.44c7.89-3.88,14.12-6.09,24.23-18.14h24.64v78.36h12.87v18.41h-55.37v-18.37h13.84v-51.36l-13.84,6.51-6.37-15.41Z"/><ellipse class="cls-18" cx="335.49" cy="426.54" rx="93.82" ry="18.38"/><path class="cls-5" d="M422.22,192.88c-1.47-6.87-2.29-6.54-10.63-9.16-9.17-2.88-18.69-4.48-28.3-4.75-6.18-.23-12.37,.49-18.33,2.13,0,0-10.48,1.31-18,3-6.45,12.88,.83,30.56,.83,30.56,0,0,9.16,20.12,9.16,30.43s-7.86,28.3-8.18,28.79-24.21,42-30.27,56.11-6.21,19.8-2.94,25.36,40.57,56.93,40.57,56.93c0,0-10,11.45-14.56,14.4s-10.29,3.41-8.29,5.87,15.21,3.43,18.81,2.61,11.78-8,16.52-11.28,9-5.57,7.2-9.66-5.73-7.69-7.36-11-7.53-12.76-10.8-24.54-5.72-18.81-9.49-25.19-6.38-8.83-6.38-8.83c0,0,14.07-12.93,21.6-19.47s14.23-11.94,14.23-11.94c0,0,25.52-26.18,27.81-31.91s8.51-23.72,13.09-39.42,5.18-42.17,3.71-49.04Z"/><path class="cls-2" d="M347.79,214.64s-7.28-17.68-.83-30.56c-1.77,.37-3.52,.85-5.23,1.44-6.21,2.29-36.48,15-39.59,16.36s-8.83,6.05-7.36,11,3.76,6.38,14.23,6.54,38.78-4.78,38.78-4.78Z"/><path class="cls-3" d="M325.54,125.32s9.32,4.74,9.81,5.56-.16,2.61-.82,3.92-4.25,4.42-5.88,5.07-.33-4.25-.33-7-4.75-5.07-5.24-6.38,1.2-1.67,2.46-1.17Z"/><path class="cls-2" d="M307.7,218.24l-3.59,1c-3.6,1-9.82,1.47-10.8,.16s-4.42-18.65-3.93-28.3,14.89-50.88,16.53-54,15.7-13.25,15.7-13.25c0,0,1.8-.49,3.93,1.48s8.18,6.05,7.85,7.68-3.76,6.55-5.24,7.86-3.76,0-3.76,0c0,0-1.8,3.1-4.09,4.09s-7.69-.17-7.69-.17c0,0-4.41,27.49-3.11,38s3.93,22.74,2,28.63"/><path class="cls-3" d="M320.28,144.95c2.29-1,4.09-4.09,4.09-4.09,0,0,2.29,1.31,3.76,0s4.91-6.22,5.24-7.86-5.73-5.72-7.85-7.68-3.93-1.48-3.93-1.48c0,0-14.07,10.15-15.7,13.25-.4,.76-1.55,3.77-3.08,8,2.73,1.9,5.9,3.1,9.21,3.47,.34-2.36,.57-3.81,.57-3.81,0,0,5.42,1.18,7.69,.2Z"/><path class="cls-3" d="M334.85,134.49s2.29,.65,1.64,2.29-3.11,3.43-4.58,3.27-1.8-2.13-.82-3.76,2.94-2.46,3.76-1.8Z"/><path class="cls-1" d="M324.39,140.86s-1.31-1.48-.49-2.62,2.45-.33,2.45-.33l-2.45-3.11"/><circle class="cls-3" cx="343.82" cy="251.02" r="9.26"/><path class="cls-3" d="M341.39,241.94c1.96-5.3,6.18-9.45,11.51-11.32,9.16-3.42,24.08-7,32.71-18.33s5.51-33,5.51-33l6.71,.91s-.9,21.66-5.21,33.16-17.44,18-27.86,19.78-19.05,1.61-23.37,8.8Z"/><path class="cls-3" d="M341.39,241.94s-1.08-7.37,5.57-15.1,17.44-16.17,19.24-24.08-.18-21.57-.18-21.57l5.75-1.62c1.58,7.16,1.64,14.57,.18,21.75-2.52,11.14-8.63,16.54-16.18,22.29s-14.38,18.33-14.38,18.33Z"/><path class="cls-2" d="M415.51,186.99c-3.9,3.22-6.32,7.88-6.7,12.92-.66,8.51,.81,30.92,.81,39.76s-6.54,22.08-5.56,28.95,10,15.05,14.89,9.66,8.67-22.74,10.47-45.16,.33-37.46-2.45-42-7.37-7.57-11.46-4.13Z"/><path class="cls-2" d="M420.91,271.57c-1,5.56-4.09,11-7.36,12.1s-7-3.43-12.27-11.94-8-17.83-10-27.65c-1.77-8.98-3.08-18.04-3.92-27.15-.17-3.76,0-4.75,2.12-7s9.82-4.09,9.82-4.09l1.31-2.29c.65-1.14,4.09-1.8,5.72-.81s2.46,6.38,2.46,6.38c0,0,4.58,2.61,4.58,5.23s-2.95,5.4-6.22,9.82-4.25,2.78-4.58,6.87,2,9.49,6.05,13.25,10,8.34,11.62,15.7"/><path class="cls-3" d="M402.56,231.9v-.9c.33-4.09,1.31-2.46,4.58-6.87s6.22-7.2,6.22-9.82-4.58-5.23-4.58-5.23c0,0-.82-5.4-2.46-6.38s-5.07-.33-5.72,.81l-1.32,2.29s-7.69,1.8-9.82,4.09-2.29,3.28-2.12,7c.1,2.44,.9,9,2,16,4.41,.9,8.99,.55,13.22-.99Z"/><path class="cls-2" d="M405.58,280.87c-19.7-6.59-44.11-9.71-55.15-10.87-.91,2.26-1.57,3.72-1.66,3.86-.33,.49-24.21,42-30.27,56.11s-6.21,19.8-2.94,25.36,40.57,56.93,40.57,56.93c6-.73,11.35-4.76,13.67-6.75-.53-.71-.99-1.46-1.4-2.25-1.64-3.27-7.53-12.76-10.8-24.54s-5.72-18.81-9.49-25.19-6.38-8.83-6.38-8.83c0,0,14.07-12.93,21.6-19.47s14.23-11.94,14.23-11.94c0,0,25.52-26.18,27.81-31.91,.07-.16,.13-.33,.21-.51Z"/><path class="cls-5" d="M369.8,405.51c-1.88,3.56-9.74,10.35-9.74,10.35,0,0-2-2.13-3.11-3.6-.87-1.11-1.17-.83-1.27-.62l.45,.62s-10,11.45-14.56,14.4-10.29,3.43-8.29,5.89,15.21,3.43,18.81,2.61,11.78-8,16.52-11.28,9-5.57,7.2-9.66c-1.45-3.17-4.12-6.05-6.01-8.71Z"/><path class="cls-3" d="M349.42,433.2c-3.39,.88-12.46-1-16.5-2-.18,.46-.05,.98,.31,1.32,2,2.45,15.21,3.43,18.81,2.61s11.78-8,16.52-11.28,9-5.57,7.2-9.66c-.21-.47-.45-.94-.71-1.4-.85,1.14-1.85,2.42-2.89,3.69-2.94,3.63-18.32,15.57-22.74,16.72Z"/><path class="cls-2" d="M395.56,289.07s-14.28-12.76-28.14-17.34-39.76-3.27-46.3-.65-3.76,11-3.6,20.61,6.71,27.48,9.49,37.63,3.76,21.43,4.09,25.35,.33,5.4,.33,5.4c0,0-18.16-.16-22.91-.65s-7.52,1-8.34,2.62c-.49,.84-.66,1.82-.49,2.78,0,0,12.27,8,22.9,12.43s20.78,7.2,22.09,6.54,2.61-10.63,2.61-17.5,2.13-39.92,2.13-45.81v-15.21s31.74,16.85,44.34,12.92,11.82-37.32,11.82-37.32l-10.19-3.25"/><path class="cls-5" d="M331.43,360.07s-18.16-.16-22.91-.65-7.52,1-8.34,2.62c-.49,.84-.66,1.82-.49,2.78,0,0,12.27,8,22.9,12.43s20.78,7.2,22.09,6.54c1.15-.57,2.3-8.37,2.56-14.92-6.74-5.74-15.81-8.8-15.81-8.8Z"/><path class="cls-3" d="M344.68,383.79c.51-.25,1-2,1.46-4.32-5.71-.42-11.33-1.66-16.68-3.69-9.25-3.49-24.32-10.82-29.46-13.35-.35,.75-.45,1.58-.31,2.39,0,0,12.27,8,22.9,12.43s20.78,7.19,22.09,6.54Z"/><path class="cls-1" d="M349.42,305.27s-.16-14.23-7.36-21.27"/><path class="cls-3" d="M338.28,163.34s3.9,12.79,5.62,17.31,1.87,7,7.32,12.16,6.55,9.2,12.16,9.66,7.8-3,7.8-3c0,0,.78,5.15,3.74,6.7s9.51,1.87,13.56-6.08,1.56-11.84,.16-15.58-3.28-8.42-3.28-8.42c2.03-2.81,3.09-6.2,3-9.67-.31-5.45-1.87-6.08-3.58-6.55s-6.55,2.65-8.57,1.72,1.4-6.24-4.06-6.7-11.07,7-20.89,7.79-13.34-2.3-12.98,.66Z"/><path class="cls-3" d="M371.13,199.51l8.88-10c3.9-4.36,3.9-10.91,3.9-10.91"/><path class="cls-1" d="M353.67,178.62s1.09,5,0,7.48-.16,3.75,1.71,3.9c.89,.15,1.81,.04,2.65-.31"/><path class="cls-4" d="M359.44,179.09s1.09-3.27,6.23-2.34"/><path class="cls-4" d="M346.5,180.02s3-1.71,5.14,.63"/><path class="cls-1" d="M343.85,175.04s3.58-3.59,7.79,2"/><path class="cls-1" d="M356.63,175.5s1.71-5.76,7-5"/><path class="cls-1" d="M361.46,191.25s8.11-1.56,9.67-11.07c0,0,4,6.41,1.23,11.55s-6.53,4.35-6.53,4.35l-4.37-4.83Z"/><path class="cls-7" d="M343.53,145.26s4.06-5.61-.46-4.83-12,9.51-11.07,17.77,17.61,10.13,25.72,8.89c4.87-.76,9.38-2.99,12.94-6.4,0,0-3,6.4,.16,7.17s4.67,0,4.67,0c0,0,3,6.71,3.9,4.68s-.22-3.62,.31-6.23c1.25-6.08,5.77-5.93,5.77-5.93,0,0,.78-15.12-4.83-21s-20.27-6.55-26.35-3.43-10.76,9.31-10.76,9.31Z"/><ellipse class="cls-18" cx="108.2" cy="426.54" rx="93.82" ry="18.38"/><path class="cls-2" d="M45.93,406.34s-12.21,6.3-17.09,12,.61,9.56,10.58,6.31c9.97-3.25,13.63-17.29,13.63-17.29,0,0-3.46-2.85-7.12-1.02Z"/><path class="cls-2" d="M175.53,406.34s12.21,6.3,17.09,12-.61,9.56-10.58,6.31-13.63-17.29-13.63-17.29c0,0,3.46-2.85,7.12-1.02Z"/><path class="cls-5" d="M98.64,148.35l-.15,10.85c-4.54-1.06-9.02-2.37-13.41-3.92-7.23-2.56-9-.3-13.26,3.31s-24.4,26.85-26.54,28.78-8.74,12-8.74,17.17,4.07,8.74,12.2,4.37,23.05-16.12,23.05-16.12c0,0,7.69,22.9,7.84,26.82s-5.28,12.5-8.14,20.34-4.21,29.68-6.15,37.21-6.93,15.37-10.84,35.4-4.22,35.41-5.12,39.32-2.1,18.84-3.47,30.56-2.26,24.7-.75,26.06,5.87,2.26,8,0,17.91-42.3,21.12-51.49,24.56-50.78,26.37-55.45,5.07-11.12,5.07-11.12c0,0,11.15,20.79,14.91,31.18s24.41,50.47,30.14,61,15.06,24.55,17.62,25.91,6.69,.52,7.14-2.19-3.82-44.36-7-52.2-5.27-12.2-6.17-17.92-9.65-52.58-13.71-61.17-4.67-10.24-4.82-10.7-3-10.54-7.24-20.79-8.88-19.43-8.88-19.43l7.68-21.09s11.3,23.35,16.57,28.32,22.45,26.36,22.45,26.36l5.42-5.42-17.47-30s-3.77-19.43-8.29-31.64-7.83-21.24-13.71-24-18.53-3.47-20.79-4.37-1.51-1.66-1.66-2.11,.76-10.54,.76-10.54c0,0-8.39,2.93-12.39,1.72-2.61-.84-5.16-1.84-7.64-3.01Z"/><line class="cls-8" x1="131.09" y1="256.63" x2="113.68" y2="279.2"/><line class="cls-8" x1="75.64" y1="258.57" x2="94.99" y2="278.56"/><line class="cls-8" x1="78.87" y1="270.17" x2="98.21" y2="282.42"/><path class="cls-2" d="M127.72,224.13l7.68-21.09s-4.07-28.6-11.82-39.9c-1.35-.15-2.69-.41-4-.78-2.26-.9-1.51-1.66-1.66-2.11s.76-10.54,.76-10.54c0,0-8.4,2.86-12.4,1.65-2.62-.83-5.19-1.83-7.68-3l-.15,10.85s-2-.45-5.12-1.31c-3.31,4.25-16.68,21.88-21.55,34.9,0,0,7.69,22.9,7.84,26.82,.11,2.84-2.71,8.12-5.36,13.8,4.91,3.29,13.68,7.18,28,7.44,17.19,.31,26.41-3.65,30.49-6.16-2.78-6.14-5.03-10.57-5.03-10.57Z"/><path class="cls-6" d="M117.54,174.44c3-2.92,3.92-7.35,3.87-11.66-.62-.08-1.24-.23-1.83-.43-2.26-.9-1.51-1.66-1.66-2.11s.76-10.54,.76-10.54c0,0-8.4,2.87-12.4,1.66-2.62-.83-5.19-1.83-7.68-3l-.15,10.85s-.63-.14-1.72-.41c-.83,3.2-2.43,11.81,2.77,16.53,5,4.48,13.37,3.61,18.04-.89Z"/><path class="cls-3" d="M92.91,157.69s-.45,11.3-3.31,17.48-5.88,7.08-5.88,7.08c1.2,.76,2.46,1.43,3.77,2,2.41,1,2.86,.6,2.86,.6,0,0,4.52-2.86,6.63-10.4,1.29-4.96,1.8-10.09,1.51-15.21l-5.58-1.55Z"/><path class="cls-7" d="M101.39,99.95s-.19-5.11,9.09-7.57,17.44,4.92,18.19,9.85c.75,4.93-.75,7.58-1.89,8s-6.06-4.55-13.45-7-12.89-1-11.94-3.28Z"/><path class="cls-6" d="M91.91,124.78s-1.13-3.41-4-1.33-1.52,8.53-.19,10.42,4,1.9,4.54,.57,.57-8.91,.57-8.91"/><path class="cls-6" d="M91.54,108.29s-3.23,4.74-1.71,9.48,.76,8.14,.76,13.64,4,12.88,6.63,17.43,7.94,9.95,13.62,8.25,14-13.56,15.56-19.05,.95-6.82,1.89-9.1c1.6-4.04,2.37-8.35,2.28-12.69,0-6.25-7.39-14.59-16.49-17.24s-19.13,0-22.54,9.28Z"/><path class="cls-6" d="M126.02,130.27s1.52-4.55,4.36-3.22,1.7,8.34-.57,10.42-4.74,1.14-4.74-.19"/><path class="cls-1" d="M104.61,136.33c1.92,1.9,4.98,1.99,7,.19"/><path class="cls-1" d="M102.95,140.76s4.59,4,10.91-.09"/><ellipse class="cls-20" cx="101.56" cy="129.5" rx="1.39" ry="2.25"/><ellipse class="cls-20" cx="115.07" cy="129.5" rx="1.39" ry="2.25"/><path class="cls-1" d="M97.75,123.96c1.86-1.67,4.5-2.17,6.84-1.3"/><path class="cls-1" d="M111.69,123.18s5.11-2.25,7.88,2.25"/><path class="cls-7" d="M114.08,99.01c-9.09-2.66-19.13,0-22.54,9.28,0,0-3.23,4.74-1.71,9.48,.48,1.5,.78,3.06,.88,4.64l.26,.28c1.14-1.27,1.86-2.86,2.08-4.55,.38-2.84,6.63-10,16.87-9.28,10.24,.72,15.15,8,16.1,12.7s-1.51,8.14,2.27,7.38c1.6-4.04,2.37-8.35,2.28-12.69,0-6.25-7.39-14.59-16.49-17.24Z"/><path class="cls-6" d="M179.84,252.3l9.79,2c.79,.16,1.5,.59,2,1.22,1.65,2.07,5.35,6.82,5.7,8.22,.45,1.81,.45,2.26-.15,2.26-.81-.03-1.62-.13-2.41-.3-.76-.15-3.62-4.22-5.88-4.37-2.21-.34-4.38-.89-6.48-1.66,0,0,4.82,3.62,5.88,4.52s.9,1.36,.15,1.66-1.81-.15-2.86-.6-1.51-.61-5.13-2.11-6-5.43-6-5.43l5.39-5.41Z"/><polyline class="cls-8" points="141.43 186.92 135.4 203.04 140.82 193.4"/><polyline class="cls-8" points="71.82 175.01 71.82 192.79 68.81 179.84"/><path class="cls-3" d="M101.65,187.07c1.59,1.09,3.55,1.47,5.43,1.05,3-.75,11.14-6.63,16.12-13.26s7.23-10.42,7.23-10.42l-8-2.41s-4.22,11.45-9.79,16.42-13.86,7.38-13.86,7.38l2.87,1.24Z"/><path class="cls-3" d="M64.44,133.28s35.56,52.88,37.21,53.79c.78,.44,1.59,.84,2.41,1.2,0,0-8.43,0-10.84-2s-21.7-37.81-23.36-41.73c-1.34-2.99-2.85-5.91-4.52-8.73l-1.5-2.87,.6,.34Z"/><path class="cls-3" d="M64.44,133.28s14.77,42.49,16,45.5,5.42,5.43,7.68,5.73l2.26,.3s-10.69-17.48-15.36-28-10.58-23.53-10.58-23.53Z"/><circle class="cls-3" cx="60.45" cy="125.83" r="9.27"/><path class="cls-5" d="M51.79,207.1c-4.82,2.57-14.32,8.59-16.12,5.88s-1.51-18.08,2.86-27.27c4.37-9.19,12.25-25.62,12.5-28.44s-.38-21.51-.12-22.28,8.06-5,8.06-5c.84-.21,1.72,.15,2.18,.89,.77,1.28,4.23,5,4.1,6s-.26,1.79-.26,1.79c0,0,2.05,1.16,1.54,3.08s-1.41,7.81-2.56,8.58c-.96,.46-2.04,.6-3.08,.38-.13,1.39-.52,2.75-1.15,4-.89,1.41-1.79,2.18-1.92,2.56s-2.87,44.71-4.38,46.22"/><path class="cls-6" d="M64.99,138.7s.13-.76,.26-1.79-3.33-4.74-4.1-6c-.46-.74-1.34-1.1-2.18-.89,0,0-7.81,4.22-8.06,5s.26,15.95,.18,21c1.88,1.53,4.38,2.06,6.71,1.42v-.17c.13-.38,1-1.15,1.92-2.56,.63-1.25,1.02-2.61,1.15-4,1.04,.22,2.12,.08,3.08-.38,1.15-.77,2-6.66,2.56-8.58s-1.52-3.05-1.52-3.05Z"/><line class="cls-1" x1="64.99" y1="138.7" x2="58.46" y2="136.14"/><path class="cls-1" d="M57.69,139.73s6.79,1.53,7.43,2.56c.4,.7,.62,1.49,.64,2.3"/><path class="cls-1" d="M58.08,143.44s5.12,1.15,5.89,1.79,.89,3.33,.89,3.33"/><polyline class="cls-1" points="60.89 150.74 60.89 148.69 62.3 148.56"/><path class="cls-3" d="M101.5,241.91l-1.81,24.7,2.87,.45s0-26.06-1.06-25.15Z"/><path class="cls-3" d="M103.28,242.81l.9,27.42,4.52-.15-4.37-27s-.72-2.53-1.05-.27Z"/><polygon class="cls-12" points="180.11 23.16 185.25 28.25 188.09 23.74 180.11 23.16"/><polygon class="cls-12" points="115.76 31.71 120.9 36.79 123.74 32.28 115.76 31.71"/><polygon class="cls-12" points="75.3 11.01 80.44 16.1 83.28 11.58 75.3 11.01"/><polygon class="cls-12" points="238.12 50.54 234.89 57.01 240.06 58.3 238.12 50.54"/><polygon class="cls-12" points="287.41 4.74 284.18 11.21 289.35 12.5 287.41 4.74"/><polygon class="cls-15" points="180.49 61.24 175.46 56.04 172.53 60.49 180.49 61.24"/><polygon class="cls-15" points="151.01 63.17 145.99 57.97 143.05 62.42 151.01 63.17"/><polygon class="cls-15" points="214.52 40 220.4 35.79 216.43 32.23 214.52 40"/><polygon class="cls-15" points="148.31 19.05 154.19 14.85 150.22 11.28 148.31 19.05"/><polygon class="cls-15" points="260.86 56.53 266.74 52.33 262.77 48.76 260.86 56.53"/><polygon class="cls-12" points="25.47 60 22.24 66.46 27.41 67.76 25.47 60"/><polygon class="cls-12" points="58.33 64.83 55.1 71.3 60.27 72.59 58.33 64.83"/><polygon class="cls-15" points="40.33 42.66 35.3 37.46 32.36 41.91 40.33 42.66"/><polygon class="cls-15" points="178.19 93.67 184.08 89.47 180.11 85.9 178.19 93.67"/><polygon class="cls-12" points="334.87 43.25 340.01 48.33 342.85 43.82 334.87 43.25"/><polygon class="cls-12" points="392.89 56.45 389.65 62.92 394.83 64.21 392.89 56.45"/><polygon class="cls-12" points="314.6 22.24 311.37 28.71 316.54 30.01 314.6 22.24"/><polygon class="cls-12" points="425.75 61.28 422.51 67.75 427.69 69.05 425.75 61.28"/><polygon class="cls-12" points="442.18 36.64 438.94 43.11 444.12 44.4 442.18 36.64"/><polygon class="cls-15" points="335.26 67.14 330.23 61.94 327.29 66.4 335.26 67.14"/><polygon class="cls-15" points="305.63 68.43 300.66 63.29 297.75 67.69 305.63 68.43"/><polygon class="cls-15" points="367.44 19.85 373.25 15.7 369.33 12.17 367.44 19.85"/><polygon class="cls-15" points="303.08 13.15 308.96 8.94 304.99 5.38 303.08 13.15"/><polygon class="cls-15" points="398.97 28.03 404.79 23.87 400.86 20.36 398.97 28.03"/><polygon class="cls-15" points="332.96 99.58 338.84 95.37 334.87 91.81 332.96 99.58"/><polygon class="cls-15" points="94.32 56.51 100.2 52.31 96.23 48.74 94.32 56.51"/><polygon class="cls-12" points="286.25 134.37 281.11 129.28 278.27 133.79 286.25 134.37"/><polygon class="cls-12" points="336.02 130.98 330.88 125.9 328.04 130.41 336.02 130.98"/><polygon class="cls-12" points="392.65 137.43 387.51 132.34 384.67 136.86 392.65 137.43"/><polygon class="cls-12" points="228.23 121.16 231.47 114.69 226.29 113.4 228.23 121.16"/><polygon class="cls-12" points="195.37 116.33 198.61 109.86 193.43 108.57 195.37 116.33"/><polygon class="cls-15" points="357.12 126.54 362.09 131.68 365 127.27 357.12 126.54"/><polygon class="cls-15" points="214.41 118.29 208.53 122.49 212.5 126.05 214.41 118.29"/><polygon class="cls-15" points="217.31 95.09 211.43 99.3 215.4 102.86 217.31 95.09"/><polygon class="cls-12" points="440.89 111.71 444.12 105.24 438.94 103.95 440.89 111.71"/><polygon class="cls-12" points="408.02 106.88 411.26 100.41 406.08 99.12 408.02 106.88"/><polygon class="cls-15" points="425.52 107.73 419.7 111.88 423.63 115.4 425.52 107.73"/><polygon class="cls-12" points="148.1 95.36 142.96 90.27 140.12 94.79 148.1 95.36"/><polygon class="cls-12" points="73.47 115.25 76.7 108.79 71.53 107.49 73.47 115.25"/><polygon class="cls-12" points="40.61 110.42 43.84 103.95 38.67 102.66 40.61 110.42"/><polygon class="cls-12" points="24.18 135.07 27.41 128.6 22.24 127.31 24.18 135.07"/><polygon class="cls-15" points="58.61 132.59 63.64 137.79 66.58 133.34 58.61 132.59"/><polygon class="cls-15" points="164.76 131.19 158.95 135.35 162.87 138.87 164.76 131.19"/><line class="cls-9" x1="53.76" y1="116.59" x2="57.73" y2="120.15"/><polygon class="cls-15" points="62.55 89.18 56.66 93.39 60.63 96.95 62.55 89.18"/><polygon class="cls-15" points="362.58 91.57 356.7 95.55 360.67 98.93 362.58 91.57"/><polygon class="cls-12" points="130.33 158.86 135.47 163.95 138.31 159.44 130.33 158.86"/><polygon class="cls-12" points="73.7 152.42 78.84 157.5 81.68 152.99 73.7 152.42"/><polygon class="cls-12" points="238.12 168.68 234.89 175.15 240.06 176.44 238.12 168.68"/><polygon class="cls-12" points="83.39 202.45 80.16 208.92 85.33 210.21 83.39 202.45"/><polygon class="cls-15" points="180.49 179.38 175.46 174.18 172.53 178.63 180.49 179.38"/><polygon class="cls-15" points="151.01 181.31 145.99 176.11 143.05 180.56 151.01 181.31"/><polygon class="cls-15" points="108.49 161.98 103.46 156.78 100.52 161.23 108.49 161.98"/><polygon class="cls-15" points="253.43 149.75 248.46 144.61 245.55 149.01 253.43 149.75"/><polygon class="cls-15" points="215.41 156.47 221.23 152.3 217.3 148.78 215.41 156.47"/><polygon class="cls-15" points="252.42 169.73 258.23 165.57 254.3 162.05 252.42 169.73"/><polygon class="cls-15" points="249.55 192.67 255.36 188.5 251.44 184.98 249.55 192.67"/><polygon class="cls-12" points="25.47 178.13 22.24 184.6 27.41 185.9 25.47 178.13"/><polygon class="cls-12" points="58.33 182.97 55.1 189.44 60.27 190.73 58.33 182.97"/><polygon class="cls-15" points="40.33 160.8 35.3 155.6 32.36 160.05 40.33 160.8"/><polygon class="cls-15" points="39.3 181.01 45.18 176.8 41.21 173.24 39.3 181.01"/><polygon class="cls-15" points="178.19 211.81 184.08 207.6 180.11 204.04 178.19 211.81"/><polygon class="cls-12" points="285.1 164.77 290.24 169.86 293.08 165.34 285.1 164.77"/><polygon class="cls-12" points="392.89 174.59 389.65 181.06 394.83 182.35 392.89 174.59"/><polygon class="cls-12" points="425.75 179.42 422.51 185.89 427.69 187.19 425.75 179.42"/><polygon class="cls-12" points="442.18 154.78 438.94 161.25 444.12 162.54 442.18 154.78"/><polygon class="cls-15" points="305.63 185.21 300.66 180.07 297.75 184.47 305.63 185.21"/><polygon class="cls-15" points="296.03 299.23 291 294.03 288.07 298.48 296.03 299.23"/><polygon class="cls-15" points="238.8 7.77 244.68 3.56 240.71 0 238.8 7.77"/><polygon class="cls-15" points="332.5 215.36 338.31 211.2 334.38 207.68 332.5 215.36"/><polygon class="cls-15" points="103.77 198.28 109.66 194.07 105.69 190.51 103.77 198.28"/><polygon class="cls-12" points="336.02 249.12 330.88 244.04 328.04 248.55 336.02 249.12"/><polygon class="cls-12" points="228.23 239.3 231.47 232.83 226.29 231.54 228.23 239.3"/><polygon class="cls-12" points="195.37 234.47 198.61 228 193.43 226.71 195.37 234.47"/><polygon class="cls-15" points="285.86 228.61 290.89 233.81 293.83 229.36 285.86 228.61"/><polygon class="cls-15" points="315.08 224.22 320.05 229.36 322.96 224.95 315.08 224.22"/><polygon class="cls-15" points="357.87 320.38 362.9 325.58 365.84 321.13 357.87 320.38"/><polygon class="cls-15" points="251.84 249.85 245.96 254.06 249.93 257.62 251.84 249.85"/><polygon class="cls-15" points="217.31 213.23 211.43 217.44 215.4 221 217.31 213.23"/><polygon class="cls-12" points="440.89 304.23 444.12 297.76 438.94 296.47 440.89 304.23"/><polygon class="cls-12" points="408.02 225.02 411.26 218.55 406.08 217.26 408.02 225.02"/><polygon class="cls-15" points="427.06 301.35 421.18 305.56 425.15 309.12 427.06 301.35"/><polygon class="cls-15" points="288.21 194.06 282.4 198.22 286.32 201.74 288.21 194.06"/><polygon class="cls-12" points="181.26 243.22 176.12 238.13 173.28 242.64 181.26 243.22"/><polygon class="cls-12" points="73.47 233.39 76.7 226.93 71.53 225.63 73.47 233.39"/><polygon class="cls-12" points="151.76 241.61 154.99 235.14 149.82 233.85 151.76 241.61"/><polygon class="cls-12" points="40.61 228.56 43.84 222.1 38.67 220.8 40.61 228.56"/><polygon class="cls-12" points="24.18 253.21 27.41 246.74 22.24 245.45 24.18 253.21"/><polygon class="cls-15" points="160.58 220.77 165.61 225.97 168.54 221.52 160.58 220.77"/><polygon class="cls-15" points="58.61 250.73 63.64 255.93 66.58 251.48 58.61 250.73"/><polygon class="cls-15" points="97.08 243.94 91.2 248.15 95.17 251.71 97.08 243.94"/><polygon class="cls-15" points="116.71 350.47 110.83 354.68 114.8 358.24 116.71 350.47"/><polygon class="cls-15" points="232.05 302.46 226.17 306.67 230.14 310.23 232.05 302.46"/><polygon class="cls-15" points="361.78 207.43 355.96 211.6 359.89 215.12 361.78 207.43"/><polygon class="cls-12" points="180.11 357.98 185.25 363.07 188.09 358.55 180.11 357.98"/><polygon class="cls-15" points="70.18 312.16 75.32 317.24 78.16 312.73 70.18 312.16"/><polygon class="cls-12" points="238.12 371.18 234.89 377.65 240.06 378.94 238.12 371.18"/><polygon class="cls-12" points="159.84 279.79 156.6 286.26 161.78 287.55 159.84 279.79"/><polygon class="cls-12" points="270.98 376.02 267.75 382.48 272.92 383.78 270.98 376.02"/><polygon class="cls-12" points="287.41 351.37 284.18 357.84 289.35 359.13 287.41 351.37"/><polygon class="cls-15" points="180.49 381.88 175.46 376.68 172.53 381.13 180.49 381.88"/><polygon class="cls-15" points="104.96 321.72 99.94 316.52 97 320.97 104.96 321.72"/><polygon class="cls-15" points="214.52 360.64 220.4 356.43 216.43 352.87 214.52 360.64"/><polygon class="cls-15" points="249.05 397.26 254.93 393.05 250.96 389.49 249.05 397.26"/><polygon class="cls-12" points="21.95 337.87 18.71 344.34 23.89 345.63 21.95 337.87"/><polygon class="cls-15" points="54.81 342.7 51.58 349.17 56.75 350.47 54.81 342.7"/><polygon class="cls-15" points="36.8 320.54 31.78 315.34 28.84 319.79 36.8 320.54"/><polygon class="cls-15" points="179.87 421.42 184.08 417.22 181.24 413.65 179.87 421.42"/><polygon class="cls-12" points="334.87 280.71 340.01 285.8 342.85 281.28 334.87 280.71"/><polygon class="cls-12" points="392.89 368.29 389.65 374.76 394.83 376.05 392.89 368.29"/><polygon class="cls-12" points="314.6 285.7 311.37 292.17 316.54 293.46 314.6 285.7"/><polygon class="cls-12" points="425.75 373.12 422.51 379.59 427.69 380.88 425.75 373.12"/><polygon class="cls-12" points="442.18 348.48 438.94 354.94 444.12 356.24 442.18 348.48"/><polygon class="cls-15" points="305.78 389.71 300.75 384.52 297.81 388.97 305.78 389.71"/><polygon class="cls-15" points="407.74 350.95 402.72 345.75 399.78 350.2 407.74 350.95"/><polygon class="cls-15" points="369.28 357.74 375.16 353.53 371.19 349.97 369.28 357.74"/><polygon class="cls-15" points="403.81 394.36 409.69 390.15 405.72 386.59 403.81 394.36"/><polygon class="cls-15" points="332.96 427.33 338.84 423.12 334.87 419.56 332.96 427.33"/><polygon class="cls-15" points="81.12 386.88 87 382.67 83.03 379.11 81.12 386.88"/><polygon class="cls-12" points="180.11 435.12 185.25 436.21 188.09 435.24 180.11 435.12"/><polygon class="cls-12" points="130.33 414.69 135.47 415.79 138.31 414.82 130.33 414.69"/><polygon class="cls-12" points="73.7 413.31 78.84 414.4 81.68 413.43 73.7 413.31"/><polygon class="cls-12" points="238.12 416.8 234.89 418.19 240.06 418.47 238.12 416.8"/><polygon class="cls-12" points="159.84 415.04 156.6 416.43 161.78 416.71 159.84 415.04"/><polygon class="cls-12" points="270.98 417.84 267.75 419.23 272.92 419.51 270.98 417.84"/><polygon class="cls-12" points="287.41 412.55 284.18 413.94 289.35 414.22 287.41 412.55"/><polygon class="cls-15" points="167.2 432.34 162.18 431.22 159.24 432.18 167.2 432.34"/><polygon class="cls-15" points="151.01 419.51 145.99 418.4 143.05 419.35 151.01 419.51"/><polygon class="cls-15" points="108.49 415.36 103.46 414.25 100.52 415.2 108.49 415.36"/><polygon class="cls-15" points="252.98 413.08 247.95 411.97 245.01 412.92 252.98 413.08"/><polygon class="cls-15" points="214.52 414.54 220.4 413.64 216.43 412.87 214.52 414.54"/><polygon class="cls-15" points="148.31 413.09 154.19 412.18 150.22 411.42 148.31 413.09"/><polygon class="cls-15" points="251.95 417.42 257.83 416.52 253.86 415.75 251.95 417.42"/><polygon class="cls-15" points="249.05 422.4 254.93 421.5 250.96 420.73 249.05 422.4"/><polygon class="cls-12" points="25.47 418.83 22.24 420.22 27.41 420.5 25.47 418.83"/><polygon class="cls-12" points="58.33 419.87 55.1 421.26 60.27 421.54 58.33 419.87"/><polygon class="cls-15" points="27.93 430.4 22.9 429.29 19.96 430.25 27.93 430.4"/><polygon class="cls-15" points="50.2 433.04 56.08 432.14 52.11 431.37 50.2 433.04"/><polygon class="cls-15" points="36.4 424.43 42.28 423.53 38.31 422.76 36.4 424.43"/><polygon class="cls-15" points="178.19 426.06 184.08 425.16 180.11 424.39 178.19 426.06"/><polygon class="cls-12" points="334.87 415.24 340.01 416.33 342.85 415.36 334.87 415.24"/><polygon class="cls-12" points="285.1 415.96 290.24 417.06 293.08 416.09 285.1 415.96"/><polygon class="cls-12" points="392.89 418.07 389.65 419.46 394.83 419.74 392.89 418.07"/><polygon class="cls-12" points="314.6 416.31 311.37 417.7 316.54 417.97 314.6 416.31"/><polygon class="cls-12" points="425.75 419.11 422.51 420.5 427.69 420.78 425.75 419.11"/><polygon class="cls-12" points="250.38 431.37 247.15 432.76 252.32 433.04 250.38 431.37"/><polygon class="cls-12" points="442.18 413.82 438.94 415.21 444.12 415.49 442.18 413.82"/><polygon class="cls-15" points="335.26 420.37 330.23 419.25 327.29 420.21 335.26 420.37"/><polygon class="cls-15" points="305.78 420.78 300.75 419.67 297.81 420.62 305.78 420.78"/><polygon class="cls-15" points="428.57 432.5 423.55 431.38 420.61 432.34 428.57 432.5"/><polygon class="cls-15" points="407.74 414.35 402.72 413.23 399.78 414.19 407.74 414.35"/><polygon class="cls-19" points="369.28 415.81 375.16 414.9 371.19 414.14 369.28 415.81"/><polygon class="cls-15" points="303.08 414.36 308.96 413.45 304.99 412.69 303.08 414.36"/><polygon class="cls-15" points="406.71 418.69 412.59 417.79 408.62 417.02 406.71 418.69"/><polygon class="cls-15" points="403.81 423.67 409.69 422.77 405.72 422 403.81 423.67"/><polygon class="cls-12" points="368.02 440.36 364.78 441.75 369.96 442.03 368.02 440.36"/><polygon class="cls-12" points="400.88 441.4 397.65 442.79 402.82 443.07 400.88 441.4"/><polygon class="cls-15" points="382.87 436.64 377.85 435.52 374.91 436.48 382.87 436.64"/><polygon class="cls-15" points="381.84 440.98 387.72 440.08 383.75 439.31 381.84 440.98"/><polygon class="cls-15" points="378.94 445.96 384.82 445.06 380.85 444.29 378.94 445.96"/><polygon class="cls-15" points="284.26 437.88 290.14 436.97 286.17 436.21 284.26 437.88"/><polygon class="cls-15" points="103.77 423.16 109.66 422.25 105.69 421.49 103.77 423.16"/><polygon class="cls-12" points="86.68 430.28 91.82 431.37 94.66 430.4 86.68 430.28"/><polygon class="cls-15" points="107.36 435.1 102.34 433.99 99.4 434.94 107.36 435.1"/><polygon class="cls-15" points="64.84 430.95 59.81 429.83 56.87 430.79 64.84 430.95"/><polygon class="cls-15" points="60.12 438.75 66.01 437.84 62.04 437.08 60.12 438.75"/></g></g></svg>