<svg xmlns="http://www.w3.org/2000/svg" width="285" height="276.72" viewBox="0 0 285 276.72">
  <g id="why-data-security" transform="translate(-35.9 -55.17)">
    <g id="freepik--Table--inject-33" transform="translate(45.163 331.521)">
      <path id="Path_3615" data-name="Path 3615" d="M313.384,474.624c0,.094-59.031.174-131.826.174s-131.839-.08-131.839-.174,59.018-.174,131.839-.174S313.384,474.524,313.384,474.624Z" transform="translate(-49.72 -474.45)" fill="#263238"/>
    </g>
    <g id="freepik--Graphic--inject-33" transform="translate(66.905 55.17)">
      <path id="Path_3616" data-name="Path 3616" d="M376.943,93.76c.06.074-8.291,6.971-18.646,15.416S339.49,124.37,339.43,124.3s8.284-6.964,18.646-15.416S376.876,93.686,376.943,93.76Z" transform="translate(-171.805 -67.895)" fill="#263238"/>
      <path id="Path_3617" data-name="Path 3617" d="M392.227,252.987c-.033.094-10.838-3.78-24.129-8.639s-24.069-8.881-24.008-8.968,10.838,3.773,24.129,8.639S392.287,252.9,392.227,252.987Z" transform="translate(-173.341 -114.594)" fill="#263238"/>
      <path id="Path_3618" data-name="Path 3618" d="M82.16,123.16c.047-.087,11.689,6.032,25.992,13.713s25.878,13.948,25.831,14.028-11.682-6.032-25.992-13.72S82.113,123.24,82.16,123.16Z" transform="translate(-82.16 -77.59)" fill="#263238"/>
      <path id="Path_3619" data-name="Path 3619" d="M88.42,263.7c0-.094,9.531-3.767,21.354-8.2s21.448-7.963,21.481-7.875-9.524,3.76-21.354,8.2S88.454,263.786,88.42,263.7Z" transform="translate(-84.224 -118.631)" fill="#263238"/>
      <path id="Path_3620" data-name="Path 3620" d="M229.027,244.4a58.191,58.191,0,1,1,58.184-58.188A58.192,58.192,0,0,1,229.027,244.4Zm0-115.7a57.526,57.526,0,1,0,0-.02Z" transform="translate(-114.062 -79.193)" fill="#f07167"/>
      <path id="Path_3621" data-name="Path 3621" d="M294.95,177.352s0-.4-.047-1.193c0-.4,0-.885-.047-1.468s0-1.26-.1-2.011-.134-1.622-.208-2.567-.248-1.971-.389-3.09c-.315-2.225-.8-4.779-1.495-7.614a73.465,73.465,0,0,0-3.016-9.269,70.932,70.932,0,0,0-5.114-10.349,74.444,74.444,0,0,0-18.68-20.865,72.292,72.292,0,0,0-14.028-8.385,71.561,71.561,0,0,0-16.89-5.362,74.638,74.638,0,0,0-28.767.328,78.786,78.786,0,0,0-9.812,2.8,73.593,73.593,0,0,0-34.122,25.59,72.815,72.815,0,0,0-5.985,9.631c-.422.858-.9,1.689-1.273,2.567l-1.186,2.621c-.71,1.79-1.441,3.579-2.011,5.422a71.3,71.3,0,0,0-2.795,11.414,78.7,78.7,0,0,0-.965,11.81,79.6,79.6,0,0,0,.958,11.816,71.12,71.12,0,0,0,2.795,11.354c.583,1.85,1.34,3.639,2.011,5.429l1.186,2.621c.375.885.858,1.716,1.28,2.567a71.715,71.715,0,0,0,5.979,9.638,73.62,73.62,0,0,0,34.129,25.6,78.564,78.564,0,0,0,9.846,2.775,74.611,74.611,0,0,0,28.767.328,73.419,73.419,0,0,0,30.885-13.72,74.3,74.3,0,0,0,18.66-20.878,70.934,70.934,0,0,0,5.114-10.349,73.462,73.462,0,0,0,3.016-9.236c.67-2.835,1.18-5.362,1.495-7.607.141-1.119.295-2.145.389-3.09s.141-1.8.208-2.574.087-1.441.1-2.011.034-1.072.047-1.468a11.527,11.527,0,0,1,.047-1.193v2.661a16.806,16.806,0,0,1-.087,2.011c-.087.744-.121,1.629-.188,2.574s-.235,1.977-.369,3.1c-.308,2.232-.784,4.786-1.468,7.627a73.453,73.453,0,0,1-3,9.263,70.463,70.463,0,0,1-5.1,10.389,74.451,74.451,0,0,1-18.68,20.972,73.5,73.5,0,0,1-50.027,14.879,72.018,72.018,0,0,1-9.879-1.374,76.9,76.9,0,0,1-9.873-2.808,73.861,73.861,0,0,1-34.3-25.69,73.054,73.054,0,0,1-6.032-9.678c-.422-.858-.9-1.7-1.287-2.58s-.791-1.756-1.193-2.634c-.71-1.8-1.448-3.593-2.011-5.449a71.154,71.154,0,0,1-2.808-11.394,73.433,73.433,0,0,1,0-23.733A71.985,71.985,0,0,1,151.45,154.1c.583-1.857,1.34-3.653,2.011-5.449.4-.878.8-1.756,1.193-2.634s.858-1.716,1.287-2.58a72.732,72.732,0,0,1,6.032-9.672,73.875,73.875,0,0,1,34.29-25.69,78.043,78.043,0,0,1,9.859-2.842A75.215,75.215,0,0,1,235,104.925a71.55,71.55,0,0,1,16.944,5.362,72.386,72.386,0,0,1,14.075,8.432,74.484,74.484,0,0,1,18.686,20.972,71.136,71.136,0,0,1,5.1,10.389,73.454,73.454,0,0,1,3,9.263c.67,2.842,1.16,5.4,1.468,7.634.134,1.119.275,2.145.369,3.09s.134,1.81.188,2.58.08,1.441.087,2.011,0,1.072,0,1.468C294.956,176.95,294.95,177.352,294.95,177.352Z" transform="translate(-108.571 -71.165)" fill="#263238"/>
      <path id="Path_3622" data-name="Path 3622" d="M214.594,254.431v-.67c45.427,0,82.27-37.908,82.274-84.672S260.028,84.407,214.581,84.4s-82.3,37.908-82.3,84.672l-.651.007c0-47.058,37.212-85.342,82.945-85.342,45.809,0,82.945,38.209,82.945,85.346s-37.136,85.349-82.945,85.349Z" transform="translate(-98.473 -64.591)" fill="#f07167"/>
      <path id="Path_3623" data-name="Path 3623" d="M257.67,251.817v-3.351a71.877,71.877,0,1,0,0-143.754V101.36a75.228,75.228,0,0,1,0,150.457Z" transform="translate(-144.844 -70.401)" fill="#f07167"/>
      <path id="Path_3624" data-name="Path 3624" d="M298.193,168.423h-3.258c0-46.026-36.274-83.338-81.023-83.338s-81.027,37.312-81.027,83.338H129.63c0-47.8,37.8-86.683,84.285-86.683C260.438,81.8,298.139,120.572,298.193,168.423Z" transform="translate(-97.813 -63.932)" fill="#f07167"/>
      <path id="Path_3625" data-name="Path 3625" d="M210.011,262.585c-51.925,0-94.171-43.331-94.171-96.582S158.086,69.42,210.011,69.42v3.351c-50.121,0-90.9,41.823-90.9,93.231s40.782,93.231,90.9,93.231S300.9,217.41,300.9,166h3.268C304.169,219.273,261.943,262.585,210.011,262.585Z" transform="translate(-93.266 -59.869)" fill="#f07167"/>
      <path id="Path_3626" data-name="Path 3626" d="M256.832,374.2H255.15v-.67h1.676Z" transform="translate(-141.716 -160.151)" fill="#f07167"/>
      <path id="Path_3627" data-name="Path 3627" d="M196.526,269.023c-1.119-.087-2.259-.194-3.351-.322l.074-.67c1.113.121,2.245.228,3.351.315Zm-10.054-1.253c-1.119-.194-2.245-.409-3.351-.637l.141-.67c1.086.228,2.2.442,3.311.637Zm-9.94-2.232c-1.079-.295-2.178-.617-3.257-.952l.2-.67c1.072.335,2.158.67,3.237.952Zm-9.685-3.177c-1.059-.4-2.118-.831-3.164-1.267l.261-.617c1.032.436,2.091.858,3.143,1.26Zm-9.377-4.062c-1.012-.5-2.011-1.025-3.023-1.562l.315-.59c.992.529,2.011,1.052,3,1.555Zm-8.908-4.967c-.958-.6-1.924-1.213-2.855-1.836l.369-.563c.932.623,1.89,1.24,2.842,1.83Zm-8.385-5.784c-.9-.67-1.8-1.387-2.681-2.1l.429-.516c.865.7,1.756,1.408,2.647,2.084Zm-7.8-6.555c-.838-.771-1.662-1.562-2.46-2.346l.469-.476c.791.777,1.615,1.562,2.446,2.332Zm-7.145-7.292c-.751-.845-1.5-1.7-2.225-2.567l.516-.429c.717.858,1.461,1.716,2.212,2.554Zm-6.421-7.9c-.67-.918-1.34-1.843-1.971-2.768l.55-.375c.63.912,1.287,1.836,1.957,2.741Zm-5.643-8.472c-.576-.958-1.153-1.95-1.7-2.936l.61-.335c.543.979,1.113,1.957,1.682,2.916Zm-4.812-8.961c-.489-1.019-.965-2.058-1.414-3.083l.617-.268c.442,1.019.918,2.051,1.4,3.063Zm-3.934-9.383c-.389-1.059-.764-2.138-1.113-3.2l.67-.214c.349,1.066.717,2.138,1.106,3.19Zm-3.03-9.725c-.282-1.092-.55-2.2-.8-3.3l.67-.147c.241,1.093.509,2.192.791,3.278ZM99.34,179.3c-.174-1.106-.335-2.239-.483-3.351l.67-.08c.141,1.113.3,2.239.476,3.351Zm-1.146-10.148c-.074-1.119-.127-2.265-.161-3.391h.67c0,1.119.087,2.252.161,3.351Zm.476-10.134H98c.04-1.133.094-2.272.161-3.4l.67.047C98.784,156.763,98.737,157.9,98.67,159.022Zm.791-10.094-.67-.08c.141-1.119.3-2.252.476-3.351l.67.107c-.147,1.092-.308,2.212-.449,3.324Zm1.743-9.967-.67-.147c.248-1.1.516-2.212.8-3.3l.67.168c-.261,1.079-.529,2.185-.771,3.311Zm2.681-9.759-.637-.208c.355-1.072.731-2.151,1.113-3.217l.63.228c-.355,1.059-.731,2.138-1.079,3.2Zm3.619-9.471-.617-.268c.456-1.032.932-2.071,1.414-3.1l.61.288c-.462,1.019-.932,2.051-1.381,3.076Zm4.5-9.082-.583-.322q.824-1.488,1.7-2.949l.57.349c-.55.958-1.119,1.944-1.662,2.922Zm5.362-8.6-.556-.382c.67-.925,1.307-1.857,1.977-2.768l.536.4c-.65.9-1.314,1.83-1.944,2.755Zm6.133-8.043-.509-.436c.724-.858,1.475-1.723,2.225-2.567l.5.449c-.731.824-1.475,1.682-2.2,2.54Zm6.87-7.44-.469-.476c.8-.784,1.629-1.575,2.453-2.346l.456.5c-.811.751-1.629,1.535-2.426,2.312Zm7.54-6.749-.422-.523c.871-.71,1.769-1.414,2.681-2.1l.409.536c-.9.664-1.79,1.367-2.654,2.071Zm8.137-6.032-.369-.556c.925-.623,1.89-1.24,2.849-1.836l.355.57c-.945.6-1.9,1.22-2.822,1.836Zm8.68-5.168-.315-.6c.992-.529,2.011-1.052,3.009-1.555l.3.6C156.727,67.547,155.722,68.063,154.73,68.619Zm9.122-4.357-.261-.617c1.039-.436,2.1-.865,3.143-1.26l.241.623c-1.039.375-2.091.8-3.123,1.233Zm9.5-3.465-.2-.637c1.079-.335,2.178-.67,3.257-.958l.181.67c-1.079.255-2.178.57-3.237.9Zm9.772-2.56-.134-.67c1.106-.235,2.225-.449,3.351-.67l.121.67C185.36,57.795,184.24,58.009,183.121,58.237Zm9.993-1.6-.074-.67c1.119-.127,2.259-.235,3.351-.322l.054.67c-1.066.087-2.2.235-3.311.322Z" transform="translate(-87.383 -55.328)" fill="#f07167"/>
      <path id="Path_3628" data-name="Path 3628" d="M255.16,55.84v-.67h1.682v.67Z" transform="translate(-141.719 -55.17)" fill="#f07167"/>
    </g>
    <g id="freepik--Email--inject-33" transform="translate(283.779 181.219)">
      <rect id="Rectangle_463" data-name="Rectangle 463" width="36.502" height="24.605" transform="translate(0 0.764) rotate(-1.2)" fill="#f07167"/>
      <path id="Path_3629" data-name="Path 3629" d="M449.568,247.19a2.133,2.133,0,0,1-.328.335l-1,.912-3.713,3.318-12.359,10.851-.1.087-.107-.08-.261-.2L418.489,252.25c-1.655-1.3-3.009-2.353-3.981-3.11-.442-.362-.8-.67-1.072-.858a2.154,2.154,0,0,1-.355-.322,2.682,2.682,0,0,1,.4.268l1.113.8,4.021,3.03L431.88,262.15l.261.2h-.208l12.42-10.778,3.78-3.231,1.039-.865A3.421,3.421,0,0,1,449.568,247.19Z" transform="translate(-412.965 -246.883)" fill="#263238"/>
      <path id="Path_3630" data-name="Path 3630" d="M413.839,277.567c-.067-.06,2.607-3.485,5.972-7.661s6.16-7.507,6.233-7.446-2.6,3.485-5.972,7.661S413.947,277.647,413.839,277.567Z" transform="translate(-413.215 -251.918)" fill="#263238"/>
      <path id="Path_3631" data-name="Path 3631" d="M450.139,261.65c.067-.054,2.849,3.231,6.206,7.373s6.032,7.5,5.958,7.554-2.855-3.231-6.213-7.373S450.045,261.71,450.139,261.65Z" transform="translate(-425.184 -251.65)" fill="#263238"/>
    </g>
    <g id="freepik--Signal--inject-33" transform="translate(264.419 55.464)">
      <path id="Path_3632" data-name="Path 3632" d="M414.316,95.733a3.023,3.023,0,1,1-.873-2.146A3.023,3.023,0,0,1,414.316,95.733Z" transform="translate(-392.019 -67.837)" fill="#455a64"/>
      <path id="Path_3633" data-name="Path 3633" d="M402.345,88.447a8.371,8.371,0,0,1,12.125-.161,1.7,1.7,0,0,0,2.42-2.4,11.823,11.823,0,0,0-16.937.141C398.437,87.609,400.83,90.049,402.345,88.447Z" transform="translate(-389.117 -64.438)" fill="#455a64"/>
      <path id="Path_3634" data-name="Path 3634" d="M386.977,65.536a24.728,24.728,0,0,1,16.24-6.495,24.089,24.089,0,0,1,16.568,6.341c1.6,1.495,4.021-.891,2.413-2.4A27.654,27.654,0,0,0,403.23,55.61c-7.078,0-13.365,2.909-18.646,7.48-1.662,1.434.744,3.847,2.393,2.42Z" transform="translate(-384.024 -55.609)" fill="#455a64"/>
      <path id="Path_3635" data-name="Path 3635" d="M393.081,77.666a16.649,16.649,0,0,1,24.477-.349c1.528,1.568,3.941-.824,2.413-2.393a20.034,20.034,0,0,0-29.263.322c-1.488,1.609.9,4.021,2.393,2.42Z" transform="translate(-386.073 -59.937)" fill="#455a64"/>
    </g>
    <g id="freepik--GPS--inject-33" transform="translate(35.9 179.16)">
      <path id="Path_3636" data-name="Path 3636" d="M64.05,257.823a14.075,14.075,0,1,0-26.22,7.111h0l.04.054c.543.912,1.22,1.562,1.9,2.52l8.177,10.831a2.54,2.54,0,0,0,4.055,0l8.043-10.657A31.649,31.649,0,0,0,62.06,265v-.04h0A13.975,13.975,0,0,0,64.05,257.823Zm-14.075,6.133a6.208,6.208,0,1,0-.007,0Z" transform="translate(-35.9 -243.744)" fill="#455a64"/>
    </g>
    <g id="freepik--Money--inject-33" transform="translate(37.491 72.534)">
      <path id="Path_3637" data-name="Path 3637" d="M75.39,98.384A18.579,18.579,0,1,1,55.631,81.119,18.579,18.579,0,0,1,75.39,98.384Z" transform="translate(-38.274 -81.076)" fill="#f07167"/>
      <g id="Group_232" data-name="Group 232" transform="translate(4.206 3.873)" opacity="0.3">
        <path id="Path_3638" data-name="Path 3638" d="M73,100.143a8.177,8.177,0,0,1-.483-1.676A15.268,15.268,0,0,0,70.6,94.245,14.746,14.746,0,0,0,68.591,91.8a14.242,14.242,0,0,0-2.962-2.165,13.638,13.638,0,0,0-1.79-.824,13.076,13.076,0,0,0-1.964-.583,14.242,14.242,0,0,0-2.1-.288,14.887,14.887,0,0,0-2.185.04,16.026,16.026,0,0,0-2.151.382,15.105,15.105,0,0,0-2.011.67,14.463,14.463,0,0,0-1.81.952,12.313,12.313,0,0,0-1.6,1.16,14.075,14.075,0,0,0-2.46,2.681,14.457,14.457,0,0,0-1.528,2.788,14.893,14.893,0,0,0-1.059,4.517,8.284,8.284,0,0,1-.154,1.736,4.216,4.216,0,0,1-.268-1.749,13,13,0,0,1,.764-4.772,13.921,13.921,0,0,1,1.542-2.989,14.149,14.149,0,0,1,2.554-2.929A13.579,13.579,0,0,1,51.1,89.151a13.123,13.123,0,0,1,1.944-1.046,14.175,14.175,0,0,1,2.158-.764,14.589,14.589,0,0,1,6.957-.127,14.223,14.223,0,0,1,2.1.67,13.881,13.881,0,0,1,1.9.918,14.746,14.746,0,0,1,3.076,2.379,14.451,14.451,0,0,1,2.058,2.681A13.257,13.257,0,0,1,72.981,98.4,4.068,4.068,0,0,1,73,100.143Z" transform="translate(-44.549 -86.855)"/>
      </g>
      <g id="Group_233" data-name="Group 233" transform="translate(12.515 8.662)" opacity="0.3">
        <path id="Path_3639" data-name="Path 3639" d="M65.166,112.19l.2,2.46-2.2.174-.154-2.386a10.443,10.443,0,0,1-5.61-1.34l.992-2.775a8.888,8.888,0,0,0,4.383,1.22l-.295-3.666c-2.487-.4-5.275-.992-5.523-4.129-.188-2.326,1.34-4.457,4.772-5.134l-.194-2.433L63.685,94l.194,2.393a9.98,9.98,0,0,1,4.564.979l-.878,2.788a9.169,9.169,0,0,0-3.452-.871l.3,3.733c2.48.375,5.221.972,5.476,4.062C70.086,109.416,68.578,111.5,65.166,112.19Zm-2.976-9.517-.255-3.117c-1.139.355-1.548,1.025-1.488,1.756S61.2,102.438,62.19,102.673Zm4.176,4.98c-.06-.764-.731-1.133-1.7-1.387l.241,3.03C66.011,108.967,66.446,108.357,66.366,107.653Z" transform="translate(-56.947 -94)"/>
      </g>
      <path id="Path_3640" data-name="Path 3640" d="M44.92,109.21c.04,0,.087.617.3,1.716a14.209,14.209,0,0,0,1.7,4.377,14.745,14.745,0,0,0,1.957,2.594,15.074,15.074,0,0,0,2.916,2.312,14.176,14.176,0,0,0,3.787,1.575,15.027,15.027,0,0,0,4.383.409,15.228,15.228,0,0,0,4.29-.979,14.269,14.269,0,0,0,3.546-2.038,13.908,13.908,0,0,0,4.189-5.5,14.357,14.357,0,0,0,1.133-4.6c.067-1.113.034-1.736.074-1.736a1.9,1.9,0,0,1,.04.449,10.389,10.389,0,0,1,0,1.294,13.727,13.727,0,0,1-1.019,4.692,14.945,14.945,0,0,1-1.6,2.9,15.449,15.449,0,0,1-2.614,2.755,14.638,14.638,0,0,1-3.6,2.1,14.156,14.156,0,0,1-8.887.59,14.511,14.511,0,0,1-3.894-1.6,14.98,14.98,0,0,1-2.956-2.386,14.745,14.745,0,0,1-1.964-2.681,13.727,13.727,0,0,1-1.622-4.484,10.724,10.724,0,0,1-.114-1.307A1.9,1.9,0,0,1,44.92,109.21Z" transform="translate(-40.466 -89.737)" fill="#263238"/>
    </g>
    <g id="freepik--Character--inject-33" transform="translate(63.231 110.145)">
      <path id="Path_3641" data-name="Path 3641" d="M79.25,407.837s4.5,2.909,6.575,2.808,10.248-10.228,10.248-10.228L91.817,397.2l-10.483,1.736-2.071,8.807" transform="translate(-77.526 -227.6)" fill="#263238"/>
      <path id="Path_3642" data-name="Path 3642" d="M202.625,191.46a20.871,20.871,0,0,1-4.739,19.37c-2.151,2.319-4.893,4.216-6.253,7.071-1.508,3.164-1.019,6.883-1.689,10.328s-3.593,7.1-6.944,6.273c3.177,4.692,8,8.117,13.177,10.469s10.724,3.733,16.24,5.107c3.07.757,6.381,1.508,9.316.328,3.8-1.521,5.69-5.7,7.212-9.5L242.2,207.794" transform="translate(-111.738 -159.756)" fill="#263238"/>
      <path id="Path_3643" data-name="Path 3643" d="M257.761,164.045a4.96,4.96,0,0,0-4.544-4.933l-23.371-10.724c-8.438-.71-16.863,14.39-17.212,22.849a140.468,140.468,0,0,0,2.091,27.674c2.534,14.035,12,14.3,12,14.3l.8,22.708,29.33-.054Z" transform="translate(-121.486 -145.545)" fill="#b5715a"/>
      <path id="Path_3644" data-name="Path 3644" d="M221.85,198.417a1.81,1.81,0,0,0,1.783,1.783,1.729,1.729,0,0,0,1.823-1.669,1.8,1.8,0,0,0-1.776-1.783,1.723,1.723,0,0,0-1.83,1.669Z" transform="translate(-124.549 -161.499)" fill="#263238"/>
      <path id="Path_3645" data-name="Path 3645" d="M218.389,191.867c.194.168,1.615-.06,3.512.362s3.2,1.227,3.432,1.153c.107-.034-.08-.3-.67-.67a8.793,8.793,0,0,0-2.728-1.072,7.788,7.788,0,0,0-2.815-.134C218.516,191.613,218.288,191.814,218.389,191.867Z" transform="translate(-123.4 -159.748)" fill="#263238"/>
      <path id="Path_3646" data-name="Path 3646" d="M249.19,197.018a1.81,1.81,0,0,0,1.783,1.79,1.729,1.729,0,0,0,1.823-1.669,1.81,1.81,0,0,0-1.776-1.79,1.736,1.736,0,0,0-1.83,1.669Z" transform="translate(-133.565 -161.038)" fill="#263238"/>
      <path id="Path_3647" data-name="Path 3647" d="M245.193,192.422c.281.067,1.508-.918,3.532-1.508s3.706-.476,3.881-.67c.087-.094-.235-.261-.972-.322a9.042,9.042,0,0,0-3.164.375,8.043,8.043,0,0,0-2.755,1.341C245.186,192.1,245.045,192.4,245.193,192.422Z" transform="translate(-132.229 -159.244)" fill="#263238"/>
      <path id="Path_3648" data-name="Path 3648" d="M232.552,205.023a12.714,12.714,0,0,0-3.17-.5c-.5-.04-.965-.127-1.059-.469a2.554,2.554,0,0,1,.3-1.475c.442-1.213.9-2.48,1.387-3.814,1.924-5.422,3.3-9.873,3.083-9.953s-1.957,4.263-3.881,9.685c-.456,1.341-.9,2.614-1.34,3.827a2.862,2.862,0,0,0-.214,1.957,1.247,1.247,0,0,0,.871.744,3.351,3.351,0,0,0,.844.094A11.811,11.811,0,0,0,232.552,205.023Z" transform="translate(-126.437 -158.882)" fill="#263238"/>
      <path id="Path_3649" data-name="Path 3649" d="M233.7,242.689a35.845,35.845,0,0,0,18.767-5.429s-4.135,10.362-18.251,9.343Z" transform="translate(-128.457 -174.859)" fill="#884c3b"/>
      <path id="Path_3650" data-name="Path 3650" d="M235.507,218.786a5.208,5.208,0,0,1,3.68-2.554,2.219,2.219,0,0,1,2.219,1.173,3.512,3.512,0,0,1-.241,3.237,2.969,2.969,0,0,1-2.909,1.488,4.973,4.973,0,0,1-2.467-1.521,1.723,1.723,0,0,1-.509-.67,1.166,1.166,0,0,1,.127-1.019" transform="translate(-128.956 -167.92)" fill="#884c3b"/>
      <path id="Path_3651" data-name="Path 3651" d="M240.612,214.84c-.322,0-.282,2.1-2.051,3.633s-4.021,1.34-4.021,1.649c0,.134.509.4,1.461.4a5.255,5.255,0,0,0,3.351-1.253,4.6,4.6,0,0,0,1.582-3.043C241,215.343,240.753,214.826,240.612,214.84Z" transform="translate(-128.734 -167.466)" fill="#263238"/>
      <path id="Path_3652" data-name="Path 3652" d="M242.991,178.917c.255.5,2.151,0,4.444,0s4.2.389,4.45-.121c.1-.241-.275-.67-1.072-1.113a7.715,7.715,0,0,0-6.776.08C243.252,178.213,242.884,178.676,242.991,178.917Z" transform="translate(-131.515 -154.968)" fill="#263238"/>
      <path id="Path_3653" data-name="Path 3653" d="M215.739,187.512c.436.436,2.091-.067,4.089-.141s3.7.208,4.082-.268c.161-.228-.114-.67-.865-1.059a6.7,6.7,0,0,0-3.351-.67,6.609,6.609,0,0,0-3.237.972C215.772,186.842,215.551,187.3,215.739,187.512Z" transform="translate(-122.513 -157.745)" fill="#263238"/>
      <path id="Path_3654" data-name="Path 3654" d="M278.955,197.437c-1.213-6.247-5.007-26.26-10.6-36.7s-11.977-14.558-18.184-16.086a14.2,14.2,0,0,0-13.512,3.418c-2.728,2.56-3.512,9.839-3.512,9.839s14.967,2.956,20.174,11.327c5.992,9.611,7.5,14.484,7.5,14.484l2.011,5.288s1.582,25.744,1.059,30.831l22.48,8.117C281.548,218.034,280.174,203.7,278.955,197.437Z" transform="translate(-128.275 -144.158)" fill="#263238"/>
      <path id="Path_3655" data-name="Path 3655" d="M226.606,158.518s-9.866-.509-12.788,9.176c-1.34,4.383-1.475,17.125-1.475,17.125s-2.111-10.1-1.79-15.8,3-12.963,7.265-17.051c4.149-3.975,7.688-5.878,15.282-5.6,0,0-1.086,2.158-2.956,5.08C229.206,152.915,227.732,153.076,226.606,158.518Z" transform="translate(-120.813 -144.877)" fill="#263238"/>
      <path id="Path_3656" data-name="Path 3656" d="M274.2,202.2a4.272,4.272,0,0,1,6.166-3.78c1.5.818,2.681,2.513,2.621,5.831-.154,8.827-8.988,6.85-9,6.6C274,210.712,274.111,205.853,274.2,202.2Z" transform="translate(-141.743 -161.89)" fill="#b5715a"/>
      <path id="Path_3657" data-name="Path 3657" d="M278.1,208.874c.04,0,.154.114.416.235a1.542,1.542,0,0,0,1.146.047c.938-.328,1.749-1.8,1.823-3.351a5.107,5.107,0,0,0-.4-2.212,1.756,1.756,0,0,0-1.133-1.2.778.778,0,0,0-.918.4c-.121.248-.067.422-.114.436s-.188-.147-.107-.509a.939.939,0,0,1,.355-.55,1.166,1.166,0,0,1,.851-.208,2.158,2.158,0,0,1,1.589,1.394,5.275,5.275,0,0,1,.489,2.473c-.087,1.776-1.032,3.425-2.312,3.773a1.649,1.649,0,0,1-1.4-.261C278.11,209.089,278.07,208.888,278.1,208.874Z" transform="translate(-143.094 -163.216)" fill="#884c3b"/>
      <path id="Path_3658" data-name="Path 3658" d="M243.923,144.49c0,.067-1.005.281-2.534.958a12.011,12.011,0,0,0-4.96,4.075,22.319,22.319,0,0,0-2.855,5.838c-.536,1.588-.8,2.6-.865,2.58a3.206,3.206,0,0,1,.121-.724c.094-.462.275-1.119.509-1.93a20.161,20.161,0,0,1,2.808-5.972,12.065,12.065,0,0,1,2.547-2.627,11.843,11.843,0,0,1,2.594-1.468,9.24,9.24,0,0,1,1.079-.382,6.165,6.165,0,0,1,.831-.228,2.775,2.775,0,0,1,.724-.121Z" transform="translate(-128.13 -144.268)" fill="#455a64"/>
      <path id="Path_3659" data-name="Path 3659" d="M275.838,218a.8.8,0,0,1-.08-.188c-.054-.141-.114-.328-.2-.556a14.774,14.774,0,0,1-.576-2.212,29.764,29.764,0,0,1,0-8.365c.181-1.763.436-3.686.6-5.751a27.949,27.949,0,0,0-.127-6.582,19.8,19.8,0,0,0-2.48-6.79,28.15,28.15,0,0,0-4.859-6.1c-3.881-3.733-8.412-6.273-12.5-8.5s-7.869-4.142-10.858-6.032a77.909,77.909,0,0,1-6.843-4.832c-.777-.617-1.34-1.113-1.756-1.448l-.449-.389c-.094-.094-.147-.141-.141-.147l.168.121c.121.094.275.208.462.362l1.8,1.394c1.568,1.193,3.881,2.875,6.89,4.732s6.743,3.78,10.878,5.972a54.047,54.047,0,0,1,12.587,8.532,28.666,28.666,0,0,1,4.92,6.173,20.148,20.148,0,0,1,2.5,6.917,28.15,28.15,0,0,1,.094,6.656c-.181,2.078-.449,4.021-.67,5.744a31.078,31.078,0,0,0-.1,8.324,18.2,18.2,0,0,0,.509,2.212c.074.235.127.416.168.563a1.215,1.215,0,0,1,.06.188Z" transform="translate(-129.073 -149.418)" fill="#455a64"/>
      <path id="Path_3660" data-name="Path 3660" d="M84.11,395.616a1.889,1.889,0,0,1,.523-.335,9.386,9.386,0,0,1,1.575-.67,11.039,11.039,0,0,1,5.6-.3,11.213,11.213,0,0,1,5.02,2.487A9.383,9.383,0,0,1,98,398.022c.255.322.369.509.349.523a18.583,18.583,0,0,0-1.689-1.555,11.515,11.515,0,0,0-10.382-2.145C84.914,395.234,84.137,395.676,84.11,395.616Z" transform="translate(-79.129 -226.572)" fill="#263238"/>
      <path id="Path_3661" data-name="Path 3661" d="M98.56,388.92a4.653,4.653,0,0,1,1.227.9,12.513,12.513,0,0,1,3.7,6.247,4.786,4.786,0,0,1,.208,1.508,17.025,17.025,0,0,0-5.134-8.66Z" transform="translate(-83.894 -224.87)" fill="#263238"/>
      <path id="Path_3662" data-name="Path 3662" d="M174.92,453.5s7.118-34.658,22.205-41.361l59.819-1.756s19.766,13.237,22.929,43.311Z" transform="translate(-109.074 -231.946)" fill="#263238"/>
      <path id="Path_3663" data-name="Path 3663" d="M225.323,254.45s1.763,11.093,13.6,9.752,16.468-7.956,16.468-7.956l16.448,5.275,2.587,31.817a140.51,140.51,0,0,0-15.416,58.881c-.134,3.438-.255,7.212-2.547,9.779a12.421,12.421,0,0,1-5.456,3.13,49.833,49.833,0,0,1-39.142-3.224s-5.027-54.437-4.41-55.979,8.847-47.339,8.847-47.339Z" transform="translate(-119.785 -180.527)" fill="#e0e0e0"/>
      <path id="Path_3664" data-name="Path 3664" d="M164.729,258.2s-10.456.737-13.257,2.138-39.457,47.386-40.885,48.09c-1.166.583-22.983,20.858-31.984,40.483-1.776,3.867-3.15,9.383-.228,13.043,0,0,10.509-13.2,16.823-7.406l28.231-28.613,29.491-17.2Z" transform="translate(-76.678 -181.764)" fill="#455a64"/>
      <g id="Group_234" data-name="Group 234" transform="translate(98.742 75.719)" opacity="0.3">
        <path id="Path_3665" data-name="Path 3665" d="M224,347.72c12.413-23.968,12.413-58.7,6.495-90.59l-5.308,45.315Z" transform="translate(-224 -257.13)"/>
      </g>
      <path id="Path_3666" data-name="Path 3666" d="M180.845,263.281l.932,38.874s3.72,43.07,4.437,43.07,2.8,15.174,0,21.944-11.9,15.878-11.9,15.878l11.441,12.373s10.724-17.044,14.008-28.016,12.373-27.54,13.774-58.372.824-60.912.824-60.912l-8.995,6.515-8.646.181Z" transform="translate(-108.873 -178.44)" fill="#455a64"/>
      <path id="Path_3667" data-name="Path 3667" d="M208.721,368.574a1.151,1.151,0,0,1,.094-.369c.094-.241.168-.61.3-1.072L210.25,363c.952-3.6,2.3-8.82,3.546-15.355.623-3.264,1.22-6.863,1.629-10.724.194-1.944.342-3.961.389-6.032a37.642,37.642,0,0,0-.349-6.387,19.524,19.524,0,0,0-.771-3.217,33.444,33.444,0,0,0-1.146-3.21l-.67-1.609-.724-1.6c-.469-1.072-1.005-2.131-1.535-3.2-2.145-4.269-4.652-8.552-7.373-12.842-2.346-3.706-4.752-7.279-7.192-10.657l-.094-.134.127-.1,17.5-14.363.114.268-15.416,1.776-.308.034.194-.241c4.4-5.362,7.976-9.759,10.449-12.795l2.849-3.465.751-.9c.174-.2.268-.295.268-.295l-.241.322-.717.918-2.808,3.438L198.366,275.5l-.114-.2,15.416-1.83.516-.06-.4.328-17.48,14.41.034-.235c2.446,3.385,4.853,6.957,7.205,10.67,2.681,4.3,5.228,8.586,7.373,12.882.536,1.072,1.072,2.131,1.542,3.217l.724,1.6.67,1.615c.456,1.066.791,2.158,1.153,3.231a20.3,20.3,0,0,1,.771,3.271,37.61,37.61,0,0,1,.335,6.441c-.047,2.091-.2,4.115-.4,6.066-.422,3.9-1.032,7.5-1.669,10.771-1.287,6.542-2.681,11.756-3.66,15.349-.5,1.79-.912,3.177-1.2,4.115-.147.456-.255.811-.335,1.066S208.721,368.574,208.721,368.574Z" transform="translate(-116.012 -181.682)" fill="#263238"/>
      <path id="Path_3668" data-name="Path 3668" d="M273.782,242.89s5.791,8.928,6.394,9.544c0,0,24.464,6.924,25.912,9.839,5.952,12.024,1.146,16.347,0,32.875-1.428,20.543-8.3,49.136-8.3,49.136s9.678,37.3,10.724,39.357-32.943,14.558-36.548,9.853-6.428-20.912-6.428-20.912-3.351-32.929-2.058-46.046,7.373-26.6,9.517-42.447C275.176,267.347,273.782,242.89,273.782,242.89Z" transform="translate(-138.177 -176.716)" fill="#455a64"/>
      <path id="Path_3669" data-name="Path 3669" d="M265.45,360.518a2.308,2.308,0,0,1,.074-.483c.074-.342.168-.8.281-1.34s.295-1.341.476-2.151.556-1.756.885-2.782a66.236,66.236,0,0,1,7.587-15.034,96.516,96.516,0,0,1,10.63-13.09c1.508-1.548,2.782-2.748,3.686-3.552.449-.4.818-.67,1.066-.9a2.246,2.246,0,0,1,.4-.268s-2.011,1.756-4.973,4.886a104.334,104.334,0,0,0-10.516,13.117,70.086,70.086,0,0,0-7.654,14.893c-.335,1.019-.67,1.937-.925,2.755s-.382,1.535-.529,2.131-.261,1.005-.349,1.34a3.406,3.406,0,0,1-.141.476Z" transform="translate(-138.927 -202.446)" fill="#263238"/>
      <path id="Path_3670" data-name="Path 3670" d="M288.5,257.75a2.334,2.334,0,0,1,.248.456c.161.335.375.784.67,1.34.556,1.206,1.341,2.9,2.312,4.967q.731,1.582,1.582,3.432l.885,1.91c.295.67.63,1.34.878,2.051,1.072,2.869,2.252,6.032,3.492,9.31l2.775,7.453.067.181-.188.04-6.535,1.414.094-.2,3.284,7.212c.369.845.67,1.521.891,2.011l.221.536a.624.624,0,0,1,.06.188.776.776,0,0,1-.1-.168l-.261-.516-.958-1.977-3.391-7.165-.08-.161.181-.04,6.521-1.454-.114.221-2.815-7.413c-1.227-3.3-2.393-6.448-3.458-9.31-.248-.731-.576-1.394-.871-2.058l-.858-1.917-1.515-3.472c-.918-2.084-1.676-3.787-2.212-5l-.583-1.341A3.351,3.351,0,0,1,288.5,257.75Z" transform="translate(-146.527 -181.616)" fill="#263238"/>
      <path id="Path_3671" data-name="Path 3671" d="M312.53,360.495s12.513,12.513,18.948,11.8,14.839-14.658,14.839-19.484-6.032-35.939-6.032-35.939l2.5-11.709-23.459-.449-4.692,36.066Z" transform="translate(-154.451 -197.101)" fill="#455a64"/>
      <path id="Path_3672" data-name="Path 3672" d="M302.15,263.22a1.157,1.157,0,0,1-.08.261l-.282.744-.469,1.206c-.208.469-.436,1.012-.7,1.615-.543,1.213-1.253,2.681-2.145,4.343a59.744,59.744,0,0,1-3.351,5.463,64.706,64.706,0,0,1-11.106,12.413,55.517,55.517,0,0,1-7.976,5.791,32.359,32.359,0,0,1-9.812,3.934,22.386,22.386,0,0,1-10.55-.255,18.419,18.419,0,0,1-4.645-2.011,16.756,16.756,0,0,1-3.706-3.123,38.721,38.721,0,0,1-4.926-7.44c-1.34-2.446-2.56-4.745-3.579-6.89a51.46,51.46,0,0,1-2.42-5.938,33.287,33.287,0,0,1-1.18-4.692,20.825,20.825,0,0,1-.322-4.109,1.767,1.767,0,0,1,0,.275,5.342,5.342,0,0,0,.047.791,29.327,29.327,0,0,0,.382,3.023,33.971,33.971,0,0,0,1.233,4.658,53.471,53.471,0,0,0,2.453,5.891c1.032,2.131,2.265,4.417,3.613,6.857a38.475,38.475,0,0,0,4.906,7.373,16.61,16.61,0,0,0,3.646,3.05,18.15,18.15,0,0,0,4.564,1.957,22.118,22.118,0,0,0,10.382.241,32.305,32.305,0,0,0,9.712-3.887,56.053,56.053,0,0,0,7.942-5.737,65.316,65.316,0,0,0,11.106-12.312c1.341-1.944,2.453-3.787,3.391-5.416s1.629-3.1,2.192-4.3c.275-.6.516-1.139.731-1.6l.5-1.193.315-.731A1.253,1.253,0,0,1,302.15,263.22Z" transform="translate(-128.85 -183.419)" fill="#263238"/>
      <path id="Path_3673" data-name="Path 3673" d="M311.738,262.066a3.2,3.2,0,0,1-.4.436l-1.166,1.193-4.37,4.336-6.454,6.434a26.566,26.566,0,0,1-4.236,3.351,12.493,12.493,0,0,1-5.469,1.95,9.6,9.6,0,0,1-5.69-1.092,6.877,6.877,0,0,1-3.264-4.256,18.766,18.766,0,0,1-.55-4.873c0-1.528.054-2.949.08-4.249a23.278,23.278,0,0,0-.429-6.086,9,9,0,0,0-.57-1.555,5.285,5.285,0,0,1-.235-.536,3.037,3.037,0,0,1,.295.5,7.606,7.606,0,0,1,.637,1.555,22.191,22.191,0,0,1,.55,6.126c0,1.3-.06,2.721-.04,4.243a18.766,18.766,0,0,0,.57,4.779,6.568,6.568,0,0,0,3.123,4.055,9.317,9.317,0,0,0,5.489,1.039,12.252,12.252,0,0,0,5.322-1.89,26.5,26.5,0,0,0,4.2-3.311c1.247-1.166,2.359-2.366,3.465-3.412s2.118-2.051,3.05-2.956l4.437-4.263,1.213-1.146A4.776,4.776,0,0,1,311.738,262.066Z" transform="translate(-143.391 -181.408)" fill="#263238"/>
      <path id="Path_3674" data-name="Path 3674" d="M192.146,364.968a.67.67,0,0,1-.04-.181l-.08-.543c-.06-.5-.147-1.206-.261-2.091-.228-1.85-.55-4.471-.945-7.7-.791-6.5-1.91-15.489-2.962-25.429-.529-4.973-.972-9.712-1.34-14.035s-.6-8.211-.744-11.488c-.094-1.635-.141-3.117-.181-4.417s-.074-2.42-.074-3.351v-2.654a.971.971,0,0,1,0-.188.63.63,0,0,1,0,.181,3.457,3.457,0,0,0,.034.55q0,.764.08,2.111c0,.912.067,2.011.134,3.351s.127,2.782.228,4.41c.174,3.271.476,7.158.824,11.475s.824,9.055,1.34,14.028c1.059,9.933,2.138,18.921,2.862,25.429.349,3.237.67,5.871.838,7.715.087.891.154,1.6.2,2.1a2.96,2.96,0,0,0,.04.543.563.563,0,0,1,.047.181Z" transform="translate(-112.567 -193.203)" fill="#263238"/>
      <path id="Path_3675" data-name="Path 3675" d="M343.583,305.073h-1.716l-4.812-.047-16.957-.255.161-.127c-.952,5.034-1.723,10.771-2.319,16.837-1.059,11.133-1.5,21.253-2.044,28.566-.261,3.66-.509,6.615-.67,8.653-.1,1.005-.188,1.79-.241,2.353-.034.248-.054.449-.074.61a1.025,1.025,0,0,1-.033.2.8.8,0,0,1,0-.208,4.333,4.333,0,0,1,.033-.61c.047-.563.107-1.34.181-2.353.154-2.011.362-5.007.59-8.66.483-7.312.885-17.426,1.95-28.586.59-6.079,1.374-11.823,2.353-16.863v-.134h.134l16.951.382,4.819.134,1.273.047h.328C343.55,305.06,343.583,305.067,343.583,305.073Z" transform="translate(-155.223 -197.015)" fill="#263238"/>
      <circle id="Ellipse_80" data-name="Ellipse 80" cx="1.836" cy="1.836" r="1.836" transform="translate(180.793 112.884)" fill="#e0e0e0"/>
      <path id="Path_3676" data-name="Path 3676" d="M350.016,314.341a4.021,4.021,0,0,1-.121-.436,1.863,1.863,0,0,0-.67-.932,1.723,1.723,0,0,0-1.609-.208,1.682,1.682,0,0,0,0,3.15,1.723,1.723,0,0,0,1.609-.214,1.836,1.836,0,0,0,.67-.932,3.6,3.6,0,0,1,.121-.429.918.918,0,0,1,0,.462,1.9,1.9,0,0,1-.67,1.1,1.95,1.95,0,0,1-1.87.315,2.011,2.011,0,0,1,0-3.753,1.95,1.95,0,0,1,1.87.315,1.863,1.863,0,0,1,.67,1.093C350.083,314.174,350.036,314.341,350.016,314.341Z" transform="translate(-165.55 -199.621)" fill="#263238"/>
      <circle id="Ellipse_81" data-name="Ellipse 81" cx="1.836" cy="1.836" r="1.836" transform="translate(128.595 169.412)" fill="#e0e0e0"/>
      <path id="Path_3677" data-name="Path 3677" d="M272.115,398.683s-.04-.161-.127-.429a1.863,1.863,0,0,0-.67-.932,1.689,1.689,0,1,0,0,2.728,1.863,1.863,0,0,0,.67-.932c.087-.268.094-.436.127-.436a.891.891,0,0,1,0,.469,1.83,1.83,0,0,1-.67,1.093,1.944,1.944,0,0,1-1.863.322,2.011,2.011,0,0,1,0-3.76,1.944,1.944,0,0,1,1.863.322,1.83,1.83,0,0,1,.67,1.093.844.844,0,0,1,0,.462Z" transform="translate(-139.861 -227.434)" fill="#263238"/>
      <path id="Path_3678" data-name="Path 3678" d="M277.876,440.5a1.843,1.843,0,1,1-1.843-1.843A1.843,1.843,0,0,1,277.876,440.5Z" transform="translate(-141.809 -241.272)" fill="#e0e0e0"/>
      <path id="Path_3679" data-name="Path 3679" d="M277.8,440.43c-.034,0-.04-.168-.127-.436a1.823,1.823,0,0,0-.67-.932A1.7,1.7,0,1,0,275.4,442,1.722,1.722,0,0,0,277,441.79a1.8,1.8,0,0,0,.67-.932c.087-.268.094-.436.127-.429a.844.844,0,0,1,0,.462,1.81,1.81,0,0,1-.67,1.092,1.957,1.957,0,0,1-1.87.322,2.011,2.011,0,0,1,0-3.76,1.957,1.957,0,0,1,1.87.322,1.81,1.81,0,0,1,.67,1.092A.892.892,0,0,1,277.8,440.43Z" transform="translate(-141.734 -241.198)" fill="#263238"/>
      <path id="Path_3680" data-name="Path 3680" d="M343.448,322.35c0,.1-4.812-.047-10.724-.315s-10.724-.57-10.724-.67,4.812.047,10.724.322S343.448,322.256,343.448,322.35Z" transform="translate(-157.574 -202.582)" fill="#263238"/>
      <path id="Path_3681" data-name="Path 3681" d="M164.856,350.22l-6.917,2.761-15.047-37.654a17.321,17.321,0,1,0-32.172,12.849l15.047,37.654-6.917,2.768L103.8,330.944a24.761,24.761,0,0,1,45.986-18.378Z" transform="translate(-85.035 -194.554)" fill="#e0e0e0"/>
      <path id="Path_3682" data-name="Path 3682" d="M164.836,350.151l-.308-.751-.878-2.205L160.3,338.83c-1.461-3.633-3.251-8.043-5.322-13.217q-1.555-3.861-3.311-8.244c-1.227-2.889-2.219-6.106-4.122-9.028a24.129,24.129,0,0,0-7.741-7.567c-.409-.248-.811-.5-1.227-.737l-1.3-.637a24.131,24.131,0,0,0-2.681-1.092c-.462-.174-.952-.268-1.428-.409a9.8,9.8,0,0,0-1.454-.355,23.655,23.655,0,0,0-3.016-.4,25.47,25.47,0,0,0-6.206.295l-1.548.362-.777.181-.764.255-1.528.529c-.5.194-.985.442-1.481.67A24.544,24.544,0,0,0,103.247,328.6c.737,2.332,1.743,4.631,2.681,6.971l11.562,28.928,1.582,3.948-.228-.094,6.917-2.768-.094.228c-3-7.487-5.918-14.819-8.767-21.937l-4.2-10.523-2.051-5.127a18.947,18.947,0,0,1-1.227-5.322,17.574,17.574,0,0,1,2.46-10.188,11.76,11.76,0,0,1,.67-1.1l.771-1.032a19.149,19.149,0,0,1,3.767-3.412c.349-.241.717-.436,1.079-.67l.536-.315.57-.261a17.52,17.52,0,0,1,4.692-1.488,18.453,18.453,0,0,1,4.779-.127,17.587,17.587,0,0,1,8.452,3.351,16.756,16.756,0,0,1,5.409,6.609c.141.315.288.63.429.938s.255.637.375.952l.751,1.87q.731,1.863,1.448,3.639l5.2,13.063c3.123,7.882,5.57,14.075,7.2,18.15l-.067-.034,5.228-2.058,1.28-.5.429-.161-.4.174c-.281.114-.67.281-1.26.516l-5.235,2.118h-.047v-.047c-1.649-4.089-4.122-10.241-7.286-18.1-1.582-3.934-3.351-8.3-5.241-13.05l-1.454-3.633c-.248-.617-.5-1.24-.751-1.87l-.382-.952c-.141-.308-.282-.617-.429-.925a17.5,17.5,0,0,0-2.2-3.546,18.024,18.024,0,0,0-3.137-2.956,17.426,17.426,0,0,0-8.324-3.264,18.376,18.376,0,0,0-4.692.134,17.384,17.384,0,0,0-4.591,1.468l-.556.255-.529.315c-.349.214-.717.409-1.059.637a18.647,18.647,0,0,0-1.95,1.548,17.822,17.822,0,0,0-1.743,1.81l-.757,1.019a9.507,9.507,0,0,0-.67,1.072,17.3,17.3,0,0,0-2.406,10.007,18.887,18.887,0,0,0,1.206,5.221c.67,1.7,1.34,3.412,2.058,5.134l4.2,10.516,8.774,21.937.067.161-.161.067c-2.252.891-4.564,1.823-6.917,2.761l-.168.067-.06-.161-1.582-3.954c-3.961-9.906-7.822-19.585-11.555-28.928-.918-2.346-1.917-4.618-2.681-7a26.5,26.5,0,0,1-1.005-7.286,26.91,26.91,0,0,1,1.133-7.118,26.423,26.423,0,0,1,3.023-6.361,24.712,24.712,0,0,1,10.154-8.773c.509-.221,1-.469,1.508-.67l1.542-.53c.261-.08.516-.181.771-.255l.791-.181,1.568-.362a25.469,25.469,0,0,1,6.287-.295,23.072,23.072,0,0,1,3.043.416,13.89,13.89,0,0,1,1.475.355c.483.147.979.241,1.441.416a26.766,26.766,0,0,1,2.748,1.113l1.34.67c.416.235.824.5,1.233.744a24.41,24.41,0,0,1,7.808,7.668c1.917,2.969,2.9,6.2,4.122,9.1l3.3,8.284c2.051,5.168,3.814,9.618,5.261,13.257l3.3,8.365.858,2.172A6.215,6.215,0,0,0,164.836,350.151Z" transform="translate(-85.015 -194.485)" fill="#263238"/>
      <rect id="Rectangle_464" data-name="Rectangle 464" width="70.027" height="57.071" rx="10.01" transform="translate(17.294 153.353) rotate(-21.79)" fill="#f07167"/>
      <g id="Group_235" data-name="Group 235" transform="translate(17.294 127.358)" opacity="0.3">
        <rect id="Rectangle_465" data-name="Rectangle 465" width="70.027" height="57.071" rx="10.39" transform="translate(0 25.995) rotate(-21.79)"/>
      </g>
      <rect id="Rectangle_466" data-name="Rectangle 466" width="64.967" height="57.071" rx="9.98" transform="translate(14.334 154.535) rotate(-21.79)" fill="#f07167"/>
      <g id="Group_236" data-name="Group 236" transform="translate(46.207 155.915)" opacity="0.3">
        <path id="Path_3683" data-name="Path 3683" d="M161,381.827a7.969,7.969,0,1,0-6.589,10.851l3.613,9.048a2.178,2.178,0,0,0,2.828,1.206h0a2.172,2.172,0,0,0,1.213-2.822l-3.619-9.048A7.949,7.949,0,0,0,161,381.827Z" transform="translate(-145.618 -376.782)"/>
      </g>
      <path id="Path_3684" data-name="Path 3684" d="M208.719,390.064c-.094.034-3.814-9.182-8.311-20.583s-8.083-20.677-7.989-20.711,3.807,9.182,8.311,20.583S208.807,390.03,208.719,390.064Z" transform="translate(-114.844 -211.63)" fill="#263238"/>
      <path id="Path_3685" data-name="Path 3685" d="M165.161,391.214a13,13,0,0,0,1.89-2.513,9.712,9.712,0,0,0,1.072-3.211,8.713,8.713,0,0,0-2.446-7.607,9.658,9.658,0,0,0-2.735-2.011,13.514,13.514,0,0,0-3-.945,3.6,3.6,0,0,1,.858.054,8.224,8.224,0,0,1,2.245.67,9.578,9.578,0,0,1,2.862,2.011,8.867,8.867,0,0,1,2.534,7.889,9.383,9.383,0,0,1-1.173,3.277,8.115,8.115,0,0,1-1.441,1.85,3.352,3.352,0,0,1-.664.536Z" transform="translate(-104.134 -220.253)" fill="#263238"/>
      <path id="Path_3686" data-name="Path 3686" d="M150.456,349.469c.034.087-8.009,3.512-17.969,7.648s-18.1,7.42-18.1,7.332,8.009-3.512,17.976-7.654S150.416,349.382,150.456,349.469Z" transform="translate(-89.114 -211.86)" fill="#fff"/>
      <path id="Path_3687" data-name="Path 3687" d="M146.756,392.655a2.011,2.011,0,0,1-.5-.342,7.715,7.715,0,0,1-1.126-1.173,8.908,8.908,0,0,1-.67-10.141,7.8,7.8,0,0,1,.972-1.307,1.8,1.8,0,0,1,.442-.4c.054.047-.556.67-1.2,1.83a9.176,9.176,0,0,0,.637,9.873C146.119,392.085,146.8,392.6,146.756,392.655Z" transform="translate(-98.611 -221.694)" fill="#fff"/>
      <path id="Path_3688" data-name="Path 3688" d="M153.911,402.5c0,.1-.523.094-1.133,0s-1.1-.261-1.079-.362.523-.087,1.133,0S153.911,402.4,153.911,402.5Z" transform="translate(-101.417 -229.204)" fill="#fff"/>
      <path id="Path_3689" data-name="Path 3689" d="M116.536,303a12.726,12.726,0,0,1-1.173.67,22.834,22.834,0,0,0-3.023,2.078,21.83,21.83,0,0,0-6.327,25.168c.328.8.536,1.24.509,1.253a1.52,1.52,0,0,1-.181-.3c-.107-.2-.281-.5-.456-.9a19.733,19.733,0,0,1-1.22-3.5,21.113,21.113,0,0,1,7.54-21.93,19.755,19.755,0,0,1,3.11-2.011c.389-.208.7-.335.912-.429A1.694,1.694,0,0,1,116.536,303Z" transform="translate(-85.69 -196.537)" fill="#fff"/>
      <path id="Path_3690" data-name="Path 3690" d="M110.071,354.621a6.5,6.5,0,0,1-.912-1.87,6.354,6.354,0,0,1-.59-2.011,6.119,6.119,0,0,1,.912,1.87A6.4,6.4,0,0,1,110.071,354.621Z" transform="translate(-87.195 -212.28)" fill="#fff"/>
      <g id="Group_237" data-name="Group 237" transform="translate(71.397 102.736)" opacity="0.3">
        <path id="Path_3691" data-name="Path 3691" d="M184.829,297.44c-3.009,8.613-1.521,18.3,1.83,26.81C186.659,324.223,184.91,306.455,184.829,297.44Z" transform="translate(-183.202 -297.44)"/>
      </g>
      <g id="Group_238" data-name="Group 238" transform="translate(125.679 107.395)" opacity="0.3">
        <path id="Path_3692" data-name="Path 3692" d="M264.23,362.608c3.318-7.493,6.642-15.013,10.918-22s9.383-13.633,15.918-18.546c1.769-1.34,5.074-3.834,5.074-3.834s-.885-1.676-1.756-3.063c-1.005-1.609-2.681-4.4-3.566-5.771l3.921.784s-2.681-6.18-2.607-5.764a52.111,52.111,0,0,1-5.315,1.092c1.374,3.284,2.835,6.253,4.209,9.538a87.041,87.041,0,0,0-18.459,21.046c-5.054,7.8-8.552,16.857-8.371,26.14" transform="translate(-264.19 -304.39)"/>
      </g>
      <path id="Path_3693" data-name="Path 3693" d="M282.748,215.233c.087-.074.295,0,.529.261a2.172,2.172,0,0,1,.456,1.421,2.621,2.621,0,0,1-.228,1.072,2.741,2.741,0,0,1-.824,1.039,2.983,2.983,0,0,1-4.786-1.816,2.681,2.681,0,0,1,.61-2.279,2.192,2.192,0,0,1,1.28-.757c.355-.047.55.04.576.154.054.241-.523.55-.838,1.3a1.642,1.642,0,0,0-.067,1.213,1.535,1.535,0,0,0,2.3.865,1.622,1.622,0,0,0,.757-.945C282.768,215.99,282.54,215.393,282.748,215.233Z" transform="translate(-143.014 -167.242)" fill="#e0e0e0"/>
      <path id="Path_3694" data-name="Path 3694" d="M104.57,429.48s2.286,7.373,3.465,8.854,9.068,2.279,9.068,2.279Z" transform="translate(-85.876 -238.244)" fill="#b5715a"/>
      <path id="Path_3695" data-name="Path 3695" d="M114.548,412l4.377,3.512,12.989,10.013s-.08,2.413-3,1.863c-2.373-.449-7.634-3.351-7.634-3.351s6.18,5.8,6.394,8.519v.5a2.3,2.3,0,0,1-.67,1.6h0l-7.219-4.819s1.548,2.721,3.07,5.543a3.465,3.465,0,0,1-.5,3.445h0l-16.086-13.492-.1-10.054,8.345-3.284" transform="translate(-86.403 -232.477)" fill="#b5715a"/>
      <path id="Path_3696" data-name="Path 3696" d="M116.12,421.4a2.012,2.012,0,0,1,.6.134c.188.067.409.168.67.281s.529.281.838.456c1.22.724,2.768,1.9,4.484,3.184a39.591,39.591,0,0,0,4.524,3.043c1.227.67,2.058.925,2.011.985a2.011,2.011,0,0,1-.6-.134,5.663,5.663,0,0,1-.67-.241,8.428,8.428,0,0,1-.871-.389,30.63,30.63,0,0,1-4.631-2.983c-1.716-1.294-3.231-2.493-4.4-3.257l-.8-.489-.63-.328a2.387,2.387,0,0,1-.53-.261Z" transform="translate(-89.684 -235.58)" fill="#884c3b"/>
      <path id="Path_3697" data-name="Path 3697" d="M113.92,428.71a7.475,7.475,0,0,1,1.394.865c.824.57,1.937,1.4,3.123,2.366s2.225,1.883,2.956,2.574a6.956,6.956,0,0,1,1.119,1.173,7.743,7.743,0,0,1-1.287-.985l-3.009-2.493-3.05-2.44A8.109,8.109,0,0,1,113.92,428.71Z" transform="translate(-88.959 -237.991)" fill="#884c3b"/>
      <path id="Path_3698" data-name="Path 3698" d="M81.531,406.837c-.114.127.054.369.161.6,1.749,3.653,16.756,14.028,16.756,14.028l8.184-13.948s5.945,2.875,8.385,2.212c2.011-.55,5.791-.958,4.021-4.484,0,0-8.385-1.542-11.233-2.768s-4.631-1.863-4.631-1.863a39.815,39.815,0,0,1-9.678-.958S88.482,398.948,81.531,406.837Z" transform="translate(-78.266 -228.403)" fill="#b5715a"/>
      <path id="Path_3699" data-name="Path 3699" d="M123.547,446.343a17.679,17.679,0,0,1-1.9-1.475c-1.233-1-2.788-2.265-4.517-3.66s-3.351-2.755-4.45-3.747c-.556-.489-1-.9-1.3-1.186a2.492,2.492,0,0,1-.442-.476,17.269,17.269,0,0,1,1.9,1.475l4.511,3.66c1.763,1.434,3.351,2.755,4.45,3.747.556.489,1.005.9,1.3,1.186A2.5,2.5,0,0,1,123.547,446.343Z" transform="translate(-87.976 -240.329)" fill="#884c3b"/>
      <path id="Path_3700" data-name="Path 3700" d="M334.038,224.5l5.168.811.623-3.948-2.011-.315.282-1.8-1.863-.295.248-1.575,2.151.335.214-1.34-3.445-.543.08-.516-.08.516h0l.08-.516a1.24,1.24,0,0,0-1.119-1.34,1.267,1.267,0,0,0-1.34,1.119q-1.5,9.585-3.009,19.149l-.8,5.107a6.7,6.7,0,1,0,2.42.382q1.166-7.373,2.326-14.745h0Zm.288,22.312a4.98,4.98,0,1,1-4.149-5.7h0a4.987,4.987,0,0,1,4.149,5.717Z" transform="translate(-157.802 -167.181)" fill="#e0e0e0"/>
      <path id="Path_3701" data-name="Path 3701" d="M334.038,224.5l5.168.811.623-3.948-2.011-.315.282-1.8-1.863-.295.248-1.575,2.151.335.214-1.34-3.445-.543.08-.516-.08.516h0l.08-.516a1.24,1.24,0,0,0-1.119-1.34,1.267,1.267,0,0,0-1.34,1.119q-1.5,9.585-3.009,19.149l-.8,5.107a6.7,6.7,0,1,0,2.42.382q1.166-7.373,2.326-14.745h0Zm.288,22.312a4.98,4.98,0,1,1-4.149-5.7h0a4.987,4.987,0,0,1,4.149,5.717Z" transform="translate(-157.802 -167.181)" fill="none"/>
      <path id="Path_3702" data-name="Path 3702" d="M335.111,260.026a6.607,6.607,0,0,0-.221-2.1,4.786,4.786,0,0,0-1.227-2.051,4.839,4.839,0,0,0-2.721-1.387l.087-.288h0l1.039.456-1.126-.168a4.819,4.819,0,0,0-5.013,6.977,4.692,4.692,0,0,0,1.944,2.011,4.846,4.846,0,0,0,4.625.06,5.02,5.02,0,0,0,2.212-2.346,11.4,11.4,0,0,0,.4-1.153,1.121,1.121,0,0,1,0,.315,4.3,4.3,0,0,1-.248.891,4.986,4.986,0,0,1-2.218,2.507,5.122,5.122,0,1,1-1.635-9.558l-.087.288h0l-1.086-.5,1.173.208a5.08,5.08,0,0,1,2.855,1.515,4.966,4.966,0,0,1,1.22,2.178,5.08,5.08,0,0,1,.147,1.6A2.5,2.5,0,0,1,335.111,260.026Z" transform="translate(-158.587 -180.372)" fill="#263238"/>
      <path id="Path_3703" data-name="Path 3703" d="M333.985,224.417a3.312,3.312,0,0,1-.054.483h0c-.188,1.454-1,6.81-2.225,14.745l-.074-.134a6.736,6.736,0,1,1-3.21-.375c.248-.04.5-.047.737-.067l-.168.147c.858-5.416,1.682-10.637,2.453-15.53.389-2.446.764-4.812,1.126-7.078.087-.57.181-1.126.268-1.682a1.414,1.414,0,0,1,1.24-1.2,1.381,1.381,0,0,1,1.428.9,1.455,1.455,0,0,1,0,.858v.248h0l-.288-.04v-.134l.067-.389.281.047-.08.516-.121-.161,3.445.55h.134v.134c-.08.483-.147.925-.221,1.34v.127H338.6l-2.151-.349.141-.1c-.094.57-.174,1.079-.255,1.575l-.1-.134,1.87.3h.107v.114c-.107.67-.2,1.233-.295,1.79l-.087-.121,2.011.328h.094v.094q-.375,2.252-.67,3.948v.074h-.074l-3.814-.67-1-.174-.342-.067h.322l.985.141,3.874.563-.087.06c.174-1.133.369-2.446.6-3.948l.08.107-2.011-.3h-.1v-.1l.275-1.8.094.127-1.863-.288h-.121v-.114c.074-.5.154-1.012.241-1.582v-.121h.121l2.158.328-.154.107c.074-.436.141-.878.214-1.34l.114.154-3.452-.536h-.141v-.141l.08-.523.282.047-.06.389v.134c-.576-.094-.154,0-.288-.054h0V215.4a1.213,1.213,0,0,0,0-.71,1.079,1.079,0,0,0-1.119-.7,1.106,1.106,0,0,0-.972.952l-.261,1.676-1.106,7.084c-.764,4.893-1.589,10.114-2.433,15.53v.134h-.147a2.8,2.8,0,0,0-.7.06,6.417,6.417,0,1,0,3.076.261l-.094-.034v-.1c1.273-7.936,2.151-13.284,2.413-14.745h0A3.56,3.56,0,0,0,333.985,224.417Z" transform="translate(-157.75 -167.097)" fill="#263238"/>
      <path id="Path_3704" data-name="Path 3704" d="M322.521,257.588l8.284-2.178,4.3.55a2.339,2.339,0,0,1,1.816,1.341l2.788,6.072s4.021,3.351,3.559,5.362-4.2,20.054-4.2,20.054l-11.106-.335a15.322,15.322,0,0,1-3.351-8.432c-.121-2.534.845-4.082.6-5.422-.161-.918.409-2.554.67-3.814l.335-1.22-.737.355a2.245,2.245,0,0,1-3.2-1.682,1.885,1.885,0,0,1,0-.194h0a5.04,5.04,0,0,1,1.508-3.861l4.189-4.115S323.352,262.709,322.521,257.588Z" transform="translate(-157.667 -180.844)" fill="#b5715a"/>
      <path id="Path_3705" data-name="Path 3705" d="M338.173,272.841a2.983,2.983,0,0,1-.771-.087l-2.058-.369-3.05-.59c-.57-.107-1.173-.261-1.783-.315a1.91,1.91,0,0,0-1.656.53,3.787,3.787,0,0,0-.67,1.716c-.134.623-.261,1.22-.382,1.8a19.468,19.468,0,0,0-.543,3.016,2.085,2.085,0,0,0,.8,1.749,2.186,2.186,0,0,0,.67.288.362.362,0,0,1-.2,0,1.227,1.227,0,0,1-.556-.188,2.165,2.165,0,0,1-.972-1.843,16.92,16.92,0,0,1,.469-3.09c.114-.576.235-1.18.362-1.8a4.022,4.022,0,0,1,.777-1.883,2.232,2.232,0,0,1,1.944-.63,16.427,16.427,0,0,1,1.823.335l3.03.67,2.011.476A3.289,3.289,0,0,1,338.173,272.841Z" transform="translate(-159.223 -186.023)" fill="#884c3b"/>
      <path id="Path_3706" data-name="Path 3706" d="M334.423,283.706a.941.941,0,0,1-.422.67,1.508,1.508,0,0,1-.918.261,4.446,4.446,0,0,1-1.213-.235,4.692,4.692,0,0,1-2.647-1.8,4.189,4.189,0,0,1-.054-3.881,7.42,7.42,0,0,1,1.032-1.776,2.011,2.011,0,0,1,.838-.6,2.132,2.132,0,0,1,.979-.067,14.941,14.941,0,0,1,3.043.972,15.857,15.857,0,0,1,1.91.965,2.682,2.682,0,0,1,.67.449c0,.054-.979-.536-2.647-1.186A16.6,16.6,0,0,0,332,276.6a1.83,1.83,0,0,0-.831.067,1.676,1.676,0,0,0-.67.509,7.2,7.2,0,0,0-.965,1.682,3.914,3.914,0,0,0,0,3.572,4.538,4.538,0,0,0,2.446,1.736,4.691,4.691,0,0,0,1.146.275,1.441,1.441,0,0,0,.838-.181,1.34,1.34,0,0,0,.456-.556Z" transform="translate(-159.79 -187.719)" fill="#884c3b"/>
      <path id="Path_3707" data-name="Path 3707" d="M335.489,284.759c0,.04-.194.154-.57.194a2.533,2.533,0,0,1-2.46-1.273c-.181-.322-.208-.556-.168-.57a4.1,4.1,0,0,0,1.374,1.26A5.362,5.362,0,0,0,335.489,284.759Z" transform="translate(-160.963 -189.978)" fill="#884c3b"/>
      <path id="Path_3708" data-name="Path 3708" d="M337.62,287.888c-.054.074-.576-.235-.952-.858s-.422-1.233-.328-1.24.282.5.623,1.059S337.687,287.807,337.62,287.888Z" transform="translate(-162.289 -190.862)" fill="#884c3b"/>
      <path id="Path_3709" data-name="Path 3709" d="M337.617,295.122a6.448,6.448,0,0,1,.194-6.032,11.606,11.606,0,0,0-.194,6.032Z" transform="translate(-162.508 -191.95)" fill="#884c3b"/>
      <path id="Path_3710" data-name="Path 3710" d="M335.486,289.9a7.862,7.862,0,0,0-4.357,4.256,1.917,1.917,0,0,1,.214-.925,5.792,5.792,0,0,1,1.287-1.9,5.7,5.7,0,0,1,1.924-1.24A1.85,1.85,0,0,1,335.486,289.9Z" transform="translate(-160.585 -192.216)" fill="#884c3b"/>
      <path id="Path_3711" data-name="Path 3711" d="M332.344,269.31c.1,0,.154.342.04.731s-.335.67-.422.6,0-.349.087-.67S332.25,269.3,332.344,269.31Z" transform="translate(-160.847 -185.428)" fill="#884c3b"/>
      <path id="Path_3712" data-name="Path 3712" d="M341.654,267.056a10.126,10.126,0,0,1-1.656-.885c-1.005-.576-2.373-1.4-3.867-2.332a13.037,13.037,0,0,0-2.172-1.133,4.927,4.927,0,0,0-1.93-.335,4.578,4.578,0,0,0-1.749.483,1.293,1.293,0,0,1,.4-.322,3.23,3.23,0,0,1,1.34-.409,4.926,4.926,0,0,1,2.051.282,11.625,11.625,0,0,1,2.245,1.139c1.5.925,2.849,1.783,3.814,2.42A10.607,10.607,0,0,1,341.654,267.056Z" transform="translate(-160.305 -183.053)" fill="#884c3b"/>
      <path id="Path_3713" data-name="Path 3713" d="M339.61,225.568a30.163,30.163,0,0,1,.5-4.531,28.568,28.568,0,0,1,.845-4.477,30.272,30.272,0,0,1-.5,4.531,29.74,29.74,0,0,1-.845,4.477Z" transform="translate(-163.381 -168.033)" fill="#263238"/>
      <g id="Group_239" data-name="Group 239" transform="translate(176.276 48.755)" opacity="0.3">
        <path id="Path_3714" data-name="Path 3714" d="M340.974,216.9a10.838,10.838,0,0,1-1.294,8.338c.483-2.446.965-5.757,1.294-8.338" transform="translate(-339.68 -216.9)"/>
      </g>
    </g>
    <g id="freepik--Plant--inject-33" transform="translate(233.632 227.334)">
      <path id="Path_3715" data-name="Path 3715" d="M441.943,393.435a12.9,12.9,0,0,0-21.133,5.074l1.528,5.912a7.262,7.262,0,0,1,3.753-4.792c1.924-.831,4.323-.369,6.374.375s4.062,1.736,6.24,1.87,4.631-.9,5.281-2.976C444.6,396.941,443.417,394.856,441.943,393.435Z" transform="translate(-365.367 -342.358)" fill="#f07167"/>
      <g id="Group_240" data-name="Group 240" transform="translate(55.443 47.469)" opacity="0.3">
        <path id="Path_3716" data-name="Path 3716" d="M441.943,393.435a12.9,12.9,0,0,0-21.133,5.074l1.528,5.912a7.262,7.262,0,0,1,3.753-4.792c1.924-.831,4.323-.369,6.374.375s4.062,1.736,6.24,1.87,4.631-.9,5.281-2.976C444.6,396.941,443.417,394.856,441.943,393.435Z" transform="translate(-420.81 -389.828)"/>
      </g>
      <path id="Path_3717" data-name="Path 3717" d="M396.108,412.336c-3.19-3.03-3.03-8.311-1.441-12.42s5.074-7.259,8.954-9.336a28.358,28.358,0,0,1,24.712-.8,11.736,11.736,0,0,0-9.484,5.57c-1.749,2.909-2.138,6.434-3.586,9.5a14.946,14.946,0,0,1-19.156,7.487" transform="translate(-356.382 -341.534)" fill="#f07167"/>
      <path id="Path_3718" data-name="Path 3718" d="M392.685,371.582c-3.532-4.176-4.021-10.871-3.485-16.32s1.783-10.918.925-16.32c-.509-3.2-1.749-6.26-2.165-9.471s.174-6.85,2.681-8.921c2.862-2.386,7.373-1.823,10.342.416s4.692,5.757,5.965,9.263c2.768,7.694,3.787,16.233,1.508,24.1s-7.607,14.886-15.416,17.259" transform="translate(-354.495 -319.004)" fill="#f07167"/>
      <path id="Path_3719" data-name="Path 3719" d="M392.533,429.731a3.823,3.823,0,0,1,0-.483v-1.381c.047-1.193.161-2.929.429-5.054a66.75,66.75,0,0,1,1.34-7.373,34.055,34.055,0,0,1,3.351-8.572,35.913,35.913,0,0,1,5.516-7.373,35.278,35.278,0,0,1,5.791-4.812c.878-.61,1.736-1.072,2.473-1.5s1.408-.717,1.95-.979l1.273-.536a2.156,2.156,0,0,1,.449-.168,3.779,3.779,0,0,1-.429.221l-1.247.583c-.53.275-1.18.617-1.924,1.019a24.257,24.257,0,0,0-2.433,1.535,36.227,36.227,0,0,0-11.166,12.165c-3.251,5.684-4.142,11.662-4.786,15.851-.295,2.118-.442,3.841-.523,5.034-.034.576-.06,1.039-.08,1.374a2.515,2.515,0,0,1,.013.449Z" transform="translate(-356.038 -342.91)" fill="#263238"/>
      <path id="Path_3720" data-name="Path 3720" d="M344.062,372.89c-6.542,3.948-6.515,7.54-5.429,10.925s5.107,5.751,8.438,4.477a10.228,10.228,0,0,0,4.41-4.021,18.122,18.122,0,0,1,3.887-4.584,5.764,5.764,0,0,1,3.9-1.113Z" transform="translate(-338.09 -336.773)" fill="#f07167"/>
      <g id="Group_241" data-name="Group 241" transform="translate(0 36.117)" opacity="0.3">
        <path id="Path_3721" data-name="Path 3721" d="M344.062,372.89c-6.542,3.948-6.515,7.54-5.429,10.925s5.107,5.751,8.438,4.477a10.228,10.228,0,0,0,4.41-4.021,18.122,18.122,0,0,1,3.887-4.584,5.764,5.764,0,0,1,3.9-1.113Z" transform="translate(-338.09 -372.89)"/>
      </g>
      <path id="Path_3722" data-name="Path 3722" d="M339.58,375.241c1.709-2.359,5.938-3.05,8.606-1.87s4.625,3.519,6.374,5.858,3.452,4.8,5.871,6.421,5.811,2.212,8.224.576a7.058,7.058,0,0,0,2.795-4.839,16.086,16.086,0,0,0-.389-5.7c-.576-2.741-1.515-5.6-3.713-7.373-2.446-1.937-5.838-2.011-8.961-1.93a33.74,33.74,0,0,0-10.583,1.629c-3.365,1.24-6.8,3.921-8.224,7.212" transform="translate(-338.581 -334.62)" fill="#f07167"/>
      <path id="Path_3723" data-name="Path 3723" d="M376.126,416.473v-.563c0-.4-.034-.938-.054-1.622-.04-1.434-.1-3.472-.174-5.972s-.181-5.523-.362-8.847-.436-6.991-.938-10.8a34.221,34.221,0,0,0-1.086-5.483,29.128,29.128,0,0,0-4.571-8.753,26.281,26.281,0,0,0-2.761-3.029,20.235,20.235,0,0,0-4.9-3.351c-.315-.147-.6-.288-.845-.389l-.67-.248-.389-.161c-.087-.04-.134-.06-.127-.067l.134.04.4.127.67.228c.255.094.536.228.865.369a19.853,19.853,0,0,1,4.987,3.284,26.013,26.013,0,0,1,2.808,3.036,26.967,26.967,0,0,1,2.58,4.021,28.74,28.74,0,0,1,2.011,4.839,33.711,33.711,0,0,1,1.1,5.523c.509,3.827.744,7.487.918,10.818s.248,6.341.3,8.861.074,4.564.08,5.972v2.051A.571.571,0,0,1,376.126,416.473Z" transform="translate(-345.067 -334.893)" fill="#263238"/>
      <path id="Path_3724" data-name="Path 3724" d="M387.374,409.629a19.514,19.514,0,0,1-.717-2.808,29.564,29.564,0,0,1-.295-7.889,52.146,52.146,0,0,1,2.493-11.455c1.34-4.209,3.164-8.713,4.692-13.546a62.2,62.2,0,0,0,1.877-7.165,64.947,64.947,0,0,0,.958-6.823,100.79,100.79,0,0,0,.208-11.689c-.114-3.351-.288-6.032-.4-7.889-.054-.918-.094-1.635-.127-2.145v-.751a.672.672,0,0,1,.034.188,2.288,2.288,0,0,0,.054.556c.04.509.1,1.227.181,2.145.147,1.857.355,4.551.5,7.882a96.043,96.043,0,0,1-.147,11.729,64.035,64.035,0,0,1-.918,6.87,62.346,62.346,0,0,1-1.877,7.2c-1.562,4.853-3.391,9.35-4.745,13.546a53.671,53.671,0,0,0-2.547,11.394,30.59,30.59,0,0,0,.208,7.855c.161.918.308,1.629.436,2.1.06.228.1.409.134.543A.84.84,0,0,1,387.374,409.629Z" transform="translate(-353.962 -325.093)" fill="#263238"/>
      <path id="Path_3725" data-name="Path 3725" d="M398.786,438.973H359.771l-.891-7.513h39.906Z" transform="translate(-344.945 -356.087)" fill="#455a64"/>
      <path id="Path_3726" data-name="Path 3726" d="M366.46,441.39l4.873,22.527h21.2L397.1,441.39Z" transform="translate(-347.445 -359.361)" fill="#455a64"/>
      <path id="Path_3727" data-name="Path 3727" d="M399.561,442.547c0,.1-8.572.161-19.149.127s-19.162-.134-19.162-.235,8.579-.168,19.162-.134S399.568,442.44,399.561,442.547Z" transform="translate(-345.727 -359.66)" fill="#455a64"/>
      <path id="Path_3728" data-name="Path 3728" d="M395.875,455.321a18.425,18.425,0,0,0-3.526-2.084,13.089,13.089,0,0,0-4.283-1.025,13.834,13.834,0,0,0-5.3.932,46.92,46.92,0,0,1-5.235,1.709,13.192,13.192,0,0,1-4.511,0,10.223,10.223,0,0,1-2.9-.912,5.9,5.9,0,0,1-.7-.442c-.147-.114-.228-.174-.215-.188s.342.2.985.5a11.281,11.281,0,0,0,2.9.844,13.645,13.645,0,0,0,4.4-.087,54.372,54.372,0,0,0,5.181-1.722,13.734,13.734,0,0,1,5.442-.925,13.19,13.19,0,0,1,6.971,2.681,7.155,7.155,0,0,1,.623.543C395.815,455.254,395.875,455.321,395.875,455.321Z" transform="translate(-348.348 -362.83)" fill="#fff"/>
      <path id="Path_3729" data-name="Path 3729" d="M399.646,442.621c0,.107-8.773.188-19.6.188s-19.6-.08-19.6-.188,8.773-.181,19.6-.181S399.646,442.52,399.646,442.621Z" transform="translate(-345.463 -359.707)" fill="#263238"/>
    </g>
  </g>
</svg>
