<svg xmlns="http://www.w3.org/2000/svg" width="539.674" height="399.76" viewBox="0 0 539.674 399.76">
  <g id="Layer_1-2" transform="translate(0.035)">
    <g id="Group_377" data-name="Group 377" transform="translate(-0.035 0)">
      <path id="Path_5473" data-name="Path 5473" d="M221.609,1009.067a7.512,7.512,0,0,0,2.946.479c7.08-.042,14.089.935,21.132,1.415,5.368.362,10.694,1.011,16.02,1.648a67.379,67.379,0,0,1,14.474,2.961c.886.313,1.969.592,2,1.713.026,1.034-1.015,1.369-1.818,1.675a50.721,50.721,0,0,1-11.863,2.629q-9.183,1.188-18.393,2.2c-3.353.366-6.718.668-10.091.8-8.695.343-17.371.992-26.073,1.234-6.507.181-13.018.415-19.521.743-12.727.641-25.455.7-38.189.709-.581,0-1.335-.223-1.452.739h-4.527c-.3-.426-.751-.381-1.184-.381H131.216c-.434,0-.886-.045-1.184.381h-2.641c-.17-1.075-1.03-.724-1.645-.732-3.078-.034-6.16-.083-9.242-.011-9.736.23-19.461-.264-29.185-.472-6.507-.14-13.018-.5-19.525-.743-5.187-.2-10.385-.4-15.564-.751-7.224-.5-14.455-1.011-21.667-1.739-7.084-.717-14.165-1.366-21.169-2.7a45.984,45.984,0,0,1-7.971-2.094c-.653-.249-1.313-.588-1.441-1.358-.147-.909.7-1.147,1.256-1.441,2.524-1.347,5.338-1.758,8.1-2.241,6.149-1.075,12.343-1.826,18.57-2.339,8.472-.7,16.93-1.5,25.428-1.916,6.069-.3,12.128-.758,18.208-.679.106,2.561.268,5.123.29,7.684.011,1.23.294,1.8,1.679,1.792,8.027-.068,16.054-.06,24.085-.075H128.53c5.021.023,10.042.072,15.062.06,4.893-.008,9.785-.072,14.678-.113a15.213,15.213,0,0,1,4.1,1.3c15.387,5.383,30.566,5.364,45.481-1.7a88.272,88.272,0,0,0,12.573-7.835c.17-.132.336-.268.505-.4l-.03.019c.34.008.637-.057.77-.422l-.072-.042Z" transform="translate(0.035 -628.254)" fill="#d3e0e5"/>
      <path id="Path_5474" data-name="Path 5474" d="M344.79,1059.119c.3-.426.751-.381,1.184-.381h13.851c.434,0,.886-.045,1.184.381H344.79Z" transform="translate(-214.716 -659.363)" fill="#fefefe"/>
      <path id="Path_5475" data-name="Path 5475" d="M172.456,728.043c6.7.132,5.492.8,5.6-5.194a36.183,36.183,0,0,0-.143-4.866c-.2-1.743.483-2.354,2.282-2.343.939.008,1.875.026,2.814.03,3.071,0,3.108,0,3.044-3.165-.06-2.874-.091-5.745.109-8.616q12.856.023,25.715.042c-.023,3.259-.091,6.522-.045,9.781.023,1.66-.592,2.467-2.316,2.38-1.252-.064-2.508,0-3.765-.015-1.309-.019-1.928.49-1.882,1.909.083,2.693.008,5.394.03,8.088.011,1.407-.626,2.082-2.045,2.071-2.007-.019-4.017,0-6.024,0-1.23,0-1.8.517-1.762,1.833.072,2.633.023,5.266.023,7.9q0,2.573,2.493,2.576l35.142.113a2.808,2.808,0,0,0,.064.309,1.5,1.5,0,0,1-.087.34c-.441.011-.879.026-1.32.026-9.174,0-18.352.053-27.526-.042-1.939-.019-2.546.6-2.426,2.482.143,2.252.034,4.519.034,6.782a2.515,2.515,0,0,0,2.746,2.84c1.95.06,2.516.63,2.531,2.656.019,2.576-.075,5.153.034,7.725.079,1.875-.856,2.448-2.5,2.441-2.2-.011-4.4.053-6.6-.023-1.381-.049-1.912.456-1.882,1.856.068,3.391.026,6.782.03,10.174h-5.979a24.981,24.981,0,0,0,5.715.453q9.562.051,19.129.113c-.008,3.516-.057,7.035,0,10.551.023,1.381-.694,2.15-1.86,2.056-1.426-.117-2.852.072-4.232-.06-1.777-.17-2.252.483-2.233,2.048.034,2.7-.034,5.4.03,8.1.026,1.185-.687,2.146-1.547,1.9-1.962-.555-3.817.543-5.749-.042-1.645-.5-2.509.26-2.524,1.965-.026,2.573-.015,5.149,0,7.725.008,2.3.272,2.554,2.648,2.554H226.87l6.005.045c-.268,1.154-1.211.679-1.856.683-5.462.038-10.924.087-16.386,0-3.5-.057-7.009.321-10.509-.245-1.018-.162-1.845.366-1.8,1.777.1,3.512.038,7.028.041,10.539-8.027.015-16.054.008-24.085.075-1.388.011-1.667-.562-1.679-1.792-.023-2.561-.185-5.123-.29-7.684q.158-3.037-2.848-3.063c-3.455-.026-3.783-.343-3.81-3.753-.019-2.312.015-4.625-.008-6.937-.015-1.479.577-2.184,2.154-2.1,1.879.1,3.772-.015,5.654.075,1.66.079,2.237-.637,2.169-2.241-.117-2.754-.117-5.515-.158-8.276-.019-1.369.536-2.1,2.045-2,1.437.1,2.889,0,4.334.06,1.245.049,1.9-.438,1.9-1.728,0-3.074-.034-6.152.023-9.227.023-1.313-.849-1.166-1.641-1.169-4.587-.023-9.174-.075-13.757-.026-3.142.03-3.5-.264-3.478-3.342.019-2.2,0-4.395,0-6.594,0-2.731.064-2.788,2.7-2.784,2.2,0,4.4-.045,6.6.015,1.388.038,1.916-.536,1.875-1.9-.083-2.757-.083-5.515-.113-8.276.5-1.788-.268-2.471-2.007-2.312-.558.049-1.113.109-1.671.166-1.426.057-1.807-.709-1.747-2.014.128-2.818.132-5.639.253-8.457.072-1.63-.592-2.2-2.233-2.177-4.828.072-4.41.585-4.413-4.436,0-1.946-.008-3.893,0-5.839.008-2.312.151-2.444,2.456-2.467.626-.008,1.252-.041,1.882-.06Z" transform="translate(-104.695 -438.37)" fill="#fddb4d"/>
      <path id="Path_5476" data-name="Path 5476" d="M189.68,835.08c.558-.057,1.113-.117,1.671-.166,1.739-.158,2.508.528,2.007,2.312-1.339-.524-2.81-.815-3.674-2.146Z" transform="translate(-118.116 -519.956)" fill="#d3e0e5"/>
      <path id="Path_5477" data-name="Path 5477" d="M805.163,514.131c8.476.049,16.956.072,25.432.151,6.371.06,11.894,2.169,16.2,7,3.916,4.391,5.375,9.642,5.372,15.432q-.028,61.2-.008,122.4c0,.751.038,1.505.057,2.256a32.145,32.145,0,0,1-1.475,10.46,8.257,8.257,0,0,1-1.237,2.471l.038-.008c-.192.264-.385.524-.577.788q-1.782,2.161-3.565,4.319c-.223.132-.434.275-.411.581l.019-.068c-.257.023-.46.1-.434.415l.041-.068a.713.713,0,0,0-.758.464l.034-.023c-.143.136-.287.268-.426.4l.045-.049c-.253.147-.509.29-.762.438l.023-.015-.434.377.045-.053a.8.8,0,0,0-.781.426l.038-.023-.785.407.034-.023a.925.925,0,0,0-.788.4l.034-.023c-.313.03-.638.045-.8.389l.038-.03q-1.714.577-3.433,1.158l.041-.034c-8.05,1.294-16.16.687-24.244.728-11.245.057-22.49-.121-33.735-.124q-76.166-.023-152.328-.015c-1.316,0-2.633-.117-3.949-.181.026-1.671,1.4-2.735,1.9-4.21.939-2.765,2.037-5.473,3.071-8.208h6.771c.724.43,1.524-.106,2.26.17a20.243,20.243,0,0,0,6.349,0h.449a103.658,103.658,0,0,0,14.278.03h.03a23.988,23.988,0,0,0,6.635-.011l.023-.015c.355,1.086,1.271.555,1.894.555,11.5.038,23,.015,34.5.045a47.764,47.764,0,0,0,5.964-.619c.747-.057,1.49-.109,2.237-.166,1.271,0,2.542.008,3.814.011,1.124,0,2.293.449,3.331-.351l3.644.038c1.222.513,2.459,1.154,3.459-.381,1.188.336,2.407-.856,3.587.064.943,1.271,2.1.822,3.214.339.207-.09.008-.445-.2-.611,2.041-1.03,4.315-.739,6.454-.9,6.1-.456,12.161-1.271,18.212-2.067a162.022,162.022,0,0,0,22.561-4.432c11.9-3.327,23.1-7.9,31.513-17.488a35.993,35.993,0,0,0,5.364-8.091c2.754-5.688,3.35-11.871,4.025-17.986.668-6.073.988-12.2,1.154-18.3.2-7.254.66-14.5.721-21.747.087-10.777.649-21.577-.336-32.339a32.081,32.081,0,0,0-4.945-15.164c-.819-1.23-1.958-2.312-2.192-3.885.207-.264.788-.215.69-.705-.075-.366-.464-.3-.754-.317-.6-.03-1.211-.06-1.814-.087a17.233,17.233,0,0,0-2.135-2.588,54.239,54.239,0,0,0-13.776-8.57c-1.652-.679-3.459-1.128-4.851-2.369.883-.852,1.988.566,2.871-.279q6.739-.045,13.482-.094ZM838.951,631.3a5.04,5.04,0,0,0,.06,3.946A4.971,4.971,0,0,0,838.951,631.3ZM744.02,672.155c-2.044-.664-2.874-.615-4.014.192A7.428,7.428,0,0,0,744.02,672.155Zm75.768-143.539a4.173,4.173,0,0,0-4.093.023A7.006,7.006,0,0,0,819.788,528.616Zm19.027,127.956c.792-1.743.777-2.459-.087-3.625A4.585,4.585,0,0,0,838.815,656.572Zm-.777,3.154a6.167,6.167,0,0,0-1.648,3.75C837.649,662.34,838.351,661.438,838.038,659.726Zm.864-96.077a3,3,0,0,0-.1-3.357A4.459,4.459,0,0,0,838.9,563.649Zm-.038,64.357c.611-1.377.8-2.482,0-3.712C838.238,625.448,838.366,626.512,838.864,628.006Zm-.1,17.386c-.272,1.49-.468,2.512.181,3.753A3.7,3.7,0,0,0,838.766,645.392ZM807.592,672.1a3.272,3.272,0,0,0-3.286.106A3.908,3.908,0,0,0,807.592,672.1Zm31.317-90.506a3.091,3.091,0,0,0,.034,3.391A3.419,3.419,0,0,0,838.909,581.593Zm-.045-13.618a3.193,3.193,0,0,0,.121,3.429C839.418,570.156,839.667,569.133,838.864,567.975Zm-5.828-34.93a4.07,4.07,0,0,0-3.086-2.211A4.92,4.92,0,0,0,833.036,533.045Zm-6.19-3.587a3.691,3.691,0,0,0-3.614-.807A4.433,4.433,0,0,0,826.846,529.458Zm11.977,23.814a4.847,4.847,0,0,0,.034,3.519A3.153,3.153,0,0,0,838.822,553.271Zm.113,60.094a2.549,2.549,0,0,0-.151-3.025A3.668,3.668,0,0,0,838.935,613.366Zm-49.249,58.7a3.894,3.894,0,0,0,3.866-.132A6.235,6.235,0,0,0,789.686,672.061Zm7.4.117q2.32.517,3.267-.46C799.264,671.808,798.29,671.431,797.091,672.178Zm41.671-97.394a5.517,5.517,0,0,0,.011,3.3C839.562,576.621,839.562,576.444,838.762,574.784Zm.215,32.433c.475-1.588.517-2.55-.064-3.433A4.085,4.085,0,0,0,838.977,607.217Zm-10.034,62.9c-1.445.464-2.659.317-3.463,1.543A3.683,3.683,0,0,0,828.943,670.122Zm10.064-78.092c.287-.935.668-1.86-.166-2.878A2.857,2.857,0,0,0,839.007,592.03ZM757.37,672.11a3.382,3.382,0,0,0-3.361.128A5.076,5.076,0,0,0,757.37,672.11Zm21.75-.075c-1.037-.166-2.082-.645-3.35.192A4.006,4.006,0,0,0,779.12,672.034Zm32.682.185c.909.1,1.86.649,3.044-.46C813.56,671.786,812.628,671.446,811.8,672.219Zm22.641-5.956c-1.686.592-1.811.72-2.052,2.131A3.6,3.6,0,0,0,834.443,666.263ZM836.672,538.2A2.337,2.337,0,0,0,835,535.437,6.732,6.732,0,0,0,836.672,538.2Zm-89.208,134a5.561,5.561,0,0,0,3.353.023A3.072,3.072,0,0,0,747.464,672.2Zm14.519.053c.864.034,1.826.619,2.991-.505C763.7,671.812,762.8,671.416,761.983,672.25Zm59.7-.377h-2.965C819.694,672.431,820.667,672.887,821.682,671.872Zm-35.711.192a2.464,2.464,0,0,0-2.8.181A3.543,3.543,0,0,0,785.97,672.065Z" transform="translate(-387.189 -320.185)" fill="#e37b09"/>
      <path id="Path_5478" data-name="Path 5478" d="M388.186,813.6c-1.034,2.735-2.131,5.443-3.071,8.208-.5,1.475-1.871,2.539-1.9,4.21a.766.766,0,0,0-.419.754l.045-.015c-.29-.015-.358.185-.4.411l.019-.03a.669.669,0,0,0-.407.777l.03-.034c-.283-.008-.358.185-.4.415l.023-.03a.715.715,0,0,0-.411.777l.034-.03c-.272,0-.351.2-.4.415l.023-.03a.712.712,0,0,0-.411.777l.034-.03c-.275,0-.351.192-.4.411l.023-.03a.712.712,0,0,0-.411.777l.03-.034c-.275,0-.362.185-.4.415l.019-.03a.668.668,0,0,0-.411.777l.038-.03c-.287-.011-.366.177-.4.411l.03-.03-.392.415.019-.026a.767.767,0,0,0-.415.77l.03-.03c-.264.008-.362.181-.4.411l.019-.03a.631.631,0,0,0-.419.773l.038-.034c-.309-.034-.385.162-.4.415v-.064a56.111,56.111,0,0,1-6.458,6.76l.068.041a.653.653,0,0,0-.77.422l.03-.019c-.17.132-.336.268-.505.4a88.619,88.619,0,0,1-12.573,7.835c-14.915,7.058-30.1,7.08-45.481,1.7a15.126,15.126,0,0,0-4.1-1.3,7.446,7.446,0,0,0-1.192-.894,50.1,50.1,0,0,1-13.384-9.491c-1.8-1.765-3.64-2.045-5.877-1.992-2.558.06-5.092.645-7.658.37-1.373-.147-1.694.471-1.667,1.731.072,3.44.034,6.884.038,10.328H246.325c0-3.512.053-7.028-.041-10.539-.038-1.411.788-1.943,1.8-1.777,3.5.566,7.009.189,10.509.245,5.462.087,10.924.038,16.386,0,.645,0,1.588.472,1.856-.683h12.942a86.8,86.8,0,0,1-8.872-12.29c-.249-.434-.562-.453-1.094-.324a16.465,16.465,0,0,1-6.564.355c-1.965-.317-2.41-.034-2.418,1.875-.011,3.448,0,6.892,0,10.339q-14.327,0-28.653,0c-2.376,0-2.641-.256-2.648-2.554-.008-2.576-.023-5.149,0-7.725.019-1.705.879-2.467,2.524-1.965,1.931.585,3.787-.513,5.749.042.86.245,1.577-.72,1.547-1.9-.064-2.7,0-5.4-.03-8.1-.019-1.569.456-2.218,2.233-2.048,1.381.132,2.8-.057,4.232.06,1.169.094,1.886-.672,1.86-2.056-.06-3.516-.011-7.031,0-10.551,3.372-.034,6.741-.053,10.113-.121.641-.011,1.388.309,1.916-.373a7.948,7.948,0,0,1,2.961.253c.724.256,1.147-.023,1.237-.883a39.792,39.792,0,0,0,.377-4.451,16.406,16.406,0,0,1,.211-4.84c.479-1.63-.294-2.339-1.818-2.512-2.169-.245-2.939.238-2.95,1.943-.023,3.5-.011,7-.015,10.494q-15.447-.04-30.894-.075c0-3.391.038-6.782-.03-10.174-.026-1.4.5-1.9,1.882-1.856,2.2.075,4.4.015,6.6.023,1.645.008,2.58-.566,2.5-2.441-.109-2.569-.015-5.149-.034-7.725-.015-2.026-.581-2.6-2.531-2.656a2.52,2.52,0,0,1-2.746-2.84c0-2.26.109-4.53-.034-6.782-.121-1.882.487-2.5,2.426-2.482,9.174.094,18.352.041,27.526.041.441,0,.879-.019,1.32-.026.019,3.452.023,6.9.072,10.355.008.675-.347,1.626.86,1.731,1.041.091,1.95.023,2.5-1.143a55.066,55.066,0,0,1,7.925-12.678c7.707-8.932,16.828-15.628,28.333-18.849,1.9-.532,3.946-.766,5.621-1.977A61.474,61.474,0,0,1,346.8,742.75c2.524.683,4.979,1.607,7.465,2.422a6.375,6.375,0,0,0,1.056.743A55.987,55.987,0,0,1,372.8,757.7c1.645,1.63,2.9,3.618,4.768,5.021.128.26.26.521.389.781l2.275,2.976c.132.128.268.253.4.381,1.411,2.723,2.991,5.375,4.21,8.182,5.092,11.72,6.575,23.833,3.667,36.371-.083.253-.162.509-.245.762-.026.475-.049.951-.075,1.426Zm-56.319,38.076a52.97,52.97,0,1,0-53.018-52.98,52.618,52.618,0,0,0,53.018,52.98Z" transform="translate(-148.681 -461.338)" fill="#fdb927"/>
      <path id="Path_5479" data-name="Path 5479" d="M834.758,943.831l3.565-4.323c.438-.083.573-.389.577-.788l-.038.008c7.269.011,14.493.819,21.739,1.211,6.235.336,12.471.811,18.676,1.505,10.539,1.185,21.109,2.222,31.422,4.874a13.721,13.721,0,0,1,4.361,1.705c1.6,1.075,1.524,2.082-.1,3.082-3.678,2.271-7.888,2.735-11.992,3.452-4.911.856-9.864,1.494-14.81,2.154-2.784.373-5.583.634-8.382.89q-8.487.775-16.982,1.479c-3.738.306-7.48.585-11.226.773-6.13.309-12.267.426-18.389.822-5.624.362-11.252.532-16.88.758-7.514.3-15.032.441-22.539.807-4.9.241-9.793-.049-14.662.328-7.028.543-14.059.06-21.075.362-17.141.736-34.293.449-51.43.208-11.237-.158-22.478.079-33.708-.291-7.891-.26-15.786-.456-23.67-.785-6.571-.272-13.15-.434-19.71-.766-7.046-.358-14.119-.558-21.139-1.392-.683-.083-1.384,0-2.071-.042-.785-.049-1.516-.223-1.656-1.192v.064c.14-.14.272-.275.4-.415l-.038.034c.366-.136.426-.438.419-.773l-.019.03c.136-.136.268-.272.4-.407l-.03.03c.362-.136.407-.445.415-.77l-.019.026.392-.415-.03.03c.132-.136.264-.275.4-.411l-.038.03c.366-.136.419-.441.411-.777l-.019.03c.132-.14.264-.275.4-.415l-.03.034c.358-.143.415-.445.411-.777l-.023.03c.132-.136.264-.275.4-.411l-.034.03c.366-.14.411-.445.411-.777l-.023.03c.132-.14.264-.275.4-.415l-.038.03c.366-.14.415-.445.411-.777l-.023.03c.132-.14.264-.275.4-.415l-.03.034c.362-.143.415-.445.407-.777l-.019.03c.132-.136.264-.275.4-.411l-.045.015c1.117,0,2.237.008,3.353.008H782.23c12.573,0,25.145.026,37.718-.026,1.833-.008,3.75-.019,5.387-1.143l-.042.034c1.275,0,2.569.06,3.433-1.158l-.038.03c.324-.011.649-.023.8-.389l-.034.023c.317-.023.641-.034.788-.4l-.034.023c.321-.023.645-.038.785-.407l-.038.023c.336-.008.653-.045.781-.426l-.045.053.434-.377-.023.015c.321-.03.638-.064.762-.438l-.045.045c.143-.136.287-.268.426-.4l-.034.023c.347,0,.664-.053.758-.464l-.042.068c.143-.14.29-.279.434-.415l-.023.068c.136-.192.275-.385.415-.577Z" transform="translate(-376.546 -584.618)" fill="#d3e0e5"/>
      <path id="Path_5480" data-name="Path 5480" d="M340.765,1013.18c0-3.444.034-6.888-.038-10.328-.026-1.26.294-1.879,1.667-1.731,2.565.275,5.1-.309,7.658-.37,2.237-.053,4.078.226,5.877,1.992a50.118,50.118,0,0,0,13.384,9.491,7.622,7.622,0,0,1,1.192.894c-4.892.041-9.785.106-14.678.113C350.807,1013.248,345.786,1013.2,340.765,1013.18Z" transform="translate(-212.185 -623.246)" fill="#fd8b00"/>
      <path id="Path_5481" data-name="Path 5481" d="M585.69,1010.028a.647.647,0,0,1,.77-.422C586.328,1009.976,586.029,1010.036,585.69,1010.028Z" transform="translate(-364.744 -628.752)" fill="#fefefe"/>
      <path id="Path_5482" data-name="Path 5482" d="M584.43,1011.1c.17-.132.336-.268.505-.4C584.766,1010.832,584.6,1010.968,584.43,1011.1Z" transform="translate(-363.96 -629.446)" fill="#fefefe"/>
      <path id="Path_5483" data-name="Path 5483" d="M570.94,625.286l-2.275-2.976c.675-.713,1.543-.381,2.32-.381q31.839-.028,63.682-.015h1.8l-.015-.381H568.277c-1.871-1.4-3.12-3.4-4.768-5.021a55.986,55.986,0,0,0-17.473-11.781,6.018,6.018,0,0,1-1.056-.743c.487-4.4.132-8.812.245-13.218.015-.679.06-1.362.091-2.041h42.527v-.381H545.331a31.964,31.964,0,0,1-.174-3.931c.317-4.093,2.916-6.579,7.035-6.484,1.916.045,2.2-.581,2.192-2.309-.057-13.489-.011-26.979.023-40.468a21.658,21.658,0,0,1,5.24-14.349c3.772-4.395,8.97-6.179,14.674-6.375,10.415-.358,20.838-.109,31.256-.166.438,0,.871-.038,1.309-.06a5.21,5.21,0,0,0,1.083.223q30.713,0,61.43-.03,4.136,0,8.269,0c1.792-.034,3.618.419,5.364-.336,1.6.743,3.282.321,4.93.343l31.781.045,21.286.019c1.392,1.241,3.2,1.69,4.851,2.369a54.3,54.3,0,0,1,13.776,8.57,17.011,17.011,0,0,1,2.135,2.588c-.453.226-.841.536-.083.792a11.186,11.186,0,0,0,1.965.317c.23,1.573,1.369,2.656,2.192,3.885a32.08,32.08,0,0,1,4.945,15.164c.988,10.758.426,21.562.336,32.339-.06,7.246-.521,14.5-.72,21.747-.166,6.111-.487,12.233-1.154,18.3-.672,6.115-1.271,12.3-4.025,17.986a35.745,35.745,0,0,1-5.364,8.091c-8.416,9.589-19.615,14.161-31.513,17.488a162.021,162.021,0,0,1-22.561,4.432c-6.051.8-12.109,1.611-18.212,2.067-2.139.158-4.41-.132-6.454.9-.992.219-2.037-.147-3.01.268-1.181-.92-2.4.272-3.587-.064-1.154.094-2.4-.554-3.459.381-1.215-.011-2.429-.026-3.644-.038-1.169-.449-2.373-1.222-3.331.351-1.271,0-2.542-.008-3.814-.011-.577-1.226-1.611-.766-2.531-.664-.26.026-.687.136-.509.505.091.192.524.219.807.324a47.679,47.679,0,0,1-5.964.619c-11.5-.03-23,0-34.5-.045-.622,0-1.539.532-1.894-.555.483-.268,1.267.091,1.531-.777h-2.984c.279.868,1.037.441,1.426.792a23.984,23.984,0,0,1-6.635.011c.415-.355,1.23.075,1.55-.788-1.151-.143-2.169-.392-3.221.207.528.566,1.169.306,1.645.581a103.647,103.647,0,0,1-14.278-.03c.37-.238.981.019,1.3-.653a3.239,3.239,0,0,0-3.165.283c.6.155,1,.264,1.415.37a20.245,20.245,0,0,1-6.349.008c.287-.238.958.015.886-.773-1.1,0-2.316-.894-3.146.6h-6.771c.026-.475.049-.951.075-1.426,1,.272,1.939,1.015,3.169.5a6.162,6.162,0,0,0-2.927-1.26c2.908-12.539,1.426-24.655-3.667-36.371-1.218-2.807-2.8-5.458-4.21-8.182h68.141v-.381H570.951Zm-2.048-47.171c.438.026.875.072,1.316.072q33.061.006,66.126-.008c.3,0,.7.2,1-.377H569.08c-.211-.856.3-1.86-.638-2.708-.253,1.143-1.305,2.248.449,3.018Zm65.4,22.316A12.963,12.963,0,1,0,621.416,613.1a12.728,12.728,0,0,0,12.878-12.675Zm11.3,14.96c.091.015.185.026.275.042v-27.4a1.294,1.294,0,0,0-.272.894v26.466Zm107.918-86.734a6,6,0,0,0,4.029-.245A4.84,4.84,0,0,0,753.513,528.658Zm-59.551-.524c-1.611,0-2.806-.37-3.957.256-.023.011.072.411.166.438a3.976,3.976,0,0,0,3.791-.694Zm17,.434a5.363,5.363,0,0,0,3.719-.038A3.846,3.846,0,0,0,710.963,528.568Zm-31.3.015a4.727,4.727,0,0,0-4.3,0A7.808,7.808,0,0,0,679.662,528.583ZM634.988,672.107a7.48,7.48,0,0,0,4.312.079A4.942,4.942,0,0,0,634.988,672.107Zm-2.335-143.512a6.9,6.9,0,0,0,4.161-.049A4.505,4.505,0,0,0,632.653,528.594Zm-64.168,31.833A3.619,3.619,0,0,0,568.5,564,3.154,3.154,0,0,0,568.484,560.428Zm14.757-31.841c1.709.762,1.86.747,3.1-.434A4.17,4.17,0,0,0,583.241,528.587Zm-14.647,21.682a3.5,3.5,0,0,0-.155-3.716A4.872,4.872,0,0,0,568.594,550.269Zm153.294-21.916c-1.068-.219-2.15-.585-3.35.309C719.862,528.9,720.911,529.081,721.887,528.353Zm13.98-.264c-1.1.094-2.135-.362-3.071.321-.045.034.038.4.128.438a3.188,3.188,0,0,0,2.784-.324C735.746,528.5,735.75,528.417,735.867,528.089Zm-117.288.411a3.54,3.54,0,0,0,3.753-.343C620.823,528.213,619.839,527.938,618.579,528.5Zm38.786-.011a2.835,2.835,0,0,0-3.082.106A3.765,3.765,0,0,0,657.365,528.489Zm24.991.117a5.5,5.5,0,0,0,3.912-.2A4.829,4.829,0,0,0,682.355,528.606Zm-81.66-.026c-1.818-.683-1.988-.675-3.252.1A5.5,5.5,0,0,0,600.7,528.579Zm25.715-.189a2.751,2.751,0,0,0,3,.057A4.5,4.5,0,0,0,626.41,528.391Zm13.323.234a5.95,5.95,0,0,0,3.644-.072A3.544,3.544,0,0,0,639.733,528.624Zm60.566-.038c-1.829-.69-2.014-.687-3.221.042A4.868,4.868,0,0,0,700.3,528.587ZM628.424,672.148a4.169,4.169,0,0,0,3.47-.207C630.344,671.628,629.364,671.458,628.424,672.148ZM570.2,539.545c-1.267,1.188-1.811,2.071-.932,3.289C569.537,541.895,569.8,540.956,570.2,539.545Zm134.233-10.917a4.987,4.987,0,0,0,3.538-.174A3.533,3.533,0,0,0,704.434,528.628Zm-132.807,7.7a4.351,4.351,0,0,0,2.226-3.233C572.849,534.135,571.91,534.754,571.627,536.331Zm-3.169,17.3c-.381,1.2-.638,2.188.072,3.206A2.651,2.651,0,0,0,568.458,553.634ZM615.21,528.5c-1.407-.524-2.35-.653-3.478.162A5.585,5.585,0,0,0,615.21,528.5Zm-46.684,39.48a2.562,2.562,0,0,0,.023,3.018A2.562,2.562,0,0,0,568.526,567.979Zm56.526,104.15a4.938,4.938,0,0,0-3.621-.049A6.125,6.125,0,0,0,625.052,672.129Zm17.9-.336c1.747.879,1.754.875,2.867,0Zm96.526-143.241a5.459,5.459,0,0,0,3.467.079A3.069,3.069,0,0,0,739.473,528.553ZM653.158,672.024c-1.309-.415-2.222-.615-3.353.215A4.67,4.67,0,0,0,653.158,672.024Zm72.173-143.708c1.456.668,2.373.687,3.229.03a5.336,5.336,0,0,0-3.229-.03Zm-117.318-.091h-3.731A3.211,3.211,0,0,0,608.013,528.224Zm56.9.034a8.706,8.706,0,0,0-3.414-.06C662.646,529.13,663.585,529.032,664.913,528.258Z" transform="translate(-339.391 -320.148)" fill="#fd8b00"/>
      <path id="Path_5484" data-name="Path 5484" d="M768.88,386.764q-30.713.023-61.43.03a5.523,5.523,0,0,1-1.083-.223c-2.014-2.052-1.931-4.214-.962-6.862,4.391-11.984,8.574-24.048,12.833-36.085q5.353-15.13,10.7-30.264a8.464,8.464,0,0,1,2.637-4.029c3.316-.815,6.152.864,9.065,1.879,10.113,3.516,20.166,7.2,30.257,10.781q26.135,9.268,52.286,18.487,12.669,4.487,25.323,9.019c.589.207,1.2.332,1.807.494,3.987,1.464,7.967,2.95,11.965,4.383,3.761,1.35,4.644,3.006,3.353,6.726-2.6,7.507-5.262,14.994-7.888,22.493-.328.943-.589,1.913-.883,2.867q-6.745.045-13.485.094c.309-1.015.592-2.037.928-3.044a1.746,1.746,0,0,0-1.226-2.493c-5.779-2.045-11.554-4.1-17.337-6.134a1.954,1.954,0,0,0-2.837,1.294q-1.833,5.324-3.685,10.638l-31.781-.045c-.747-.724-1.8-.834-2.667-1.309-1.147-.626-1.9-.283-2.263.966-1.747.758-3.568.306-5.364.336.143-.411.264-.834.438-1.233.86-2.007.645-2.452-1.354-3.146-6.907-2.4-13.821-4.768-20.694-7.25-2.463-.886-2.018,1.362-2.4,2.275-.456,1.075-1.973,2.671.155,3.636a50.048,50.048,0,0,0,5.617,1.98,86.255,86.255,0,0,1,9.977,3.742ZM725.9,364.942a1.411,1.411,0,0,0-1.663,1.064c-.23.645-.381,1.324-.653,1.95-.728,1.682-.268,2.509,1.554,3.112,5.93,1.969,11.8,4.127,17.684,6.228,4.542,1.622,4.512,1.626,6.069-3.018.355-1.056.223-1.5-.92-1.894-6.56-2.256-13.082-4.621-19.623-6.929a5.485,5.485,0,0,0-2.444-.517Zm33.2-38.163c.079-.928-.63-1.139-1.279-1.369-5.085-1.792-10.185-3.535-15.247-5.383-1.151-.419-1.577-.072-1.92.947-.721,2.135-1.46,4.27-2.282,6.367-.509,1.3-.155,1.958,1.147,2.392,2.852.951,5.673,1.988,8.5,3.014,2.365.856,2.524.781,3.188-1.713.856-3.206,1.441-3.482,4.436-2.06,2.192,1.041,3.455.238,3.459-2.192Zm6.567,16.311a1.987,1.987,0,0,0,2.244-1.516c.717-1.931,1.335-3.9,2.12-5.809.521-1.275.117-1.773-1.109-2.161-2.5-.8-4.957-1.739-7.431-2.622-3.4-1.211-3.463-2.075-4.651,2.229-.581,2.1-1.316,2.384-3.312,1.524-.4-.173-.781-.4-1.173-.592-1.1-.551-2.067-.932-2.633.743-.464,1.377-.856,2.4,1.056,3.037,4.451,1.475,8.842,3.138,13.259,4.708.645.23,1.317.373,1.63.464Z" transform="translate(-438.889 -192.513)" fill="#314478"/>
      <path id="Path_5485" data-name="Path 5485" d="M313.032,450.317c.087.143.174.287.257.43-.653.573-1.445.313-2.169.313-10.807.019-21.611.045-32.418-.023-1.581-.011-2.056.449-1.992,2.011.117,2.822.079,5.651.011,8.472-.03,1.2.317,1.645,1.584,1.648,9.785.023,19.574-.26,29.351.355-.087.124-.177.249-.264.373-13.448,0-26.9.011-40.347-.038-1.4,0-1.679.539-1.645,1.777.072,2.637.136,5.281-.015,7.91-.1,1.731.532,2.071,2.139,2.063,12.5-.064,25.013-.038,37.518-.023a2.8,2.8,0,0,1,2.207.415,3.672,3.672,0,0,1-2.158.321c-5.654.011-11.313.041-16.967-.015-1.456-.015-2.033.445-1.984,1.946.087,2.7,0,5.4.03,8.1.011,1.426-.649,2.06-2.063,2.045-2.388-.026-4.779.083-7.163-.038-1.705-.087-2.184.592-2.12,2.2.1,2.7.034,5.4.026,8.1-.008,2.056-.445,2.493-2.558,2.535-1.32.026-2.641.057-3.957-.008-1.275-.06-1.826.411-1.8,1.743.06,2.761.049,5.526,0,8.291-.019,1.207.445,1.709,1.664,1.679,1.882-.053,3.772.019,5.654-.023,1.524-.03,2.154.668,2.131,2.169-.041,2.825-.053,5.654,0,8.48.03,1.648-.739,2.233-2.3,2.2-2.26-.057-4.527.034-6.786-.038-1.377-.045-1.912.453-1.882,1.856.075,3.391.041,6.782.053,10.174q-15.656.011-31.313.026c-.011-3.455.03-6.911-.057-10.362-.038-1.486.573-2.052,1.98-2.041,2.452.023,4.9-.057,7.356.03,1.516.053,2.018-.638,2.011-2.018q-.034-4.051,0-8.1c.011-1.679-.837-2.392-2.459-2.35-1.758.045-3.516.03-5.27.109-1.358.06-2.161-.313-2.1-1.875.075-1.882.015-3.768.019-5.654.008-4.41-.9-4.749,4.983-4.632a3.489,3.489,0,0,1,.562.038c2.169.317,2.723-.117,2.742-2.263.026-2.765.1-5.534-.026-8.291-.075-1.626.532-2.041,2.052-1.973,2.448.109,4.9.023,7.352.03a2.02,2.02,0,0,0,2.32-2.3c-.008-.815-.034-1.633.008-2.448.117-2.527-.313-5.081.324-7.7H237.295c-2.727,0-2.8-.075-2.8-2.7,0-2.388-.008-4.776,0-7.163.008-2.226.306-2.539,2.475-2.546,2.576-.011,5.157-.03,7.733.011.936.015,1.169-.162,1.169-1.23,0-3.84-.385-7.7.253-11.63-1.354,0-2.735-.057-4.108.015s-1.909-.472-1.882-1.863c.06-3.516.015-7.035.011-10.555q15.475,0,30.947-.008c0,3.387.068,6.775-.03,10.158-.042,1.464.373,1.939,1.886,1.931,13.365-.06,26.73-.041,40.094-.045Z" transform="translate(-145.535 -272.953)" fill="#fdb927"/>
      <path id="Path_5486" data-name="Path 5486" d="M316.8,579.939c-.011-3.391.023-6.782-.053-10.174-.03-1.4.5-1.9,1.882-1.856,2.26.072,4.527-.015,6.786.038,1.565.038,2.335-.547,2.3-2.2-.053-2.825-.045-5.654,0-8.48.023-1.505-.607-2.2-2.131-2.169-1.886.038-3.772-.03-5.655.023-1.218.034-1.686-.472-1.664-1.679.045-2.761.057-5.526,0-8.291-.03-1.328.521-1.8,1.8-1.743,1.316.06,2.641.034,3.957.008,2.112-.041,2.55-.479,2.558-2.535.008-2.7.075-5.406-.026-8.1-.06-1.607.419-2.286,2.12-2.2,2.384.121,4.776.011,7.163.038,1.415.015,2.075-.619,2.063-2.044-.026-2.7.06-5.4-.03-8.1-.049-1.5.528-1.962,1.984-1.946,5.654.06,11.313.03,16.967.015a3.613,3.613,0,0,0,2.158-.321,2.8,2.8,0,0,0-2.207-.415c-12.5-.019-25.013-.042-37.518.023-1.607.008-2.237-.332-2.139-2.063.151-2.629.087-5.273.015-7.91-.034-1.233.245-1.78,1.645-1.777,13.448.049,26.9.034,40.347.038a72.2,72.2,0,0,1,.177,9.77c-.041,1.6.306,2.131,2.037,2.112,5.583-.06,11.166.155,16.748.128,1.558-.008,1.946.566,1.912,1.973-.064,2.886-.072,5.771,0,8.657.042,1.652-.649,2.229-2.256,2.161-2.5-.106-5.021-.034-7.529-.106-1.373-.038-1.886.5-1.848,1.89.079,2.882-.019,5.771.042,8.657.026,1.283-.392,1.837-1.731,1.765-1.565-.083-3.138.008-4.708-.026-1.233-.026-1.856.434-1.833,1.762.049,2.882.038,5.768,0,8.653-.015,1.192.445,1.7,1.671,1.667,2.131-.057,4.27.023,6.4-.03,1.192-.026,1.716.4,1.7,1.637-.045,3.135-.06,6.273,0,9.408.03,1.426-.732,1.675-1.894,1.652-2.444-.049-4.889-.015-7.329-.1-1.535-.057-2.116.528-2.082,2.094.075,3.384,0,6.775-.015,10.162q-9.6,0-19.2-.011-11.294-.023-22.592-.06Z" transform="translate(-197.251 -315.178)" fill="#fd8b00"/>
      <path id="Path_5487" data-name="Path 5487" d="M319.784,717.873c-1.679,1.207-3.723,1.445-5.621,1.977-11.505,3.221-20.626,9.917-28.333,18.85a55.068,55.068,0,0,0-7.925,12.678c-.551,1.166-1.46,1.237-2.5,1.143-1.207-.106-.849-1.056-.86-1.731-.049-3.452-.049-6.9-.072-10.355a1.5,1.5,0,0,0,.087-.339h8.955l-.008-.309h-9.012q-17.569-.057-35.142-.113a2.245,2.245,0,0,1-2.493-2.576c0-2.633.053-5.27-.023-7.9-.038-1.317.536-1.833,1.762-1.833,2.007,0,4.017-.019,6.024,0,1.418.015,2.056-.664,2.045-2.071-.023-2.7.053-5.394-.03-8.088-.045-1.418.573-1.931,1.882-1.909,1.256.019,2.512-.049,3.765.015,1.724.087,2.339-.72,2.316-2.38-.041-3.259.026-6.522.045-9.781,18.084-.075,36.168.177,54.248-.517q8.1.074,16.194.143c2.456.023,2.644.234,2.625,2.727-.019,2.637-.079,5.273.023,7.9.06,1.588-.532,2.158-2.075,2.044-1.249-.09-2.512-.034-3.768-.015-2.154.03-2.286.189-2.124,2.437Z" transform="translate(-147.484 -437.586)" fill="#fd8b00"/>
      <path id="Path_5488" data-name="Path 5488" d="M532.835,371.087a19.61,19.61,0,1,1-2.267,39.151c-11.611-.943-18.823-10.091-18.337-20.268C512.779,378.5,521.922,370.366,532.835,371.087Zm-.694,26.813c-.4-.736-.668-1.154-.868-1.6-2.067-4.625-4.138-9.246-6.171-13.882-.445-1.018-.837-2.131-2.222-1.584-1.35.536-1.052,1.686-.611,2.708.966,2.237,1.988,4.455,2.976,6.681,1.679,3.768,3.316,7.559,5.036,11.309.845,1.841,2.188,2.1,3.018.592,2.437-4.444,4.753-8.955,7.137-13.425a1.292,1.292,0,0,0-.528-1.916,1.376,1.376,0,0,0-1.958.509,5.94,5.94,0,0,0-.479.8c-1.731,3.184-3.459,6.364-5.33,9.8Z" transform="translate(-318.981 -231.079)" fill="#fefefe"/>
      <path id="Path_5489" data-name="Path 5489" d="M378.658,483.867c-9.777-.615-19.566-.332-29.351-.355-1.267,0-1.611-.449-1.584-1.648.068-2.825.106-5.654-.011-8.472-.064-1.562.411-2.022,1.992-2.011,10.807.064,21.611.042,32.418.023.724,0,1.516.257,2.169-.313.766-.049,1.535-.1,2.3-.151,3.052.121,3.689.762,3.3,3.723a38.076,38.076,0,0,0-.155,7.118c.083,1.505-.411,2.045-1.871,2.029C384.795,483.784,381.724,483.845,378.658,483.867Z" transform="translate(-216.532 -293.293)" fill="#fd8b00"/>
      <path id="Path_5490" data-name="Path 5490" d="M717.321,84.33c.06.008.124.023.189.026q4.289.132,4.289,4.41c0,6.843-.042,13.685.034,20.528.015,1.471-.362,2.063-1.879,1.882a19.2,19.2,0,0,0-2.633.038,14.3,14.3,0,0,0-1.5-.053,1.468,1.468,0,0,1-1.777-1.648c-.008-7.831-.042-15.662.019-23.493.019-2.376,2-1.456,3.259-1.686Z" transform="translate(-444.67 -52.519)" fill="#fefefe"/>
      <path id="Path_5491" data-name="Path 5491" d="M690.381,62.03c.581.573,1.313.317,1.973.321q24.7.1,49.4.174c2.508.011,5.017.177,7.525.2,2.41.026,2.731-.321,2.731-2.7q0-25.813.015-51.626c0-1.449.128-2.867-2.161-2.048.37-2.448,1.6-4.221,2.588-6.352a18.766,18.766,0,0,1,2.75,6.118c-2.082-.223-2.248.962-2.245,2.554q.062,26.1.023,52.2a2.325,2.325,0,0,1-2.6,2.659q-16.03.028-32.056.06c-6.647-.057-13.3-.094-19.943-.177-2.252-.03-4.5-.177-6.756-.253-.894-.03-1.709.075-1.426,1.332.268,1.184-.505.9-1.09.728a21.947,21.947,0,0,1-5.568-2.5,56.533,56.533,0,0,1,5.828-2.4c1.735-.505.1,1.449,1.007,1.709Z" transform="translate(-425.69 0)" fill="#fefefe"/>
      <path id="Path_5492" data-name="Path 5492" d="M295.818,702.157c-18.076.7-36.164.441-54.248.517q-12.856-.023-25.711-.042a.357.357,0,0,1-.034-.249c2.218-.864,4.545-.223,6.8-.487q15.656-.011,31.313-.026,11.294.034,22.592.06,9.6.017,19.2.011a.157.157,0,0,1,.083.215Z" transform="translate(-134.394 -437.112)" fill="#cb9887"/>
      <path id="Path_5493" data-name="Path 5493" d="M545.855,710.99h42.512v.381H545.84c0-.128.008-.253.011-.381Z" transform="translate(-339.927 -442.792)" fill="#e37b09"/>
      <path id="Path_5494" data-name="Path 5494" d="M1036.492,183.577c4.757,3.093,8.235,7.209,9.385,12.844,1.69,8.269-.777,15.194-7.326,20.6-.336.275-.656.57-.984.856a28.774,28.774,0,0,1-8.77,3.165,20.077,20.077,0,0,1-22.478-17.035c-1.181-8.593,2.071-15.481,9.117-20.019a19.173,19.173,0,0,1,19.551-1.166c.5.245,1,.5,1.5.751Zm-5.613,13.512a3.477,3.477,0,0,0-2.569-3.678c-1.377-.524-2.573-.943-2.418-2.78.064-.754-.577-1.086-1.305-.966-.668.113-1.362.573-1.132,1.23.7,2-.468,2.75-1.969,3.391-.751.321-1.124.879-.653,1.637.438.7,1.015.487,1.615.094a5.073,5.073,0,0,1,2.942-1.1c.981.026,2.029-.008,2.324,1.12.287,1.1.313,2.229-1.022,2.889-1.29.637-2.5,1.433-3.761,2.128a3.822,3.822,0,0,0-2.226,3.644,4.037,4.037,0,0,0,2.931,3.961,3.069,3.069,0,0,1,2.471,2.708c.091.622.392,1.441,1.388,1.064.69-.26,1.192-.592.853-1.539a1.752,1.752,0,0,1,1.135-2.275,16.935,16.935,0,0,0,1.845-.939c.615-.4,1.411-.886.815-1.784-.528-.792-1.267-.37-1.822.03a7.269,7.269,0,0,1-2.923,1.151c-1.682.351-2.833-.117-3.5-1.66-.7-1.618.438-2.482,1.539-3.214,1.2-.8,2.542-1.362,3.753-2.139a3.2,3.2,0,0,0,1.7-2.972Z" transform="translate(-626.556 -112.531)" fill="#fefefe"/>
      <path id="Path_5495" data-name="Path 5495" d="M836.793,52.629c0,6.967-.042,13.934.026,20.9.019,1.758-.547,2.475-2.369,2.5-5.077.06-5.417-.219-5.421-5.353V31.12c0-2.969.679-3.565,3.6-3.2.434.053.871.1,1.309.128,2.086.124,2.708.7,2.818,2.92.094,1.943.03,3.893.03,5.839v15.82Z" transform="translate(-516.292 -17.329)" fill="#fefefe"/>
      <path id="Path_5496" data-name="Path 5496" d="M743.012,70.052c0-5.779.038-11.558-.023-17.337-.019-1.671.479-2.309,2.263-2.3,5.326.008,5.519.109,5.519,5.428V87.125c0,2.773-.151,2.927-2.829,2.908-5.53-.041-4.919.705-4.926-4.9q-.011-7.537,0-15.077Z" transform="translate(-462.707 -31.394)" fill="#fefefe"/>
      <path id="Path_5497" data-name="Path 5497" d="M808.09,86.364c0,4.636-.038,9.276.023,13.912.023,1.6-.536,2.222-2.188,2.229-5.424.023-5.424.072-5.424-5.349V73.09c0-2.618.072-2.686,2.576-2.69q5.058-.011,5.058,5.058V86.364h-.049Z" transform="translate(-498.524 -43.844)" fill="#fefefe"/>
      <path id="Path_5498" data-name="Path 5498" d="M771.474,112.357c0-2.761.026-5.526-.011-8.287-.019-1.279.494-1.822,1.8-1.75a40.516,40.516,0,0,0,4.334,0c1.505-.083,1.845.77,1.78,1.992a149.444,149.444,0,0,0,.008,15.975c.075,1.354-.407,2.158-1.943,2.078a36.19,36.19,0,0,0-4.146,0c-1.456.094-1.86-.611-1.841-1.916.042-2.7.011-5.4.011-8.1Z" transform="translate(-480.438 -63.719)" fill="#fefefe"/>
      <path id="Path_5499" data-name="Path 5499" d="M191.373,537.276c-2.26.264-4.587-.377-6.8.487q-8.006-.068-16.013-.132c-2.663-.019-2.923-.279-2.912-2.893.011-2.637.049-5.274-.015-7.906-.034-1.377.517-1.946,1.875-1.924,2.448.038,4.9-.049,7.348.042,1.343.053,1.969-.294,1.935-1.754-.075-2.95-.057-5.9-.008-8.85.019-1.207-.438-1.709-1.652-1.679-2.011.049-4.021-.03-6.028.034-1.332.045-1.98-.4-1.958-1.818.053-3.074.045-6.152,0-9.227-.019-1.316.558-1.784,1.829-1.731,1.505.064,3.014-.015,4.523.023,1.366.034,1.988-.562,1.837-1.935-.29-2.622.192-5.243-.03-7.88-.17-2,.637-2.629,2.625-2.4,2.384.279,4.768.053,7.148.143,1.366.053,1.9-.592,1.882-1.939q-.068-4.232,0-8.469c.026-1.426-.664-1.837-1.973-1.822q-8.006.085-16.013.087c-2.414,0-2.916-.472-2.746-2.9a49.882,49.882,0,0,0,0-7.318c-.17-2.256.483-2.72,2.742-2.6,2.192.117,4.395.053,6.59.079,1.377.019,1.863-.687,1.841-2.011-.049-2.825-.075-5.651.008-8.472.049-1.626-.6-2.248-2.192-2.3-3.259-.1-3.357-.249-3.361-3.467,0-2.384.038-4.772-.015-7.156-.03-1.418.517-2.06,1.98-2.063,7.974-.008,15.945-.019,23.916.287,0,3.519.049,7.035-.011,10.555-.023,1.4.5,1.939,1.882,1.863s2.754-.015,4.108-.015c-.637,3.931-.257,7.79-.253,11.63,0,1.071-.23,1.249-1.169,1.23-2.576-.045-5.153-.023-7.733-.011-2.169.011-2.467.321-2.475,2.546-.008,2.388,0,4.776,0,7.163,0,2.622.072,2.7,2.8,2.7h18.269c-.637,2.618-.2,5.172-.324,7.7-.038.815-.011,1.633-.008,2.448a2.021,2.021,0,0,1-2.32,2.3c-2.452-.011-4.908.079-7.352-.03-1.52-.068-2.128.343-2.052,1.973.124,2.757.053,5.526.026,8.291-.019,2.15-.573,2.584-2.742,2.263a4.673,4.673,0,0,0-.562-.038c-5.885-.117-4.975.226-4.983,4.632,0,1.886.057,3.772-.019,5.654-.064,1.565.739,1.935,2.1,1.875,1.754-.079,3.516-.064,5.27-.109,1.622-.042,2.471.671,2.459,2.35q-.028,4.051,0,8.1c.011,1.381-.494,2.071-2.011,2.018-2.448-.087-4.9-.008-7.356-.03-1.407-.011-2.022.555-1.98,2.041.087,3.452.045,6.911.057,10.362Z" transform="translate(-103.136 -272.488)" fill="#fddb4d"/>
      <path id="Path_5500" data-name="Path 5500" d="M374.686,449.912c-13.365,0-26.73-.011-40.094.045-1.513.008-1.928-.472-1.886-1.931.1-3.384.03-6.771.03-10.158q20.206-.113,40.408-.238c1-.008,1.78.215,1.762,1.4C374.844,442.658,374.761,446.287,374.686,449.912Z" transform="translate(-207.188 -272.548)" fill="#fd8b00"/>
      <path id="Path_5501" data-name="Path 5501" d="M323.8,978.915c0-3.448-.015-6.892,0-10.34.008-1.909.453-2.192,2.418-1.875a16.458,16.458,0,0,0,6.564-.355c.532-.128.845-.109,1.094.324a87.105,87.105,0,0,0,8.872,12.29H329.8l-6.005-.045Z" transform="translate(-201.639 -601.78)" fill="#fd8b00"/>
      <path id="Path_5502" data-name="Path 5502" d="M228.973,900.73q15.447.04,30.894.075h0c-.528.679-1.271.358-1.916.37-3.369.068-6.741.087-10.113.121q-9.562-.057-19.129-.113a24.984,24.984,0,0,1-5.715-.453h5.979Z" transform="translate(-138.861 -560.959)" fill="#d3e0e5"/>
      <path id="Path_5503" data-name="Path 5503" d="M336.69,801.14H345.7l.008.309h-8.955C336.728,801.347,336.709,801.246,336.69,801.14Z" transform="translate(-209.672 -498.936)" fill="#fdb927"/>
      <path id="Path_5504" data-name="Path 5504" d="M1008.22,495.067q1.845-5.319,3.685-10.638a1.956,1.956,0,0,1,2.837-1.294c5.783,2.029,11.558,4.089,17.337,6.134a1.745,1.745,0,0,1,1.226,2.493c-.336,1.007-.619,2.029-.928,3.044-.883.845-1.988-.577-2.871.279Q1018.863,495.075,1008.22,495.067Z" transform="translate(-627.889 -300.766)" fill="#fdb927"/>
      <path id="Path_5505" data-name="Path 5505" d="M835.27,965.67c-1.637,1.124-3.553,1.135-5.387,1.143-12.573.057-25.145.026-37.718.026H623.945q-1.675,0-3.353-.008a.766.766,0,0,1,.419-.754c1.316.064,2.633.181,3.949.181q76.166.011,152.328.015c11.245,0,22.49.181,33.735.124,8.084-.041,16.2.566,24.244-.728Z" transform="translate(-386.478 -601.402)" fill="#fefefe"/>
      <path id="Path_5506" data-name="Path 5506" d="M897.93,931.718c.973-.415,2.018-.053,3.01-.268.211.166.411.521.2.611-1.113.479-2.271.928-3.214-.339Z" transform="translate(-559.202 -580.091)" fill="#fefefe"/>
      <path id="Path_5507" data-name="Path 5507" d="M652.834,932.406c.83-1.5,2.052-.6,3.146-.6.075.788-.6.539-.886.773-.739-.275-1.535.257-2.263-.17Z" transform="translate(-406.558 -580.146)" fill="#d3e0e5"/>
      <path id="Path_5508" data-name="Path 5508" d="M860.78,932.276c.954-1.573,2.158-.8,3.331-.351C863.073,932.724,861.9,932.279,860.78,932.276Z" transform="translate(-536.066 -580.019)" fill="#fefefe"/>
      <path id="Path_5509" data-name="Path 5509" d="M843.338,932.593c-.279-.1-.713-.132-.807-.324-.177-.37.249-.479.509-.505.92-.1,1.954-.562,2.531.664-.747.057-1.49.109-2.237.166Z" transform="translate(-524.674 -580.182)" fill="#fefefe"/>
      <path id="Path_5510" data-name="Path 5510" d="M1196.979,824.77a4.971,4.971,0,0,1,.06,3.946A5.039,5.039,0,0,1,1196.979,824.77Z" transform="translate(-745.214 -513.652)" fill="#d3e0e5"/>
      <path id="Path_5511" data-name="Path 5511" d="M939.294,932.3a7.43,7.43,0,0,1-4.014.192C936.419,931.687,937.253,931.638,939.294,932.3Z" transform="translate(-582.463 -580.335)" fill="#d3e0e5"/>
      <path id="Path_5512" data-name="Path 5512" d="M1140.023,551.681a6.975,6.975,0,0,1-4.093.023A4.164,4.164,0,0,1,1140.023,551.681Z" transform="translate(-707.424 -343.25)" fill="#d3e0e5"/>
      <path id="Path_5513" data-name="Path 5513" d="M879.26,932.158c1.064-.932,2.3-.283,3.459-.381C881.723,933.312,880.486,932.671,879.26,932.158Z" transform="translate(-547.575 -580.214)" fill="#fefefe"/>
      <path id="Path_5514" data-name="Path 5514" d="M1196.532,885.765a4.584,4.584,0,0,1-.087-3.625C1197.309,883.309,1197.324,884.022,1196.532,885.765Z" transform="translate(-744.906 -549.381)" fill="#d3e0e5"/>
      <path id="Path_5515" data-name="Path 5515" d="M1192.428,900.11c.317,1.713-.389,2.614-1.648,3.75A6.155,6.155,0,0,1,1192.428,900.11Z" transform="translate(-741.584 -560.573)" fill="#d3e0e5"/>
      <path id="Path_5516" data-name="Path 5516" d="M1120.737,552.1a10.893,10.893,0,0,1-1.965-.317c-.758-.26-.37-.57.083-.792.6.03,1.211.057,1.814.087.294.015.683-.049.755.317.1.487-.483.438-.69.705Z" transform="translate(-696.471 -343.147)" fill="#d3e0e5"/>
      <path id="Path_5517" data-name="Path 5517" d="M1196.818,639.877a4.46,4.46,0,0,1-.1-3.357A3,3,0,0,1,1196.818,639.877Z" transform="translate(-745.11 -396.414)" fill="#d3e0e5"/>
      <path id="Path_5518" data-name="Path 5518" d="M1196.643,809.9c-.5-1.5-.626-2.558,0-3.712C1197.442,807.423,1197.254,808.525,1196.643,809.9Z" transform="translate(-744.972 -502.081)" fill="#d3e0e5"/>
      <path id="Path_5519" data-name="Path 5519" d="M1196.662,862.12a3.7,3.7,0,0,1,.181,3.753C1196.2,864.632,1196.39,863.606,1196.662,862.12Z" transform="translate(-745.089 -536.913)" fill="#d3e0e5"/>
      <path id="Path_5520" data-name="Path 5520" d="M1109.016,932.26a3.894,3.894,0,0,1-3.286.106A3.263,3.263,0,0,1,1109.016,932.26Z" transform="translate(-688.616 -580.35)" fill="#d3e0e5"/>
      <path id="Path_5521" data-name="Path 5521" d="M1196.652,692.98a3.428,3.428,0,0,1,.034,3.391A3.1,3.1,0,0,1,1196.652,692.98Z" transform="translate(-744.937 -431.576)" fill="#d3e0e5"/>
      <path id="Path_5522" data-name="Path 5522" d="M1196.617,656.89c.8,1.158.554,2.18.121,3.429A3.208,3.208,0,0,1,1196.617,656.89Z" transform="translate(-744.947 -409.1)" fill="#d3e0e5"/>
      <path id="Path_5523" data-name="Path 5523" d="M711.995,932.757c-.475-.275-1.117-.015-1.645-.581,1.052-.6,2.071-.355,3.221-.208-.321.864-1.135.434-1.55.788h-.03Z" transform="translate(-442.38 -580.304)" fill="#fefefe"/>
      <path id="Path_5524" data-name="Path 5524" d="M1176.8,560.63a4.944,4.944,0,0,1-3.086-2.21A4.079,4.079,0,0,1,1176.8,560.63Z" transform="translate(-730.953 -347.774)" fill="#fefefe"/>
      <path id="Path_5525" data-name="Path 5525" d="M1159.524,553.15a4.447,4.447,0,0,1-3.614-.807A3.691,3.691,0,0,1,1159.524,553.15Z" transform="translate(-719.867 -343.881)" fill="#d3e0e5"/>
      <path id="Path_5526" data-name="Path 5526" d="M1196.71,617.9a3.146,3.146,0,0,1,.034,3.519A4.846,4.846,0,0,1,1196.71,617.9Z" transform="translate(-745.081 -384.817)" fill="#d3e0e5"/>
      <path id="Path_5527" data-name="Path 5527" d="M1196.88,772.225a3.668,3.668,0,0,1-.151-3.025A2.549,2.549,0,0,1,1196.88,772.225Z" transform="translate(-745.134 -479.044)" fill="#d3e0e5"/>
      <path id="Path_5528" data-name="Path 5528" d="M1066.98,932.194a6.235,6.235,0,0,1,3.866-.132A3.894,3.894,0,0,1,1066.98,932.194Z" transform="translate(-664.483 -580.322)" fill="#d3e0e5"/>
      <path id="Path_5529" data-name="Path 5529" d="M1086.61,932.334c1.2-.747,2.177-.366,3.267-.46Q1088.93,932.851,1086.61,932.334Z" transform="translate(-676.709 -580.345)" fill="#d3e0e5"/>
      <path id="Path_5530" data-name="Path 5530" d="M1196.672,674.93c.8,1.66.8,1.837.011,3.3A5.518,5.518,0,0,1,1196.672,674.93Z" transform="translate(-745.099 -420.335)" fill="#d3e0e5"/>
      <path id="Path_5531" data-name="Path 5531" d="M1196.973,755.243a4.085,4.085,0,0,1-.064-3.433C1197.49,752.693,1197.448,753.655,1196.973,755.243Z" transform="translate(-745.186 -468.214)" fill="#d3e0e5"/>
      <path id="Path_5532" data-name="Path 5532" d="M673.335,932.734c-.411-.106-.819-.215-1.415-.37a3.24,3.24,0,0,1,3.165-.283c-.321.675-.932.415-1.3.653h-.453Z" transform="translate(-418.447 -580.311)" fill="#d3e0e5"/>
      <path id="Path_5533" data-name="Path 5533" d="M1165.323,927.67a3.684,3.684,0,0,1-3.463,1.543C1162.663,927.987,1163.878,928.134,1165.323,927.67Z" transform="translate(-723.573 -577.737)" fill="#d3e0e5"/>
      <path id="Path_5534" data-name="Path 5534" d="M1196.956,715.9a2.866,2.866,0,0,1-.166-2.878C1197.623,714.039,1197.242,714.963,1196.956,715.9Z" transform="translate(-745.138 -444.056)" fill="#d3e0e5"/>
      <path id="Path_5535" data-name="Path 5535" d="M975.761,932.3a5.076,5.076,0,0,1-3.361.128A3.382,3.382,0,0,1,975.761,932.3Z" transform="translate(-605.581 -580.381)" fill="#fefefe"/>
      <path id="Path_5536" data-name="Path 5536" d="M1033.44,932.266a4.021,4.021,0,0,1-3.35.192C1031.357,931.621,1032.4,932.1,1033.44,932.266Z" transform="translate(-641.509 -580.42)" fill="#fefefe"/>
      <path id="Path_5537" data-name="Path 5537" d="M1125.61,932.384c.826-.773,1.758-.434,3.044-.46C1127.47,933.033,1126.519,932.483,1125.61,932.384Z" transform="translate(-700.997 -580.354)" fill="#fefefe"/>
      <path id="Path_5538" data-name="Path 5538" d="M1182.232,917.44a3.59,3.59,0,0,1-2.052,2.131C1180.422,918.161,1180.542,918.032,1182.232,917.44Z" transform="translate(-734.982 -571.366)" fill="#d3e0e5"/>
      <path id="Path_5539" data-name="Path 5539" d="M1188.775,573.381a6.731,6.731,0,0,1-1.675-2.761A2.337,2.337,0,0,1,1188.775,573.381Z" transform="translate(-739.292 -355.372)" fill="#d3e0e5"/>
      <path id="Path_5540" data-name="Path 5540" d="M955.04,932.367a3.072,3.072,0,0,1,3.353.023A5.5,5.5,0,0,1,955.04,932.367Z" transform="translate(-594.769 -580.359)" fill="#d3e0e5"/>
      <path id="Path_5541" data-name="Path 5541" d="M993.54,932.416c.815-.834,1.709-.438,2.991-.505C995.37,933.035,994.408,932.45,993.54,932.416Z" transform="translate(-618.746 -580.355)" fill="#fefefe"/>
      <path id="Path_5542" data-name="Path 5542" d="M1146.9,932.32c-1.019,1.015-1.988.558-2.965,0Z" transform="translate(-712.407 -580.633)" fill="#fefefe"/>
      <path id="Path_5543" data-name="Path 5543" d="M1052.5,932.253a3.559,3.559,0,0,1-2.8.181A2.47,2.47,0,0,1,1052.5,932.253Z" transform="translate(-653.722 -580.373)" fill="#fefefe"/>
      <path id="Path_5544" data-name="Path 5544" d="M1193.033,962.69c-.864,1.218-2.158,1.154-3.433,1.158Q1191.314,963.271,1193.033,962.69Z" transform="translate(-740.849 -599.547)" fill="#fefefe"/>
      <path id="Path_5545" data-name="Path 5545" d="M1205.4,958.66c-.132.381-.449.419-.781.426A.8.8,0,0,1,1205.4,958.66Z" transform="translate(-750.203 -597.037)" fill="#fefefe"/>
      <path id="Path_5546" data-name="Path 5546" d="M1203.415,959.72c-.14.37-.464.381-.785.407Z" transform="translate(-748.964 -597.697)" fill="#fefefe"/>
      <path id="Path_5547" data-name="Path 5547" d="M1201.408,960.75c-.143.366-.472.373-.788.4A.916.916,0,0,1,1201.408,960.75Z" transform="translate(-747.712 -598.338)" fill="#fefefe"/>
      <path id="Path_5548" data-name="Path 5548" d="M1199.4,961.75c-.151.366-.472.377-.8.389C1198.762,961.8,1199.083,961.78,1199.4,961.75Z" transform="translate(-746.454 -598.961)" fill="#fefefe"/>
      <path id="Path_5549" data-name="Path 5549" d="M1224.707,938.73c-.008.4-.14.7-.577.788C1224.322,939.258,1224.515,938.994,1224.707,938.73Z" transform="translate(-762.354 -584.625)" fill="#fefefe"/>
      <path id="Path_5550" data-name="Path 5550" d="M1211.358,954.541c-.094.411-.407.468-.758.464A.71.71,0,0,1,1211.358,954.541Z" transform="translate(-753.927 -594.468)" fill="#fefefe"/>
      <path id="Path_5551" data-name="Path 5551" d="M1208.422,956.67c-.124.373-.445.4-.762.438C1207.913,956.96,1208.169,956.817,1208.422,956.67Z" transform="translate(-752.096 -595.797)" fill="#fefefe"/>
      <path id="Path_5552" data-name="Path 5552" d="M1207,957.79l-.434.377Z" transform="translate(-751.418 -596.495)" fill="#fefefe"/>
      <path id="Path_5553" data-name="Path 5553" d="M1213.993,952.27c-.14.192-.275.385-.415.577C1213.559,952.542,1213.767,952.4,1213.993,952.27Z" transform="translate(-755.781 -593.057)" fill="#fefefe"/>
      <path id="Path_5554" data-name="Path 5554" d="M1212.919,953.63c-.143.14-.287.275-.434.415C1212.455,953.728,1212.659,953.649,1212.919,953.63Z" transform="translate(-755.1 -593.904)" fill="#fefefe"/>
      <path id="Path_5555" data-name="Path 5555" d="M1209.986,955.72l-.426.4Z" transform="translate(-753.28 -595.206)" fill="#fefefe"/>
      <path id="Path_5556" data-name="Path 5556" d="M398.052,859.884a52.967,52.967,0,1,1,53.176-52.8,52.686,52.686,0,0,1-53.176,52.8Zm-2.2-20.257c0,4.157,0,4.112,3.67,4.078,1.2-.011,1.709-.343,1.645-1.6-.083-1.63-.079-3.267,0-4.9.068-1.445.377-2.508,2.339-2.682a29.511,29.511,0,0,0,7.088-1.7q4.617-1.626,3.055-6.175c-.513-1.5-1.222-1.739-2.49-.985a20.823,20.823,0,0,1-14.44,2.554c-5.715-.92-9.457-7.616-6.035-12.761,2.048-3.078,5.13-4.7,8.4-6.069,3.353-1.4,6.748-2.735,9.672-4.957,3.987-3.033,6.073-7.107,5.443-12.078-.8-6.307-4.387-10.438-10.668-12.158-2.9-.8-3.689-2.275-3.01-5.236a9.49,9.49,0,0,0,.211-2.8c-.14-2.075-1.675-1.984-3.172-2-1.464-.011-2.233.494-2.109,2.109.106,1.373-.049,2.765.038,4.142.121,1.848-.815,2.61-2.512,2.81a25.561,25.561,0,0,0-5.3,1.124c-4.025,1.377-4,1.377-2.7,5.432.539,1.682,1.241,2,2.871,1.267,3.874-1.728,7.876-2.754,12.207-1.8,4.4.966,7.963,5.292,6.073,10.121a9.121,9.121,0,0,1-4.006,4.3c-3.67,2.35-7.827,3.667-11.686,5.613-8.793,4.44-10.573,13.6-6.892,21.26,1.928,4.01,5.636,5.941,9.645,7.246a3.459,3.459,0,0,1,2.663,3.587c.019.754,0,1.505,0,2.26Z" transform="translate(-214.866 -469.547)" fill="#fddb4d"/>
      <path id="Path_5557" data-name="Path 5557" d="M320.744,880.3c0-3.5-.008-7,.015-10.494.011-1.7.777-2.188,2.95-1.943,1.524.174,2.3.883,1.818,2.512a16.4,16.4,0,0,0-.211,4.84,39.8,39.8,0,0,1-.377,4.451c-.091.86-.513,1.139-1.237.883a7.956,7.956,0,0,0-2.961-.253h0Z" transform="translate(-199.738 -540.452)" fill="#fd8b00"/>
      <path id="Path_5558" data-name="Path 5558" d="M613.794,808.92H682.33v.381H614.19c-.132-.128-.268-.253-.4-.381Z" transform="translate(-382.245 -503.781)" fill="#e37b09"/>
      <path id="Path_5559" data-name="Path 5559" d="M606.73,798.96H674.9l.015.381h-1.8q-31.839,0-63.682.015c-.773,0-1.645-.328-2.32.381C606.99,799.477,606.858,799.216,606.73,798.96Z" transform="translate(-377.848 -497.578)" fill="#e37b09"/>
      <path id="Path_5560" data-name="Path 5560" d="M635.341,928.04a6.178,6.178,0,0,1,2.927,1.26c-1.23.517-2.165-.226-3.169-.5.083-.253.162-.509.245-.762Z" transform="translate(-395.516 -577.967)" fill="#fefefe"/>
      <path id="Path_5561" data-name="Path 5561" d="M617.045,972.73c0,.332-.049.638-.411.777A.714.714,0,0,1,617.045,972.73Z" transform="translate(-384.013 -605.799)" fill="#fefefe"/>
      <path id="Path_5562" data-name="Path 5562" d="M615.052,975.73c0,.332-.045.638-.411.777A.71.71,0,0,1,615.052,975.73Z" transform="translate(-382.771 -607.668)" fill="#fefefe"/>
      <path id="Path_5563" data-name="Path 5563" d="M613.054,978.73c0,.332-.053.634-.411.777A.717.717,0,0,1,613.054,978.73Z" transform="translate(-381.527 -609.536)" fill="#fefefe"/>
      <path id="Path_5564" data-name="Path 5564" d="M611.034,981.72c.008.336-.045.641-.411.777A.673.673,0,0,1,611.034,981.72Z" transform="translate(-380.266 -611.398)" fill="#fefefe"/>
      <path id="Path_5565" data-name="Path 5565" d="M619.042,969.73c.008.336-.049.637-.407.777A.675.675,0,0,1,619.042,969.73Z" transform="translate(-385.256 -603.931)" fill="#fefefe"/>
      <path id="Path_5566" data-name="Path 5566" d="M608.071,985.74c-.008.328-.057.634-.415.769A.767.767,0,0,1,608.071,985.74Z" transform="translate(-378.423 -613.902)" fill="#fefefe"/>
      <path id="Path_5567" data-name="Path 5567" d="M606,988.71c.008.336-.053.637-.419.773A.636.636,0,0,1,606,988.71Z" transform="translate(-377.119 -615.751)" fill="#fefefe"/>
      <path id="Path_5568" data-name="Path 5568" d="M620.076,968.709c-.132.136-.264.275-.4.411C619.718,968.894,619.789,968.694,620.076,968.709Z" transform="translate(-385.913 -603.294)" fill="#fefefe"/>
      <path id="Path_5569" data-name="Path 5569" d="M618.076,971.71c-.132.14-.264.275-.4.415C617.718,971.895,617.793,971.7,618.076,971.71Z" transform="translate(-384.667 -605.164)" fill="#fefefe"/>
      <path id="Path_5570" data-name="Path 5570" d="M616.076,974.71c-.132.14-.264.275-.4.415C615.725,974.9,615.8,974.714,616.076,974.71Z" transform="translate(-383.422 -607.032)" fill="#fefefe"/>
      <path id="Path_5571" data-name="Path 5571" d="M614.08,977.71c-.132.136-.264.275-.4.411C613.725,977.9,613.8,977.71,614.08,977.71Z" transform="translate(-382.176 -608.901)" fill="#fefefe"/>
      <path id="Path_5572" data-name="Path 5572" d="M612.07,980.7c-.132.14-.264.275-.4.415C611.708,980.885,611.794,980.7,612.07,980.7Z" transform="translate(-380.924 -610.763)" fill="#fefefe"/>
      <path id="Path_5573" data-name="Path 5573" d="M609.1,984.71l-.392.415Z" transform="translate(-379.081 -613.26)" fill="#fefefe"/>
      <path id="Path_5574" data-name="Path 5574" d="M607.074,987.71c-.136.136-.268.272-.4.407C606.708,987.887,606.806,987.718,607.074,987.71Z" transform="translate(-377.81 -615.129)" fill="#fefefe"/>
      <path id="Path_5575" data-name="Path 5575" d="M605.05,990.665c-.132.14-.264.275-.4.415C604.665,990.827,604.737,990.635,605.05,990.665Z" transform="translate(-376.552 -616.967)" fill="#fefefe"/>
      <path id="Path_5576" data-name="Path 5576" d="M610.07,983.7c-.132.136-.264.275-.4.411C609.7,983.876,609.783,983.688,610.07,983.7Z" transform="translate(-379.679 -612.63)" fill="#fefefe"/>
      <path id="Path_5577" data-name="Path 5577" d="M738.952,721.208a12.727,12.727,0,0,1-12.878,12.674,12.949,12.949,0,1,1,12.878-12.671Z" transform="translate(-444.049 -440.924)" fill="#314478"/>
      <path id="Path_5578" data-name="Path 5578" d="M847.2,495.418a85.981,85.981,0,0,0-9.977-3.742,49.791,49.791,0,0,1-5.617-1.98c-2.128-.966-.611-2.561-.155-3.636.389-.913-.057-3.161,2.4-2.275,6.877,2.478,13.787,4.855,20.694,7.25,2,.694,2.218,1.139,1.354,3.146-.173.4-.294.822-.437,1.233q-4.136,0-8.269,0Z" transform="translate(-517.207 -301.166)" fill="#fefefe"/>
      <path id="Path_5579" data-name="Path 5579" d="M608.549,683.04h68.258c-.3.57-.7.377-1,.377q-33.061.017-66.126.008c-.438,0-.875-.049-1.316-.072a.6.6,0,0,1,.185-.309Z" transform="translate(-378.863 -425.385)" fill="#e37b09"/>
      <path id="Path_5580" data-name="Path 5580" d="M811.7,737.52V711.054a1.289,1.289,0,0,1,.272-.894v27.4c-.09-.015-.185-.026-.275-.041Z" transform="translate(-505.5 -442.275)" fill="#e37b09"/>
      <path id="Path_5581" data-name="Path 5581" d="M910.91,511.951c.358-1.249,1.117-1.592,2.263-.966.871.475,1.92.585,2.667,1.309C914.192,512.272,912.509,512.694,910.91,511.951Z" transform="translate(-567.286 -318.043)" fill="#fefefe"/>
      <path id="Path_5582" data-name="Path 5582" d="M1097.8,551.817a4.826,4.826,0,0,1,4.029-.245A5.977,5.977,0,0,1,1097.8,551.817Z" transform="translate(-683.678 -343.306)" fill="#d3e0e5"/>
      <path id="Path_5583" data-name="Path 5583" d="M933.391,551.191a3.966,3.966,0,0,1-3.791.694c-.094-.026-.189-.426-.166-.438,1.151-.63,2.346-.253,3.957-.256Z" transform="translate(-578.82 -343.204)" fill="#b99d96"/>
      <path id="Path_5584" data-name="Path 5584" d="M985,551.7a3.846,3.846,0,0,1,3.719-.038A5.342,5.342,0,0,1,985,551.7Z" transform="translate(-613.428 -343.277)" fill="#d3e0e5"/>
      <path id="Path_5585" data-name="Path 5585" d="M894.92,551.7a7.808,7.808,0,0,1-4.3,0A4.716,4.716,0,0,1,894.92,551.7Z" transform="translate(-554.649 -343.266)" fill="#d3e0e5"/>
      <path id="Path_5586" data-name="Path 5586" d="M783.59,932.283a4.955,4.955,0,0,1,4.312.079A7.513,7.513,0,0,1,783.59,932.283Z" transform="translate(-487.993 -580.328)" fill="#fefefe"/>
      <path id="Path_5587" data-name="Path 5587" d="M777.4,551.7a4.505,4.505,0,0,1,4.161-.049A6.867,6.867,0,0,1,777.4,551.7Z" transform="translate(-484.138 -343.256)" fill="#d3e0e5"/>
      <path id="Path_5588" data-name="Path 5588" d="M606.507,636.98a3.147,3.147,0,0,1,.015,3.576A3.6,3.6,0,0,1,606.507,636.98Z" transform="translate(-377.417 -396.7)" fill="#d3e0e5"/>
      <path id="Path_5589" data-name="Path 5589" d="M646.41,551.682a4.167,4.167,0,0,1,3.1-.434C648.27,552.425,648.119,552.444,646.41,551.682Z" transform="translate(-402.56 -343.246)" fill="#d3e0e5"/>
      <path id="Path_5590" data-name="Path 5590" d="M606.841,603.906a4.872,4.872,0,0,1-.155-3.716A3.513,3.513,0,0,1,606.841,603.906Z" transform="translate(-377.639 -373.788)" fill="#d3e0e5"/>
      <path id="Path_5591" data-name="Path 5591" d="M606.916,678.568a.582.582,0,0,0-.185.309c-1.754-.766-.7-1.875-.449-3.018.932.845.426,1.852.638,2.708Z" transform="translate(-377.23 -420.914)" fill="#d3e0e5"/>
      <path id="Path_5592" data-name="Path 5592" d="M1008.42,551.518c-.977.728-2.026.547-3.35.309C1006.27,550.937,1007.352,551.3,1008.42,551.518Z" transform="translate(-625.927 -343.313)" fill="#d3e0e5"/>
      <path id="Path_5593" data-name="Path 5593" d="M1045.929,551.146c-.117.328-.121.411-.158.434a3.188,3.188,0,0,1-2.784.324c-.091-.034-.173-.4-.128-.438C1043.794,550.784,1044.828,551.24,1045.929,551.146Z" transform="translate(-649.453 -343.205)" fill="#b99d96"/>
      <path id="Path_5594" data-name="Path 5594" d="M740.09,551.738c1.26-.566,2.245-.29,3.753-.343A3.532,3.532,0,0,1,740.09,551.738Z" transform="translate(-460.902 -343.385)" fill="#d3e0e5"/>
      <path id="Path_5595" data-name="Path 5595" d="M837.822,551.639a3.765,3.765,0,0,1-3.082.106A2.835,2.835,0,0,1,837.822,551.639Z" transform="translate(-519.848 -343.298)" fill="#d3e0e5"/>
      <path id="Path_5596" data-name="Path 5596" d="M909.15,551.763a4.814,4.814,0,0,1,3.912-.2C911.609,552.257,910.617,552.031,909.15,551.763Z" transform="translate(-566.19 -343.305)" fill="#d3e0e5"/>
      <path id="Path_5597" data-name="Path 5597" d="M687.312,551.728a5.528,5.528,0,0,1-3.252.1C685.324,551.053,685.493,551.046,687.312,551.728Z" transform="translate(-426.008 -343.297)" fill="#d3e0e5"/>
      <path id="Path_5598" data-name="Path 5598" d="M760.85,551.666a4.5,4.5,0,0,1,3,.057A2.752,2.752,0,0,1,760.85,551.666Z" transform="translate(-473.831 -343.423)" fill="#d3e0e5"/>
      <path id="Path_5599" data-name="Path 5599" d="M796.17,551.774a3.544,3.544,0,0,1,3.644-.072A5.952,5.952,0,0,1,796.17,551.774Z" transform="translate(-495.828 -343.297)" fill="#d3e0e5"/>
      <path id="Path_5600" data-name="Path 5600" d="M951.411,551.728a4.892,4.892,0,0,1-3.221.042C949.4,551.045,949.582,551.038,951.411,551.728Z" transform="translate(-590.503 -343.289)" fill="#d3e0e5"/>
      <path id="Path_5601" data-name="Path 5601" d="M766.19,932.355c.939-.694,1.916-.521,3.47-.207A4.169,4.169,0,0,1,766.19,932.355Z" transform="translate(-477.157 -580.355)" fill="#fefefe"/>
      <path id="Path_5602" data-name="Path 5602" d="M609.581,581.61c-.4,1.411-.664,2.35-.932,3.289C607.77,583.681,608.313,582.8,609.581,581.61Z" transform="translate(-378.775 -362.217)" fill="#d3e0e5"/>
      <path id="Path_5603" data-name="Path 5603" d="M967.68,551.744a3.533,3.533,0,0,1,3.538-.174A4.988,4.988,0,0,1,967.68,551.744Z" transform="translate(-602.641 -343.267)" fill="#d3e0e5"/>
      <path id="Path_5604" data-name="Path 5604" d="M615.61,567.753c.287-1.577,1.222-2.2,2.226-3.233A4.36,4.36,0,0,1,615.61,567.753Z" transform="translate(-383.378 -351.573)" fill="#fefefe"/>
      <path id="Path_5605" data-name="Path 5605" d="M606.6,618.96a2.651,2.651,0,0,1,.072,3.206C605.962,621.148,606.218,620.167,606.6,618.96Z" transform="translate(-377.532 -385.478)" fill="#d3e0e5"/>
      <path id="Path_5606" data-name="Path 5606" d="M725.418,551.637a5.611,5.611,0,0,1-3.478.162C723.068,550.988,724.011,551.113,725.418,551.637Z" transform="translate(-449.599 -343.288)" fill="#d3e0e5"/>
      <path id="Path_5607" data-name="Path 5607" d="M606.606,656.99a2.564,2.564,0,0,1,.023,3.018A2.564,2.564,0,0,1,606.606,656.99Z" transform="translate(-377.471 -409.162)" fill="#d3e0e5"/>
      <path id="Path_5608" data-name="Path 5608" d="M730.026,933.012c-.389-.351-1.147.075-1.426-.792h2.984c-.264.868-1.052.513-1.531.777l-.023.011Z" transform="translate(-453.746 -580.57)" fill="#fefefe"/>
      <path id="Path_5609" data-name="Path 5609" d="M751.271,932.482a6.128,6.128,0,0,1-3.621-.049A4.937,4.937,0,0,1,751.271,932.482Z" transform="translate(-465.61 -580.504)" fill="#d3e0e5"/>
      <path id="Path_5610" data-name="Path 5610" d="M804.69,932.21h2.867C806.444,933.085,806.437,933.089,804.69,932.21Z" transform="translate(-501.134 -580.564)" fill="#d3e0e5"/>
      <path id="Path_5611" data-name="Path 5611" d="M1060.58,551.65a3.069,3.069,0,0,1,3.467.079A5.485,5.485,0,0,1,1060.58,551.65Z" transform="translate(-660.498 -343.249)" fill="#d3e0e5"/>
      <path id="Path_5612" data-name="Path 5612" d="M826.234,932.219a4.691,4.691,0,0,1-3.354.215C824.012,931.608,824.925,931.8,826.234,932.219Z" transform="translate(-512.462 -580.347)" fill="#fefefe"/>
      <path id="Path_5613" data-name="Path 5613" d="M1023.1,551.456a5.337,5.337,0,0,1,3.229.03C1025.469,552.139,1024.556,552.124,1023.1,551.456Z" transform="translate(-637.156 -343.293)" fill="#b99d96"/>
      <path id="Path_5614" data-name="Path 5614" d="M705.931,551.6a3.211,3.211,0,0,1-3.731,0Z" transform="translate(-437.305 -343.527)" fill="#b99d96"/>
      <path id="Path_5615" data-name="Path 5615" d="M857.294,551.357c-1.328.773-2.271.871-3.414-.06A8.637,8.637,0,0,1,857.294,551.357Z" transform="translate(-531.768 -343.25)" fill="#b99d96"/>
      <path id="Path_5616" data-name="Path 5616" d="M756.456,457.07a5.474,5.474,0,0,1,2.444.517c6.541,2.309,13.063,4.67,19.623,6.93,1.143.392,1.275.837.92,1.894-1.558,4.644-1.528,4.644-6.069,3.018-5.885-2.1-11.754-4.263-17.684-6.228-1.822-.6-2.282-1.43-1.554-3.112.272-.626.422-1.305.653-1.95a1.409,1.409,0,0,1,1.664-1.064Z" transform="translate(-469.444 -284.641)" fill="#fefefe"/>
      <path id="Path_5617" data-name="Path 5617" d="M814.25,344.489c0,2.433-1.267,3.233-3.459,2.192-3-1.422-3.584-1.147-4.436,2.06-.664,2.493-.826,2.569-3.187,1.713-2.825-1.026-5.651-2.06-8.5-3.014-1.3-.434-1.656-1.1-1.147-2.392.826-2.1,1.562-4.229,2.282-6.367.343-1.018.769-1.366,1.92-.947,5.062,1.848,10.162,3.591,15.247,5.383.649.23,1.358.438,1.283,1.366Z" transform="translate(-494.039 -210.226)" fill="#fd8b00"/>
      <path id="Path_5618" data-name="Path 5618" d="M839.285,377.554c-.313-.087-.988-.234-1.63-.464-4.421-1.569-8.808-3.233-13.259-4.708-1.912-.634-1.52-1.66-1.056-3.037.566-1.675,1.535-1.294,2.633-.743.392.2.77.419,1.173.592,2,.86,2.731.577,3.312-1.524,1.188-4.3,1.252-3.44,4.651-2.229,2.474.883,4.93,1.826,7.431,2.622,1.226.389,1.633.89,1.109,2.161-.781,1.9-1.4,3.878-2.12,5.809a1.987,1.987,0,0,1-2.244,1.516Z" transform="translate(-512.511 -226.976)" fill="#fd8b00"/>
      <path id="Path_5619" data-name="Path 5619" d="M548.138,413.837c1.867-3.44,3.6-6.624,5.33-9.8a6.1,6.1,0,0,1,.479-.8,1.377,1.377,0,0,1,1.958-.509,1.29,1.29,0,0,1,.528,1.916c-2.384,4.474-4.7,8.982-7.137,13.425-.83,1.513-2.173,1.249-3.018-.592-1.724-3.75-3.361-7.537-5.036-11.309-.992-2.229-2.011-4.444-2.976-6.681-.441-1.022-.739-2.177.611-2.708,1.381-.547,1.773.566,2.222,1.584,2.033,4.64,4.1,9.261,6.171,13.882.2.449.468.868.868,1.6Z" transform="translate(-334.978 -247.013)" fill="#d3e0e5"/>
      <path id="Path_5620" data-name="Path 5620" d="M1054.878,211.862a3.2,3.2,0,0,1-1.7,2.972c-1.211.777-2.557,1.343-3.753,2.139-1.1.732-2.241,1.6-1.539,3.214a2.74,2.74,0,0,0,3.5,1.66,7.3,7.3,0,0,0,2.923-1.151c.551-.4,1.294-.819,1.822-.03.6.9-.2,1.381-.815,1.784a17.659,17.659,0,0,1-1.845.939c-.954.475-1.516,1.218-1.135,2.275.339.947-.162,1.279-.852,1.539-1,.377-1.3-.441-1.388-1.064a3.073,3.073,0,0,0-2.471-2.708,4.03,4.03,0,0,1-2.931-3.961,3.819,3.819,0,0,1,2.226-3.644c1.264-.69,2.471-1.49,3.761-2.128,1.339-.66,1.309-1.792,1.022-2.889-.294-1.132-1.343-1.094-2.324-1.12a5.022,5.022,0,0,0-2.942,1.1c-.6.4-1.177.611-1.615-.094-.471-.758-.1-1.316.653-1.637,1.5-.641,2.667-1.392,1.969-3.391-.23-.656.464-1.117,1.132-1.23.728-.124,1.369.211,1.305.966-.151,1.837,1.041,2.256,2.418,2.78a3.48,3.48,0,0,1,2.569,3.678Z" transform="translate(-650.555 -127.305)" fill="#d3e0e5"/>
      <path id="Path_5621" data-name="Path 5621" d="M456.461,866.388c0-.754.015-1.509,0-2.26a3.455,3.455,0,0,0-2.663-3.587c-4.01-1.305-7.718-3.236-9.645-7.246-3.682-7.661-1.9-16.82,6.892-21.26,3.859-1.946,8.016-3.267,11.686-5.613a9.123,9.123,0,0,0,4.006-4.3c1.89-4.828-1.675-9.155-6.073-10.121-4.327-.951-8.329.075-12.207,1.8-1.633.728-2.335.411-2.871-1.267-1.3-4.055-1.324-4.055,2.7-5.432a25.08,25.08,0,0,1,5.3-1.124c1.7-.2,2.633-.962,2.512-2.81-.087-1.377.068-2.769-.038-4.142-.124-1.615.645-2.12,2.109-2.109,1.5.011,3.033-.079,3.172,2a9.5,9.5,0,0,1-.211,2.8c-.679,2.961.106,4.44,3.01,5.236,6.277,1.72,9.868,5.851,10.668,12.158.63,4.972-1.452,9.049-5.443,12.078-2.923,2.222-6.318,3.553-9.672,4.957-3.267,1.369-6.349,2.991-8.4,6.069-3.421,5.145.321,11.841,6.035,12.761a20.823,20.823,0,0,0,14.44-2.554c1.264-.754,1.973-.513,2.49.984q1.565,4.553-3.055,6.175a29.512,29.512,0,0,1-7.088,1.705c-1.962.177-2.271,1.237-2.339,2.682-.079,1.63-.083,3.267,0,4.9.064,1.264-.441,1.592-1.645,1.6-3.67.034-3.67.079-3.67-4.078Z" transform="translate(-275.47 -496.308)" fill="#fdb927"/>
    </g>
  </g>
</svg>
