<svg xmlns="http://www.w3.org/2000/svg" width="255.908" height="254.115" viewBox="0 0 255.908 254.115">
  <g id="Layer_1-2" transform="translate(110.288 254.099) rotate(-129)">
    <path id="Path_5622" data-name="Path 5622" d="M135.525,187.367c-1.972-.879-4.13-.674-6.194-.991-30.186-4.632-53.568-20.18-71.215-44.748C46.273,125.144,39.2,106.58,35.085,86.8c-2.455-11.832-3.549-23.836-4.447-35.864-.054-.708-.185-1.406-.337-2.5-3.549,3.573-6.839,6.888-10.134,10.2a11.294,11.294,0,0,1-8.479,3.612,11.022,11.022,0,0,1-10.612-7,10.783,10.783,0,0,1,2.2-12.516C8.321,37.445,13.568,32.349,18.728,27.17c6.971-6.985,13.98-13.936,20.9-20.975,2.612-2.655,5.223-5.228,8.962-6.2H52.6c3.744.962,6.356,3.524,8.982,6.17,11.964,12.072,24,24.07,35.99,36.112a11.16,11.16,0,0,1,3.114,11.569,11.007,11.007,0,0,1-8.572,8.113A11.292,11.292,0,0,1,81.1,58.659c-3.368-3.349-6.712-6.722-10.075-10.085-.415-.415-.859-.8-1.552-1.44-.181,5.794-.268,11.252.039,16.7A140.638,140.638,0,0,0,75.279,97.4c8.957,29.113,25.442,52.558,51.9,68.281a91,91,0,0,0,42.654,12.97c1.152.054,2.3.19,3.456.2a1.694,1.694,0,0,1,1.928,1.528c.132,1.069-.513,1.65-1.5,1.977a96.077,96.077,0,0,1-13.946,3.515,76.137,76.137,0,0,1-9.587,1.157c-.3.015-.61.015-.791.327H135.52Z" transform="translate(0)" fill="#d94f04"/>
  </g>
</svg>
