<svg xmlns="http://www.w3.org/2000/svg" width="61.116" height="58.865" viewBox="0 0 61.116 58.865">
  <path id="Icon_simple-jquery" data-name="Icon simple-jquery" d="M3.9,14.5c-5.413,7.776-4.742,17.891-.6,26.149.094.2.2.393.3.584a4.111,4.111,0,0,0,.2.38,2.152,2.152,0,0,0,.12.212c.066.133.138.26.207.388l.4.676c.074.125.145.247.229.372.14.24.306.477.451.716.066.1.127.2.2.3q.371.583.79,1.132c.2.273.4.538.612.8.069.1.145.194.217.291l.563.686c.069.079.138.171.212.252.25.3.515.594.78.89,0,.005.008.01.013.018A7.981,7.981,0,0,0,9.67,49.47c.2.209.408.418.625.622l.258.247c.283.265.566.53.864.785.005,0,.008.005.013.008l.145.127c.26.227.523.454.79.663l.319.268c.217.173.441.339.663.51l.347.265c.237.178.49.354.732.528.089.064.178.127.27.186l.074.059.716.472.306.2c.375.24.747.467,1.117.691.107.054.214.112.314.173.275.158.561.319.839.467.153.087.311.161.469.24.191.107.39.212.594.319a.826.826,0,0,1,.143.059c.084.038.163.079.245.12.306.153.625.3.956.444a2.077,2.077,0,0,1,.194.087c.367.161.734.314,1.114.464.087.025.178.069.268.1.344.13.7.263,1.048.388l.127.046c.39.133.775.26,1.17.382.092.025.186.059.283.084a12.4,12.4,0,0,0,1.206.347C52.038,63.593,59.641,43.1,59.641,43.1c-6.387,8.317-17.72,10.51-28.454,8.07-.4-.092-.8-.219-1.2-.337q-.728-.215-1.446-.461l-.158-.061c-.347-.117-.681-.247-1.02-.377q-.138-.057-.28-.1c-.375-.15-.739-.306-1.1-.467-.079-.025-.145-.061-.224-.092q-.462-.213-.92-.433c-.094-.041-.178-.084-.27-.133-.24-.112-.479-.24-.714-.362q-.242-.116-.477-.245c-.288-.153-.576-.319-.864-.477-.087-.061-.186-.112-.286-.168q-.564-.334-1.117-.686-.154-.1-.3-.2-.406-.25-.8-.525c-.089-.059-.171-.122-.263-.186q-.38-.263-.75-.541c-.107-.087-.222-.168-.337-.255-.224-.176-.451-.344-.676-.53l-.3-.24q-.433-.349-.852-.716a.658.658,0,0,0-.094-.076l-.885-.806-.255-.24c-.209-.212-.423-.416-.637-.625l-.247-.255q-.4-.4-.788-.824l-.038-.041c-.27-.3-.533-.6-.8-.9-.069-.079-.133-.163-.2-.247l-.576-.706q-.441-.565-.867-1.142C5.5,29.575,3.342,18.356,8.107,9.155m12.588-1.2c-3.924,5.632-3.7,13.164-.648,19.12a23.2,23.2,0,0,0,1.726,2.886,13.522,13.522,0,0,0,2.019,2.514c.273.311.569.612.877.915l.229.229q.436.421.892.829l.038.033q.516.45,1.056.872c.087.059.161.127.245.186.357.275.716.541,1.089.8l.038.023c.158.115.326.219.5.331.071.046.153.107.229.153.27.173.535.337.808.5.043.018.082.041.122.059.229.14.479.275.719.4.084.051.166.089.252.138.171.084.339.173.5.26l.082.036c.344.168.7.326,1.04.484.087.033.161.061.235.1.283.122.571.24.854.349.127.043.247.094.367.133.26.1.533.186.79.275l.357.115a8.629,8.629,0,0,0,1.142.329c20.193,3.348,24.869-12.205,24.869-12.205-4.21,6.058-12.356,8.944-21.037,6.69q-.576-.149-1.142-.331c-.122-.033-.229-.071-.347-.107-.265-.092-.538-.181-.8-.278l-.367-.138c-.286-.115-.576-.222-.854-.344-.087-.038-.166-.064-.232-.1-.357-.161-.716-.319-1.063-.49l-.525-.273-.3-.153c-.235-.122-.451-.25-.676-.382a1.581,1.581,0,0,1-.158-.087c-.27-.168-.551-.331-.808-.5-.087-.048-.166-.107-.247-.158l-.53-.347c-.367-.255-.727-.53-1.089-.8-.082-.074-.161-.135-.24-.2a24.243,24.243,0,0,1-8.256-11.749,18.257,18.257,0,0,1,1.425-14.64m10.93-.375a11.771,11.771,0,0,0-.943,11.359,16.03,16.03,0,0,0,9.189,8.58c.166.064.326.117.5.178l.224.069c.235.074.472.161.714.214,11.157,2.152,14.176-5.729,14.989-6.887-2.657,3.814-7.111,4.73-12.575,3.4A12.35,12.35,0,0,1,45.6,19.56a16.175,16.175,0,0,1-1.573-.648,16.626,16.626,0,0,1-2.754-1.683c-4.9-3.707-7.927-10.785-4.735-16.55" transform="translate(-0.016 -0.679)"/>
</svg>
