<?xml version="1.0" encoding="UTF-8"?><svg id="Layer_2" xmlns="http://www.w3.org/2000/svg" viewBox="0 0 173.9 173.87"><defs><style>.cls-1{fill:#fff;}</style></defs><g id="Layer_1-2"><g><path d="M87.34,0c47.53,.15,86.75,39.59,86.56,87.07-.19,48.14-39.59,87.08-87.83,86.8C38.66,173.59-.24,134.01,0,86.3,.24,38.81,39.66-.15,87.34,0Zm12.67,80.51c0,8.15-.03,16.3,0,24.45,.04,7.68,6.2,11.65,13.33,8.7,1.28-.53,1.86-1.22,1.63-2.62-.27-1.62-1.21-1.44-2.54-1.39-7.01,.22-7.61-.44-7.61-7.56-.01-15.47,0-30.94-.02-46.41,0-1.8,.35-3.84-2.58-3.72-2.64,.11-2.19,2.01-2.19,3.59-.03,8.32-.01,16.64-.02,24.95Zm-24.99-11.6c-1.49,.08-3.01,.02-4.47,.27-7.22,1.21-11.97,6.14-12.13,12.47-.14,5.41,2.84,8.28,10.75,10.4,4.01,1.07,8.05,2.05,11.99,3.33,3.32,1.08,6.03,2.9,5.87,7.04-.15,3.93-2.61,5.96-5.92,7.21-7.18,2.71-13.7,.9-19.87-3.08-1.15-.74-2.21-2.39-3.69-.37-1.35,1.85,.13,2.71,1.24,3.64,6.41,5.4,19.12,6.5,26.48,2.34,4.29-2.42,6.56-6.1,6.42-11.02-.14-5.04-3.4-7.79-7.81-9.21-4.58-1.48-9.26-2.61-13.89-3.94-3.61-1.04-7.2-2.14-7-7.01,.17-4.1,3.3-7.34,8.16-8.01,5.23-.72,10.32-.26,14.73,3.08,1.19,.9,2.33,1.45,3.43,.04,1.28-1.63-.26-2.47-1.22-3.16-3.87-2.83-8.18-4.4-13.07-4.02Z"/><path class="cls-1" d="M75.02,68.91c4.89-.38,9.2,1.2,13.07,4.02,.96,.7,2.51,1.53,1.22,3.16-1.1,1.4-2.24,.86-3.43-.04-4.41-3.34-9.5-3.8-14.73-3.08-4.87,.67-7.99,3.91-8.16,8.01-.2,4.87,3.38,5.97,7,7.01,4.63,1.33,9.31,2.46,13.89,3.94,4.41,1.42,7.67,4.17,7.81,9.21,.14,4.91-2.14,8.59-6.42,11.02-7.36,4.16-20.08,3.06-26.48-2.34-1.11-.93-2.59-1.79-1.24-3.64,1.48-2.02,2.53-.37,3.69,.37,6.17,3.98,12.7,5.79,19.87,3.08,3.3-1.25,5.77-3.27,5.92-7.21,.16-4.14-2.55-5.97-5.87-7.04-3.94-1.28-7.99-2.25-11.99-3.33-7.9-2.12-10.88-4.99-10.75-10.4,.16-6.33,4.92-11.27,12.13-12.47,1.47-.25,2.98-.19,4.47-.27Z"/><path class="cls-1" d="M100.01,80.51c0-8.32-.01-16.64,.02-24.95,0-1.58-.45-3.48,2.19-3.59,2.94-.12,2.58,1.92,2.58,3.72,.01,15.47,0,30.94,.02,46.41,0,7.12,.61,7.77,7.61,7.56,1.33-.04,2.27-.22,2.54,1.39,.23,1.4-.35,2.09-1.63,2.62-7.13,2.95-13.29-1.02-13.33-8.7-.04-8.15,0-16.3,0-24.45Z"/></g></g></svg>