<svg xmlns="http://www.w3.org/2000/svg" width="93.396" height="56.098" viewBox="0 0 93.396 56.098">
  <path id="Icon_awesome-aws" data-name="Icon awesome-aws" d="M26.327,24.8c-.105,3.305,1.547,4.769,1.588,5.7a1.191,1.191,0,0,1-.6.915l-1.868,1.308a1.556,1.556,0,0,1-.822.28c-.063,0-1.2.267-2.989-3.737a11.471,11.471,0,0,1-9.137,4.3c-2.376.13-8.814-1.348-8.483-8.2C3.787,19.775,8.989,16.3,14.37,16.6a29.308,29.308,0,0,1,6.857.915V15.234c.393-3.861-2.145-6.857-6.539-6.408A17.407,17.407,0,0,0,8,10.3c-1.074.493-1.211.412-1.569.412-1.081,0-.636-3.135-.429-3.531.76-.934,5.233-2.678,9.623-2.653A11.216,11.216,0,0,1,23.75,7.05a10.257,10.257,0,0,1,2.579,7.641V24.8ZM13.716,29.529c4.732-.069,6.736-2.914,7.193-4.446a14.617,14.617,0,0,0,.3-4,25.083,25.083,0,0,0-5.773-.711c-2.211-.166-6.249.822-6.091,4.708a4.054,4.054,0,0,0,4.372,4.448Zm24.942,3.364a1.685,1.685,0,0,1-1.85-1.513L29.541,7.352A5.574,5.574,0,0,1,29.26,6.1a.673.673,0,0,1,.563-.766c.035-.006-.311,0,3.247,0A1.658,1.658,0,0,1,34.9,6.847L40.115,27.4,44.954,6.847a1.652,1.652,0,0,1,1.868-1.494h2.5a1.615,1.615,0,0,1,1.85,1.513L56.053,27.68l5.38-20.814a1.707,1.707,0,0,1,1.85-1.513h2.878c.124-.019.9-.118.766,1.252-.063.27.5-1.556-7.7,24.793a1.684,1.684,0,0,1-1.85,1.513H54.652a1.684,1.684,0,0,1-1.85-1.569L47.963,11.331,43.179,31.322a1.682,1.682,0,0,1-1.85,1.569H38.658Zm39.909.822A19.715,19.715,0,0,1,70.2,31.921a1.868,1.868,0,0,1-1.14-1.738V28.614c0-1.233.9-1.007,1.289-.86a20.036,20.036,0,0,0,4.2,1.4c5.348,1.1,7.7-.336,8.277-.654a3.355,3.355,0,0,0,.766-5.1c-1.529-1.283-2.259-1.331-7.753-3.065-.677-.188-6.377-1.986-6.39-7.641-.089-4.121,3.656-8.2,10.145-8.165,1.849,0,6.776.6,8.109,2.279a1.763,1.763,0,0,1,.28,1.027V9.313q0,.972-.711.972c-1.125-.125-3.121-1.63-7.174-1.569-1.005-.053-5.821.133-5.605,3.644-.063,2.767,3.883,3.8,4.334,3.924,5.321,1.6,7.1,1.866,9.211,4.317,2.5,3.247,1.153,7.048.635,8.09-2.784,5.471-9.985,5.026-10.107,5.023Zm5.866,15.3C74.214,56.564,59.379,60.581,46.712,60.581A68.459,68.459,0,0,1,.413,42.963C-.54,42.1.3,40.926,1.459,41.581A93.011,93.011,0,0,0,47.7,53.857a91.968,91.968,0,0,0,35.255-7.231c1.719-.73,3.177,1.138,1.477,2.39Zm4.26-4.858c-1.308-1.681-8.651-.785-11.938-.393-.991.112-1.159-.747-.261-1.382,5.847-4.111,15.451-2.933,16.554-1.551s-.3,11-5.773,15.6c-.841.711-1.645.336-1.271-.6,1.232-3.1,4-9.995,2.689-11.677Z" transform="translate(0 -4.485)"/>
</svg>
