<svg xmlns="http://www.w3.org/2000/svg" width="56.098" height="56.098" viewBox="0 0 56.098 56.098">
  <path id="Icon_simple-javascript" data-name="Icon simple-javascript" d="M0,0H56.1V56.1H0ZM51.5,42.719c-.409-2.559-2.076-4.71-7.019-6.715-1.72-.806-3.632-1.367-4.2-2.665a2.76,2.76,0,0,1-.108-1.648c.351-1.51,2.139-1.963,3.541-1.543A3.8,3.8,0,0,1,46,32.252c2.417-1.58,2.417-1.58,4.1-2.63a9.647,9.647,0,0,0-1.37-1.823c-1.473-1.648-3.434-2.489-6.624-2.417l-1.648.208a7.535,7.535,0,0,0-4,2.349,7.333,7.333,0,0,0,1.33,10.451c3.191,2.384,7.856,2.908,8.452,5.154.561,2.735-2.034,3.611-4.6,3.3a6.154,6.154,0,0,1-4.1-3.123l-4.277,2.457a9.452,9.452,0,0,0,1.893,2.592c4.067,4.1,14.235,3.894,16.06-2.347a7.911,7.911,0,0,0,.173-3.857l.108.157Zm-21-16.935H25.251c0,4.53-.021,9.032-.021,13.569,0,2.88.147,5.523-.323,6.337-.771,1.61-2.758,1.4-3.66,1.122a4.51,4.51,0,0,1-1.94-2,2.005,2.005,0,0,0-.3-.458l-4.266,2.63a8.268,8.268,0,0,0,3.095,3.546,10.287,10.287,0,0,0,7.5.947,6.565,6.565,0,0,0,4.233-3.3c1.192-2.174.94-4.838.928-7.821.028-4.8,0-9.6,0-14.443l.009-.131Z"/>
</svg>
