<svg xmlns="http://www.w3.org/2000/svg" width="64.109" height="56.098" viewBox="0 0 64.109 56.098">
  <path id="Icon_awesome-react" data-name="Icon awesome-react" d="M52.364,20.43q-1.014-.338-2.028-.639c.113-.463.213-.927.313-1.39,1.54-7.463.526-13.46-2.892-15.439-3.293-1.891-8.665.075-14.1,4.808-.538.463-1.064.952-1.565,1.44-.338-.326-.689-.651-1.039-.964-5.7-5.059-11.407-7.187-14.825-5.2-3.281,1.9-4.257,7.55-2.88,14.612.138.7.288,1.39.463,2.091-.8.225-1.59.476-2.329.739C4.8,22.809,0,26.465,0,30.247c0,3.907,5.109,7.826,12.058,10.2.563.188,1.127.376,1.7.538-.188.751-.351,1.49-.5,2.254-1.315,6.949-.288,12.459,2.993,14.349,3.381,1.953,9.065-.05,14.6-4.9.438-.388.876-.789,1.315-1.215.551.538,1.127,1.052,1.7,1.553,5.359,4.608,10.656,6.473,13.924,4.583,3.381-1.953,4.483-7.876,3.055-15.088q-.169-.826-.376-1.69c.4-.113.789-.238,1.177-.363,7.225-2.392,12.459-6.261,12.459-10.23,0-3.794-4.933-7.475-11.745-9.817ZM35.422,9.8c4.658-4.057,9-5.647,10.981-4.508,2.116,1.215,2.93,6.123,1.6,12.571-.088.426-.175.839-.288,1.252a64.1,64.1,0,0,0-8.427-1.327,63.263,63.263,0,0,0-5.334-6.649c.488-.463.964-.9,1.465-1.34ZM20.935,36.745c.639,1.089,1.29,2.179,1.978,3.243a56.7,56.7,0,0,1-5.81-.939,58.491,58.491,0,0,1,2.041-5.572c.576,1.1,1.164,2.191,1.791,3.268ZM17.142,21.682c1.8-.4,3.719-.726,5.71-.977-.664,1.039-1.315,2.1-1.928,3.18s-1.215,2.154-1.778,3.256c-.789-1.866-1.452-3.694-2-5.459Zm3.431,8.627c.826-1.728,1.728-3.418,2.68-5.084s1.978-3.281,3.055-4.871c1.878-.138,3.794-.213,5.747-.213s3.882.075,5.747.213q1.6,2.367,3.043,4.846t2.717,5.059q-1.258,2.592-2.7,5.109c-.952,1.665-1.966,3.281-3.03,4.883-1.866.138-3.806.2-5.772.2s-3.869-.063-5.71-.175q-1.634-2.385-3.08-4.883c-.964-1.665-1.853-3.356-2.692-5.084ZM43.186,36.72c.639-1.1,1.24-2.216,1.828-3.343a58.124,58.124,0,0,1,2.116,5.547,55,55,0,0,1-5.885,1C41.921,38.874,42.56,37.8,43.186,36.72Zm1.8-9.579c-.588-1.1-1.19-2.2-1.816-3.281s-1.252-2.116-1.916-3.155a57.62,57.62,0,0,1,5.747,1,55.413,55.413,0,0,1-2.016,5.434ZM32.079,13.055a54.983,54.983,0,0,1,3.706,4.483c-2.479-.113-4.971-.113-7.45,0C29.563,15.922,30.827,14.42,32.079,13.055ZM17.555,5.38c2.1-1.227,6.774.526,11.695,4.883.313.275.626.576.952.876a63.614,63.614,0,0,0-5.372,6.649,66,66,0,0,0-8.414,1.3c-.163-.639-.3-1.29-.438-1.941-1.177-6.06-.4-10.631,1.578-11.77ZM14.487,38.386c-.526-.15-1.039-.313-1.553-.488a25.538,25.538,0,0,1-7.888-3.907,5.618,5.618,0,0,1-2.354-3.744c0-2.291,3.957-5.221,9.666-7.212.714-.25,1.44-.476,2.166-.689a66.58,66.58,0,0,0,3.068,7.963,68.444,68.444,0,0,0-3.105,8.076Zm14.6,12.271a22.918,22.918,0,0,1-7.062,4.42,5.542,5.542,0,0,1-4.42.163c-1.991-1.152-2.817-5.572-1.69-11.52.138-.7.288-1.4.463-2.091a62.64,62.64,0,0,0,8.5,1.227,66.078,66.078,0,0,0,5.409,6.686C29.888,49.93,29.487,50.306,29.087,50.656Zm3.068-3.043c-1.277-1.377-2.554-2.9-3.794-4.545,1.2.05,2.442.075,3.694.075,1.29,0,2.554-.025,3.806-.088a54,54,0,0,1-3.706,4.558ZM48.52,51.37a5.565,5.565,0,0,1-2.066,3.919c-1.991,1.152-6.236-.351-10.818-4.282-.526-.451-1.052-.939-1.59-1.44a61.941,61.941,0,0,0,5.284-6.711,61.725,61.725,0,0,0,8.539-1.315c.125.513.238,1.027.338,1.528a22.825,22.825,0,0,1,.313,8.3ZM50.8,37.91c-.351.113-.7.225-1.064.326a63.607,63.607,0,0,0-3.193-7.989,63.29,63.29,0,0,0,3.068-7.876c.651.188,1.277.388,1.878.588,5.835,2,9.929,4.983,9.929,7.262,0,2.454-4.37,5.622-10.618,7.688ZM32.054,36.032A5.735,5.735,0,1,0,26.32,30.3,5.734,5.734,0,0,0,32.054,36.032Z" transform="translate(0 -2.251)"/>
</svg>
