<?xml version="1.0" encoding="UTF-8"?><svg id="Layer_2" xmlns="http://www.w3.org/2000/svg" viewBox="0 0 1430.64 1059.75"><defs><style>.cls-1{fill:#fdb927;}.cls-2{fill:#b99d96;}.cls-3{fill:#cb9887;}.cls-4{fill:#d3e0e5;}.cls-5{fill:#fddb4d;}.cls-6{fill:#e37b09;}.cls-7{fill:#fd8b00;}.cls-8{fill:#314478;}.cls-9{fill:#fefefe;}</style></defs><g id="Layer_1-2"><g><path class="cls-4" d="M587.54,1009.53c2.51,1.02,5.1,1.29,7.81,1.27,18.77-.11,37.35,2.48,56.02,3.75,14.23,.96,28.35,2.68,42.47,4.37,12.97,1.55,25.94,3.48,38.37,7.85,2.35,.83,5.22,1.57,5.3,4.54,.07,2.74-2.69,3.63-4.82,4.44-10.12,3.9-20.77,5.59-31.45,6.97-16.23,2.1-32.49,4.05-48.76,5.83-8.89,.97-17.81,1.77-26.75,2.13-23.05,.91-46.05,2.63-69.12,3.27-17.25,.48-34.51,1.1-51.75,1.97-33.74,1.7-67.48,1.86-101.24,1.88-1.54,0-3.54-.59-3.85,1.96h-12c-.79-1.13-1.99-1.01-3.14-1.01-12.24,0-24.48,0-36.72,0-1.15,0-2.35-.12-3.14,1.01h-7c-.45-2.85-2.73-1.92-4.36-1.94-8.16-.09-16.33-.22-24.5-.03-25.81,.61-51.59-.7-77.37-1.25-17.25-.37-34.51-1.32-51.76-1.97-13.75-.52-27.53-1.05-41.26-1.99-19.15-1.32-38.32-2.68-57.44-4.61-18.78-1.9-37.55-3.62-56.12-7.17-7.18-1.37-14.3-2.92-21.13-5.55-1.73-.66-3.48-1.56-3.82-3.6-.39-2.41,1.86-3.04,3.33-3.82,6.69-3.57,14.15-4.66,21.47-5.94,16.3-2.85,32.72-4.84,49.23-6.2,22.46-1.86,44.88-3.97,67.41-5.08,16.09-.79,32.15-2.01,48.27-1.8,.28,6.79,.71,13.58,.77,20.37,.03,3.26,.78,4.78,4.45,4.75,21.28-.18,42.56-.16,63.85-.2,27.33,0,54.67,0,82,0,13.31,.06,26.62,.19,39.93,.16,12.97-.02,25.94-.19,38.91-.3,3.91,.22,7.27,2.2,10.86,3.45,40.79,14.27,81.03,14.22,120.57-4.5,11.91-5.64,22.58-13.26,33.33-20.77,.45-.35,.89-.71,1.34-1.06l-.08,.05c.9,.02,1.69-.15,2.04-1.12l-.19-.11Z"/><path class="cls-9" d="M344.79,1059.75c.79-1.13,1.99-1.01,3.14-1.01,12.24,0,24.48,0,36.72,0,1.15,0,2.35-.12,3.14,1.01h-43Z"/><path class="cls-5" d="M179.6,767.92c17.75,.35,14.56,2.11,14.84-13.77,.08-4.3,.12-8.59-.38-12.9-.53-4.62,1.28-6.24,6.05-6.21,2.49,.02,4.97,.07,7.46,.08,8.14,0,8.24,0,8.07-8.39-.16-7.62-.24-15.23,.29-22.84,22.72,.04,45.44,.07,68.17,.11-.06,8.64-.24,17.29-.12,25.93,.06,4.4-1.57,6.54-6.14,6.31-3.32-.17-6.65,0-9.98-.04-3.47-.05-5.11,1.3-4.99,5.06,.22,7.14,.02,14.3,.08,21.44,.03,3.73-1.66,5.52-5.42,5.49-5.32-.05-10.65,0-15.97,0-3.26,0-4.77,1.37-4.67,4.86,.19,6.98,.06,13.96,.06,20.95q0,6.82,6.61,6.83c31.05,.1,62.1,.2,93.16,.3,.04,.28,.1,.55,.17,.82-.04,.31-.12,.61-.23,.9-1.17,.03-2.33,.07-3.5,.07-24.32,0-48.65,.14-72.97-.11-5.14-.05-6.75,1.59-6.43,6.58,.38,5.97,.09,11.98,.09,17.98q0,7.31,7.28,7.53c5.17,.16,6.67,1.67,6.71,7.04,.05,6.83-.2,13.66,.09,20.48,.21,4.97-2.27,6.49-6.64,6.47-5.83-.03-11.67,.14-17.49-.06-3.66-.13-5.07,1.21-4.99,4.92,.18,8.99,.07,17.98,.08,26.97h-15.85c5.05,1.2,10.1,1.17,15.15,1.2,16.9,.09,33.81,.2,50.71,.3-.02,9.32-.15,18.65,0,27.97,.06,3.66-1.84,5.7-4.93,5.45-3.78-.31-7.56,.19-11.22-.16-4.71-.45-5.97,1.28-5.92,5.43,.09,7.16-.09,14.32,.08,21.47,.07,3.14-1.82,5.69-4.1,5.05-5.2-1.47-10.12,1.44-15.24-.11-4.36-1.32-6.65,.69-6.69,5.21-.07,6.82-.04,13.65-.01,20.48,.02,6.09,.72,6.77,7.02,6.77,25.32,0,50.64,0,75.96,0,5.31,.04,10.61,.08,15.92,.12-.71,3.06-3.21,1.8-4.92,1.81-14.48,.1-28.96,.23-43.44,0-9.28-.15-18.58,.85-27.86-.65-2.7-.43-4.89,.97-4.78,4.71,.26,9.31,.1,18.63,.11,27.94-21.28,.04-42.56,.02-63.85,.2-3.68,.03-4.42-1.49-4.45-4.75-.06-6.79-.49-13.58-.77-20.37q.42-8.05-7.55-8.12c-9.16-.07-10.03-.91-10.1-9.95-.05-6.13,.04-12.26-.02-18.39-.04-3.92,1.53-5.79,5.71-5.57,4.98,.27,10-.04,14.99,.2,4.4,.21,5.93-1.69,5.75-5.94-.31-7.3-.31-14.62-.42-21.94-.05-3.63,1.42-5.56,5.42-5.29,3.81,.26,7.66,0,11.49,.16,3.3,.13,5.05-1.16,5.05-4.58-.01-8.15-.09-16.31,.06-24.46,.06-3.48-2.25-3.09-4.35-3.1-12.16-.06-24.32-.2-36.47-.07-8.33,.08-9.29-.7-9.22-8.86,.05-5.83,0-11.65,.01-17.48,0-7.24,.17-7.39,7.16-7.38,5.83,0,11.67-.12,17.49,.04,3.68,.1,5.08-1.42,4.97-5.04-.22-7.31-.22-14.62-.3-21.94,1.33-4.74-.71-6.55-5.32-6.13-1.48,.13-2.95,.29-4.43,.44-3.78,.15-4.79-1.88-4.63-5.34,.34-7.47,.35-14.95,.67-22.42,.19-4.32-1.57-5.83-5.92-5.77-12.8,.19-11.69,1.55-11.7-11.76,0-5.16-.02-10.32,0-15.48,.02-6.13,.4-6.48,6.51-6.54,1.66-.02,3.32-.11,4.99-.16Z"/><path class="cls-4" d="M189.68,835.39c1.48-.15,2.95-.31,4.43-.44,4.61-.42,6.65,1.4,5.32,6.13-3.55-1.39-7.45-2.16-9.74-5.69Z"/><path class="cls-6" d="M1108.01,514.15c22.47,.13,44.95,.19,67.42,.4,16.89,.16,31.53,5.75,42.95,18.55,10.38,11.64,14.25,25.56,14.24,40.91-.05,108.16-.03,216.33-.02,324.49,0,1.99,.1,3.99,.15,5.98-.13,9.41-.72,18.74-3.91,27.73-.83,2.33-1.72,4.6-3.28,6.55l.1-.02c-.51,.7-1.02,1.39-1.53,2.09-3.15,3.82-6.3,7.64-9.45,11.45-.59,.35-1.15,.73-1.09,1.54l.05-.18c-.68,.06-1.22,.26-1.15,1.1l.11-.18c-.99-.11-1.59,.4-2.01,1.23l.09-.06c-.38,.36-.76,.71-1.13,1.07l.12-.13c-.67,.39-1.35,.77-2.02,1.16l.06-.04c-.38,.33-.77,.67-1.15,1l.12-.14c-.86,.07-1.67,.23-2.07,1.13l.1-.06c-.69,.36-1.39,.72-2.08,1.08l.09-.06c-.84,.06-1.6,.28-2.09,1.05l.09-.06c-.83,.08-1.69,.12-2.11,1.03l.1-.08c-3.03,1.02-6.06,2.04-9.1,3.07l.11-.09c-21.34,3.43-42.84,1.82-64.27,1.93-29.81,.15-59.62-.32-89.43-.33-134.61-.04-269.21-.02-403.82-.04-3.49,0-6.98-.31-10.47-.48,.07-4.43,3.7-7.25,5.03-11.16,2.49-7.33,5.4-14.51,8.14-21.76h17.95c1.92,1.14,4.04-.28,5.99,.45,5.61,.87,11.22,.89,16.83-.01,.4,0,.8,0,1.19,0,12.62,.99,25.23,.83,37.85,.08h.08c5.86,.75,11.73,.85,17.59-.03l.06-.04c.94,2.88,3.37,1.47,5.02,1.47,30.49,.1,60.98,.04,91.47,.12,5.35,.01,10.55-.99,15.81-1.64,1.98-.15,3.95-.29,5.93-.44,3.37,0,6.74,.02,10.11,.03,2.98,0,6.08,1.19,8.83-.93l9.66,.1c3.24,1.36,6.52,3.06,9.17-1.01,3.15,.89,6.38-2.27,9.51,.17,2.5,3.37,5.57,2.18,8.52,.9,.55-.24,.02-1.18-.54-1.62,5.41-2.73,11.44-1.96,17.11-2.39,16.17-1.21,32.24-3.37,48.28-5.48,20.15-2.65,40.18-6.26,59.81-11.75,31.55-8.82,61.23-20.94,83.54-46.36,5.71-6.51,10.43-13.63,14.22-21.45,7.3-15.08,8.88-31.47,10.67-47.68,1.77-16.1,2.62-32.33,3.06-48.52,.53-19.23,1.75-38.45,1.91-57.65,.23-28.57,1.72-57.2-.89-85.73-1.31-14.26-4.98-27.99-13.11-40.2-2.17-3.26-5.19-6.13-5.81-10.3,.55-.7,2.09-.57,1.83-1.87-.2-.97-1.23-.8-2-.84-1.6-.08-3.21-.16-4.81-.23-1.87-2.31-3.42-5.01-5.66-6.86-11.15-9.17-23.04-17.18-36.52-22.72-4.38-1.8-9.17-2.99-12.86-6.28,2.34-2.26,5.27,1.5,7.61-.74,11.91-.08,23.83-.17,35.74-.25Zm89.57,310.62q-2.04,5.78,.16,10.46c1.41-3.32,1.32-6.42-.16-10.46Zm-251.66,108.3c-5.42-1.76-7.62-1.63-10.64,.51,3.49,.49,6.64,.98,10.64-.51Zm200.86-380.52c-3.88-1.79-7.05-1.94-10.85,.06,3.82,1.05,6.99,1.05,10.85-.06Zm50.44,339.21c2.1-4.62,2.06-6.52-.23-9.61-1.07,3.29-1.34,6.43,.23,9.61Zm-2.06,8.36c-2.7,2.95-3.8,5.69-4.37,9.94,3.34-3.01,5.2-5.4,4.37-9.94Zm2.29-254.7c1.29-2.87,2.09-5.75-.26-8.9-1.01,3.21-1.04,6.05,.26,8.9Zm-.1,170.61c1.62-3.65,2.12-6.58,.01-9.84-1.67,3.06-1.33,5.88-.01,9.84Zm-.26,46.09c-.72,3.95-1.24,6.66,.48,9.95,1.5-3.44,1.66-6.15-.48-9.95Zm-82.64,70.8c-2.68-1.15-5.36-1.71-8.71,.28,3.42,1.05,6.06,1.2,8.71-.28Zm83.02-239.93c-1.54,3.23-1.95,5.94,.09,8.99,1.7-2.91,1.39-5.5-.09-8.99Zm-.12-36.1c-1.47,3.12-1.75,5.82,.32,9.09,1.15-3.31,1.81-6.02-.32-9.09Zm-15.45-92.6c-2.17-3.42-4.39-5.36-8.18-5.86,1.94,3.07,4.29,4.7,8.18,5.86Zm-16.41-9.51c-3.22-2.46-5.89-3.18-9.58-2.14,2.89,2.11,5.57,2.71,9.58,2.14Zm31.75,63.13c-1.21,3.15-1.04,5.89,.09,9.33,1.81-3.45,1.89-6.2-.09-9.33Zm.3,159.31c1.36-2.55,1.78-5.1-.4-8.02-.8,3-1.09,5.5,.4,8.02Zm-130.56,155.6c3.76,1.48,6.44,1.81,10.25-.35-3.87-.79-6.55-1.03-10.25,.35Zm19.63,.31q6.15,1.37,8.66-1.22c-2.9,.24-5.48-.76-8.66,1.22Zm110.47-258.19c-.75,3.18-1,5.8,.03,8.74,2.09-3.87,2.09-4.34-.03-8.74Zm.57,85.98c1.26-4.21,1.37-6.76-.17-9.1-1.1,2.67-1.4,5.24,.17,9.1Zm-26.6,166.76c-3.83,1.23-7.05,.84-9.18,4.09,3.63,.3,6.24-.65,9.18-4.09Zm26.68-207.02c.76-2.48,1.77-4.93-.44-7.63-1.08,2.87-1.21,5.29,.44,7.63Zm-216.42,212.29c-2.69-1.11-5.34-1.73-8.91,.34,3.61,.82,6.27,.82,8.91-.34Zm57.66-.2c-2.75-.44-5.52-1.71-8.88,.51,3.5,1.03,6.22,1.01,8.88-.51Zm86.64,.49c2.41,.27,4.93,1.72,8.07-1.22-3.41,.07-5.88-.83-8.07,1.22Zm60.02-15.79c-4.47,1.57-4.8,1.91-5.44,5.65,2.64-1.18,4.37-2.86,5.44-5.65Zm5.91-339.5c.44-3.47-.6-5.59-4.44-7.32,1.25,3.38,2.46,5.4,4.44,7.32Zm-236.49,355.23c3.3,.96,5.63,.93,8.89,.06-3.25-1.79-5.58-1.79-8.89-.06Zm38.49,.14c2.29,.09,4.84,1.64,7.93-1.34-3.39,.18-5.76-.87-7.93,1.34Zm158.26-1h-7.86c2.59,1.48,5.17,2.69,7.86,0Zm-94.67,.51c-2.32-1-4.66-1.64-7.42,.48,2.92,.69,5.18,.83,7.42-.48Z"/><path class="cls-1" d="M634.89,933.84c-2.74,7.25-5.65,14.43-8.14,21.76-1.33,3.91-4.96,6.73-5.03,11.16-.72,.47-1.21,1.07-1.11,2l.12-.04c-.77-.04-.95,.49-1.05,1.09l.05-.08c-.9,.41-1.21,1.12-1.08,2.06l.08-.09c-.75-.02-.95,.49-1.05,1.1l.06-.08c-.88,.42-1.16,1.15-1.09,2.06l.09-.08c-.72,.01-.93,.52-1.05,1.1l.06-.08c-.86,.42-1.18,1.14-1.09,2.06l.09-.08c-.73,0-.93,.51-1.06,1.09l.06-.08c-.86,.42-1.18,1.14-1.09,2.06l.08-.09c-.73,0-.96,.49-1.06,1.1l.05-.08c-.9,.4-1.22,1.11-1.09,2.06l.1-.08c-.76-.03-.97,.47-1.06,1.09l.08-.08c-.35,.37-.69,.73-1.04,1.1l.05-.07c-.79,.45-1.16,1.13-1.1,2.04l.08-.08c-.7,.02-.96,.48-1.07,1.09l.05-.08c-.87,.42-1.35,1.03-1.11,2.05l.1-.09c-.82-.09-1.02,.43-1.06,1.1v-.17c-5.25,6.42-10.88,12.46-17.12,17.92l.18,.11c-1.01-.23-1.61,.3-2.04,1.12l.08-.05c-.45,.35-.89,.71-1.34,1.06-10.75,7.5-21.42,15.13-33.33,20.77-39.54,18.71-79.79,18.77-120.57,4.5-3.58-1.25-6.94-3.23-10.86-3.45-1.05-.8-1.99-1.81-3.16-2.37-13.25-6.38-25.08-14.94-35.48-25.16-4.77-4.68-9.65-5.42-15.58-5.28-6.78,.16-13.5,1.71-20.3,.98-3.64-.39-4.49,1.25-4.42,4.59,.19,9.12,.09,18.25,.1,27.38-27.33,0-54.67,0-82,0-.01-9.31,.14-18.63-.11-27.94-.1-3.74,2.09-5.15,4.78-4.71,9.29,1.5,18.58,.5,27.86,.65,14.48,.23,28.96,.1,43.44,0,1.71-.01,4.21,1.25,4.92-1.81,11.06,0,22.12,0,34.31,0-9.09-10.93-17.03-21.25-23.52-32.58-.66-1.15-1.49-1.2-2.9-.86-5.72,1.4-11.57,1.88-17.4,.94-5.21-.84-6.39-.09-6.41,4.97-.03,9.14,0,18.27,0,27.41-25.32,0-50.64,.01-75.96,0-6.3,0-7-.68-7.02-6.77-.02-6.83-.06-13.65,.01-20.48,.05-4.52,2.33-6.54,6.69-5.21,5.12,1.55,10.04-1.36,15.24,.11,2.28,.65,4.18-1.91,4.1-5.05-.17-7.15,.01-14.32-.08-21.47-.05-4.16,1.21-5.88,5.92-5.43,3.66,.35,7.43-.15,11.22,.16,3.1,.25,5-1.78,4.93-5.45-.16-9.32-.03-18.64,0-27.97,8.94-.09,17.87-.14,26.81-.32,1.7-.03,3.68,.82,5.08-.99,2.64-.07,5.26-.25,7.85,.67,1.92,.68,3.04-.06,3.28-2.34,.41-3.93,1.03-7.81,1-11.8-.03-4.27-.68-8.61,.56-12.83,1.27-4.32-.78-6.2-4.82-6.66-5.75-.65-7.79,.63-7.82,5.15-.06,9.27-.03,18.55-.04,27.82-27.3-.07-54.6-.13-81.9-.2,0-8.99,.1-17.98-.08-26.97-.07-3.71,1.33-5.04,4.99-4.92,5.82,.2,11.66,.04,17.49,.06,4.36,.02,6.84-1.5,6.64-6.47-.29-6.81-.04-13.65-.09-20.48-.04-5.37-1.54-6.88-6.71-7.04q-7.27-.23-7.28-7.53c0-5.99,.29-12.01-.09-17.98-.32-4.99,1.29-6.64,6.43-6.58,24.32,.25,48.65,.11,72.97,.11,1.17,0,2.33-.05,3.5-.07,.05,9.15,.06,18.3,.19,27.45,.02,1.79-.92,4.31,2.28,4.59,2.76,.24,5.17,.06,6.63-3.03,5.68-12.02,12.23-23.43,21.01-33.61,20.43-23.68,44.61-41.43,75.11-49.97,5.04-1.41,10.46-2.03,14.9-5.24,23.02-3.6,45.88-3.11,68.45,2.99,6.69,1.81,13.2,4.26,19.79,6.42,.93,.66,1.78,1.53,2.8,1.97,17.43,7.47,32.82,17.88,46.32,31.23,4.36,4.32,7.68,9.59,12.64,13.31,.34,.69,.69,1.38,1.03,2.07,2.01,2.63,4.02,5.26,6.03,7.89,.35,.34,.71,.67,1.06,1.01,3.74,7.22,7.93,14.25,11.16,21.69,13.5,31.07,17.43,63.18,9.72,96.42-.22,.67-.43,1.35-.65,2.02-.07,1.26-.13,2.52-.2,3.78Zm-149.3,100.94c78.95,.77,140.85-62.83,140.98-139.98,.13-78.62-61.71-138.89-136.76-140.8-82.98-2.11-144.8,63.79-144.77,140.33,.03,78.8,63.36,141,140.56,140.45Z"/><path class="cls-4" d="M1214.68,952.27c3.15-3.82,6.3-7.64,9.45-11.46,1.16-.22,1.52-1.03,1.53-2.09l-.1,.02c19.27,.03,38.42,2.17,57.63,3.21,16.53,.89,33.06,2.15,49.51,3.99,27.94,3.14,55.96,5.89,83.3,12.92,4.02,1.03,8.07,2.17,11.56,4.52,4.24,2.85,4.04,5.52-.26,8.17-9.75,6.02-20.91,7.25-31.79,9.15-13.02,2.27-26.15,3.96-39.26,5.71-7.38,.99-14.8,1.68-22.22,2.36-15,1.37-30.01,2.7-45.02,3.92-9.91,.81-19.83,1.55-29.76,2.05-16.25,.82-32.52,1.13-48.75,2.18-14.91,.96-29.83,1.41-44.75,2.01-19.92,.8-39.85,1.17-59.75,2.14-12.98,.64-25.96-.13-38.87,.87-18.63,1.44-37.27,.16-55.87,.96-45.44,1.95-90.91,1.19-136.34,.55-29.79-.42-59.59,.21-89.36-.77-20.92-.69-41.85-1.21-62.75-2.08-17.42-.72-34.86-1.15-52.25-2.03-18.68-.95-37.43-1.48-56.04-3.69-1.81-.22-3.67,0-5.49-.11-2.08-.13-4.02-.59-4.39-3.16v.17c.37-.37,.72-.73,1.07-1.1l-.1,.09c.97-.36,1.13-1.16,1.11-2.05l-.05,.08c.36-.36,.71-.72,1.07-1.08l-.08,.08c.96-.36,1.08-1.18,1.1-2.04l-.05,.07c.35-.37,.69-.73,1.04-1.1l-.08,.08c.35-.36,.7-.73,1.06-1.09l-.1,.08c.97-.36,1.11-1.17,1.09-2.06l-.05,.08c.35-.37,.7-.73,1.06-1.1l-.08,.09c.95-.38,1.1-1.18,1.09-2.06l-.06,.08c.35-.36,.7-.73,1.06-1.09l-.09,.08c.97-.37,1.09-1.18,1.09-2.06l-.06,.08c.35-.37,.7-.73,1.05-1.1l-.1,.08c.97-.37,1.1-1.18,1.09-2.06l-.06,.08c.35-.37,.7-.73,1.05-1.1l-.08,.09c.96-.38,1.1-1.18,1.08-2.06l-.05,.08c.35-.36,.7-.73,1.05-1.09l-.12,.04c2.96,0,5.93,.02,8.89,.02,148.65,0,297.3,0,445.95,0,33.33,0,66.66,.07,99.99-.07,4.86-.02,9.94-.05,14.28-3.03l-.11,.09c3.38,0,6.81,.16,9.1-3.07l-.1,.08c.86-.03,1.72-.06,2.11-1.03l-.09,.06c.84-.06,1.7-.09,2.09-1.05l-.09,.06c.85-.06,1.71-.1,2.08-1.08l-.1,.06c.89-.02,1.73-.12,2.07-1.13l-.12,.14c.38-.33,.77-.67,1.15-1l-.06,.04c.85-.08,1.69-.17,2.02-1.16l-.12,.12c.38-.36,.76-.71,1.13-1.07l-.09,.06c.92,0,1.76-.14,2.01-1.23l-.11,.18c.38-.37,.77-.74,1.15-1.1l-.06,.18c.36-.51,.73-1.02,1.1-1.53Z"/><path class="cls-7" d="M340.83,1033.71c-.01-9.13,.09-18.26-.1-27.38-.07-3.34,.78-4.98,4.42-4.59,6.8,.73,13.52-.82,20.3-.98,5.93-.14,10.81,.6,15.58,5.28,10.4,10.21,22.22,18.78,35.48,25.16,1.16,.56,2.11,1.57,3.16,2.37-12.97,.11-25.94,.28-38.91,.3-13.31,.02-26.62-.1-39.93-.16Z"/><path class="cls-9" d="M585.69,1010.76c.43-.83,1.02-1.35,2.04-1.12-.35,.98-1.14,1.14-2.04,1.12Z"/><path class="cls-9" d="M584.43,1011.76c.45-.35,.89-.71,1.34-1.06-.45,.35-.89,.71-1.34,1.06Z"/><path class="cls-7" d="M613.8,808.92c-2.01-2.63-4.02-5.26-6.03-7.89,1.79-1.89,4.09-1.01,6.15-1.01,56.27-.05,112.55-.04,168.82-.04,1.59,0,3.18,0,4.77,0l-.04-1.01h-180.73c-4.96-3.72-8.27-9-12.64-13.31-13.5-13.35-28.89-23.76-46.32-31.23-1.03-.44-1.87-1.3-2.8-1.97,1.29-11.66,.35-23.36,.65-35.04,.04-1.8,.16-3.61,.24-5.41,37.58,0,75.16,0,112.74,0,0-.34,0-.67,0-1.01h-112.7c-.17-3.47-.72-6.98-.46-10.42,.84-10.85,7.73-17.44,18.65-17.19,5.08,.12,5.82-1.54,5.81-6.12-.15-35.76-.03-71.52,.06-107.28,.04-14.33,4.7-27.33,13.89-38.04,10-11.65,23.78-16.38,38.9-16.9,27.61-.95,55.24-.29,82.86-.44,1.16,0,2.31-.1,3.47-.16,.95,.21,1.91,.59,2.87,.59,54.28,0,108.57-.05,162.85-.08,7.31,0,14.61,0,21.92-.01,4.75-.09,9.59,1.11,14.22-.89,4.24,1.97,8.7,.85,13.07,.91,28.08,.04,56.16,.08,84.25,.12l56.43,.05c3.69,3.29,8.48,4.48,12.86,6.28,13.48,5.54,25.36,13.55,36.52,22.72,2.25,1.85,3.79,4.55,5.66,6.86-1.2,.6-2.23,1.42-.22,2.1,1.64,.56,3.46,.58,5.21,.84,.61,4.17,3.63,7.04,5.81,10.3,8.13,12.21,11.8,25.94,13.11,40.2,2.62,28.52,1.13,57.16,.89,85.73-.16,19.21-1.38,38.43-1.91,57.65-.44,16.2-1.29,32.43-3.06,48.52-1.78,16.21-3.37,32.6-10.67,47.68-3.78,7.82-8.5,14.94-14.22,21.45-22.31,25.42-52,37.54-83.54,46.36-19.63,5.49-39.66,9.1-59.81,11.75-16.04,2.11-32.1,4.27-48.28,5.48-5.67,.42-11.69-.35-17.11,2.38-2.63,.58-5.4-.39-7.98,.71-3.13-2.44-6.35,.72-9.51-.17-3.06,.25-6.35-1.47-9.17,1.01-3.22-.03-6.44-.07-9.66-.1-3.1-1.19-6.29-3.24-8.83,.93-3.37,0-6.74-.02-10.11-.03-1.53-3.25-4.27-2.03-6.71-1.76-.69,.07-1.82,.36-1.35,1.34,.24,.51,1.39,.58,2.14,.86-5.26,.65-10.45,1.65-15.81,1.64-30.49-.08-60.98-.01-91.47-.12-1.65,0-4.08,1.41-5.02-1.47,1.28-.71,3.36,.24,4.06-2.06h-7.91c.74,2.3,2.75,1.17,3.78,2.1-5.86,.88-11.73,.78-17.59,.03,1.1-.94,3.26,.2,4.11-2.09-3.05-.38-5.75-1.04-8.54,.55,1.4,1.5,3.1,.81,4.36,1.54-12.62,.75-25.24,.91-37.85-.08,.98-.63,2.6,.05,3.45-1.73-2.89-.84-5.42-1.37-8.39,.75,1.58,.41,2.66,.7,3.75,.98-5.61,.91-11.22,.88-16.83,.02,.76-.63,2.54,.04,2.35-2.05-2.91,0-6.14-2.37-8.34,1.6h-17.95c.07-1.26,.13-2.52,.2-3.78,2.66,.72,5.14,2.69,8.4,1.32-2.31-2.23-5.12-2.58-7.76-3.34,7.71-33.24,3.78-65.36-9.72-96.42-3.23-7.44-7.41-14.47-11.16-21.69,60.21,0,120.42,0,180.64,0,0-.34,0-.67,0-1.01h-181.69Zm-5.43-125.05c1.16,.07,2.32,.19,3.49,.19,58.43,.01,116.87,.01,175.3-.02,.8,0,1.86,.52,2.66-1h-180.95c-.56-2.27,.79-4.93-1.69-7.18-.67,3.03-3.46,5.96,1.19,8Zm173.38,59.16c.73-21.37-17.73-35.04-33.28-35.05-20.21,0-35.3,14.81-35.44,34.63-.13,18.5,15.56,33.93,34.58,34.01,18.88,.08,34.13-14.93,34.14-33.6Zm29.96,39.66c.24,.04,.49,.07,.73,.11v-72.64c-.64,.78-.72,1.58-.72,2.37,0,23.39,0,46.77,0,70.16Zm286.09-229.93c4.25,.74,7.52,1.01,10.68-.65-3.26-.97-6.5-1.54-10.68,.65Zm-157.87-1.39c-4.27,0-7.44-.98-10.49,.68-.06,.03,.19,1.09,.44,1.16,3.1,.89,6.14,.96,10.05-1.84Zm45.07,1.15c3.73,1.23,6.81,1.01,9.86-.1-3.13-1.52-6.22-1.77-9.86,.1Zm-82.98,.04c-4.45-1.73-7.62-1.91-11.4,.01,3.77,1.05,6.91,1.07,11.4-.01Zm-118.43,380.48c4.36,1.26,7.44,1.2,11.43,.21-3.94-1.96-7.02-1.74-11.43-.21Zm-6.19-380.45c4.01,.95,7.17,1.19,11.03-.13-3.91-1.67-7.07-1.8-11.03,.13Zm-170.11,84.39c-1.51,3.27-1.79,6.25,.04,9.48,2.11-3.23,1.78-6.2-.04-9.48Zm39.12-84.41c4.53,2.02,4.93,1.98,8.23-1.15-3.07-.4-5.74-.55-8.23,1.15Zm-38.83,57.48c1.71-3.56,1.65-6.47-.41-9.85-.77,3.45-1.43,6.38,.41,9.85Zm406.38-58.1c-2.83-.58-5.7-1.55-8.88,.82,3.51,.63,6.29,1.11,8.88-.82Zm37.06-.7c-2.92,.25-5.66-.96-8.14,.85-.12,.09,.1,1.07,.34,1.16,2.59,.97,5.04,.45,7.38-.86,.1-.06,.11-.28,.42-1.15Zm-310.93,1.09c3.5,1.39,6.08,1.58,9.95-.91-4,.15-6.61-.58-9.95,.91Zm102.82-.03c-2.67-1.09-5.28-1.86-8.17,.28,2.97,1.12,5.6,.92,8.17-.28Zm66.25,.31c3.89,.71,6.52,1.3,10.37-.54-3.84-.96-6.47-1.44-10.37,.54Zm-216.48-.07c-4.82-1.81-5.27-1.79-8.62,.26,2.85,.64,5.38,.85,8.62-.26Zm68.17-.5c2.43,1.27,4.85,2.01,7.96,.15-3.07-1.24-5.53-.74-7.96-.15Zm35.32,.62c3.75,.87,6.38,.95,9.66-.19-3.27-1.82-5.88-1.56-9.66,.19Zm160.56-.1c-4.85-1.83-5.34-1.82-8.54,.11,2.65,.97,5.19,.86,8.54-.11Zm-190.54,380.58c2.65,.83,5.28,1.35,9.2-.55-4.11-.83-6.71-1.28-9.2,.55Zm-154.35-351.53c-3.36,3.15-4.8,5.49-2.47,8.72,.71-2.49,1.41-4.98,2.47-8.72Zm355.85-28.94c3.26,.77,5.92,1.08,9.38-.46-3.56-1.3-6.21-1.59-9.38,.46Zm-352.07,20.42c3.22-2.26,5.31-4.3,5.9-8.57-2.66,2.75-5.15,4.39-5.9,8.57Zm-8.4,45.87c-1.01,3.19-1.69,5.8,.19,8.5,1.81-2.74,1.82-5.32-.19-8.5Zm123.94-66.63c-3.73-1.39-6.23-1.73-9.22,.43,3.09,.6,5.57,.96,9.22-.43Zm-123.76,104.66c-1.49,2.92-1.92,5.37,.06,8,1.85-2.63,1.56-5-.06-8Zm149.85,276.1c-4.17-1.5-6.9-1.05-9.6-.13,2.78,.84,5.54,1.19,9.6,.13Zm47.44-.89c4.63,2.33,4.65,2.32,7.6,0h-7.6Zm255.89-379.73c3.3,1.19,5.96,1.02,9.19,.21-3.18-2.16-5.84-1.84-9.19-.21Zm-228.82,380.34c-3.47-1.1-5.89-1.63-8.89,.57,3.1,.61,5.52,1.05,8.89-.57Zm191.33-380.97c3.86,1.77,6.29,1.82,8.56,.08-2.48-.82-4.92-1-8.56-.08Zm-311.01-.24h-9.89c3.9,2.03,6.35,2.19,9.89,0Zm150.84,.09c-3.45-.73-5.94-.63-9.05-.16,3.04,2.47,5.53,2.21,9.05,.16Z"/><path class="cls-8" d="M874.77,514.96c-54.28,.04-108.57,.08-162.85,.08-.96,0-1.91-.39-2.87-.59-5.34-5.44-5.12-11.17-2.55-18.19,11.64-31.77,22.73-63.75,34.02-95.66,9.46-26.74,18.9-53.49,28.37-80.23,1.46-4.12,3.46-7.91,6.99-10.68,8.79-2.16,16.31,2.29,24.03,4.98,26.81,9.32,53.46,19.09,80.21,28.58,46.19,16.38,92.41,32.65,138.61,49.01,22.39,7.93,44.75,15.95,67.13,23.91,1.56,.55,3.19,.88,4.79,1.31,10.57,3.88,21.12,7.82,31.72,11.62,9.97,3.58,12.31,7.97,8.89,17.83-6.9,19.9-13.95,39.75-20.91,59.63-.87,2.5-1.56,5.07-2.34,7.6-11.92,.08-23.84,.17-35.75,.25,.82-2.69,1.57-5.4,2.46-8.07,1.1-3.32,.01-5.45-3.25-6.61-15.32-5.42-30.63-10.88-45.96-16.26-3.48-1.22-6.21-.39-7.52,3.43-3.24,9.41-6.51,18.8-9.77,28.2-28.08-.04-56.16-.08-84.25-.12-1.98-1.92-4.76-2.21-7.07-3.47-3.04-1.66-5.05-.75-6,2.56-4.63,2.01-9.46,.81-14.22,.89,.38-1.09,.7-2.21,1.16-3.27,2.28-5.32,1.71-6.5-3.59-8.34-18.31-6.35-36.64-12.64-54.86-19.22-6.53-2.35-5.35,3.61-6.37,6.03-1.21,2.85-5.23,7.08,.41,9.64,4.78,2.17,9.87,3.66,14.89,5.25,8.99,2.85,17.87,5.98,26.45,9.92Zm-113.94-57.85c-2.13-.37-3.64,.68-4.41,2.82-.61,1.71-1.01,3.51-1.73,5.17-1.93,4.46-.71,6.65,4.12,8.25,15.72,5.22,31.28,10.94,46.88,16.51,12.04,4.3,11.96,4.31,16.09-8,.94-2.8,.59-3.98-2.44-5.02-17.39-5.98-34.68-12.25-52.02-18.37-2.02-.71-4.03-1.61-6.48-1.37Zm88-101.17c.21-2.46-1.67-3.02-3.39-3.63-13.48-4.75-27-9.37-40.42-14.27-3.05-1.11-4.18-.19-5.09,2.51-1.91,5.66-3.87,11.32-6.05,16.88-1.35,3.44-.41,5.19,3.04,6.34,7.56,2.52,15.04,5.27,22.53,7.99,6.27,2.27,6.69,2.07,8.45-4.54,2.27-8.5,3.82-9.23,11.76-5.46,5.81,2.76,9.16,.63,9.17-5.81Zm17.41,43.24c3.85,.19,5.11-1.75,5.95-4.02,1.9-5.12,3.54-10.35,5.62-15.4,1.38-3.38,.31-4.7-2.94-5.73-6.63-2.11-13.14-4.61-19.7-6.95-9.01-3.21-9.18-5.5-12.33,5.91-1.54,5.57-3.49,6.32-8.78,4.04-1.06-.46-2.07-1.05-3.11-1.57-2.91-1.46-5.48-2.47-6.98,1.97-1.23,3.65-2.27,6.37,2.8,8.05,11.8,3.91,23.44,8.32,35.15,12.48,1.71,.61,3.49,.99,4.32,1.23Z"/><path class="cls-1" d="M444,470.19c.23,.38,.46,.76,.68,1.14-1.73,1.52-3.83,.83-5.75,.83-28.65,.05-57.29,.12-85.94-.06-4.19-.03-5.45,1.19-5.28,5.33,.31,7.48,.21,14.98,.03,22.46-.08,3.17,.84,4.36,4.2,4.37,25.94,.06,51.89-.69,77.81,.94-.23,.33-.47,.66-.7,.99-35.65,0-71.31,.03-106.96-.1-3.71-.01-4.45,1.43-4.36,4.71,.19,6.99,.36,14-.04,20.97-.26,4.59,1.41,5.49,5.67,5.47,33.15-.17,66.31-.1,99.46-.06,1.78,0,3.81-.63,5.85,1.1-2.15,1.25-3.99,.84-5.72,.85-14.99,.03-29.99,.11-44.98-.04-3.86-.04-5.39,1.18-5.26,5.16,.23,7.15,0,14.32,.08,21.48,.03,3.78-1.72,5.46-5.47,5.42-6.33-.07-12.67,.22-18.99-.1-4.52-.23-5.79,1.57-5.62,5.83,.27,7.15,.09,14.32,.07,21.48-.02,5.45-1.18,6.61-6.78,6.72-3.5,.07-7,.15-10.49-.02-3.38-.16-4.84,1.09-4.76,4.62,.16,7.32,.13,14.65,.01,21.98-.05,3.2,1.18,4.53,4.41,4.45,4.99-.14,10,.05,14.99-.06,4.04-.08,5.71,1.77,5.65,5.75-.11,7.49-.14,14.99,0,22.48,.08,4.37-1.96,5.92-6.1,5.82-5.99-.15-12,.09-17.99-.1-3.65-.12-5.07,1.2-4.99,4.92,.2,8.99,.11,17.98,.14,26.97-27.67,.02-55.34,.05-83.01,.07-.03-9.16,.08-18.32-.15-27.47-.1-3.94,1.52-5.44,5.25-5.41,6.5,.06,13-.15,19.5,.08,4.02,.14,5.35-1.69,5.33-5.35-.06-7.16-.05-14.32,0-21.48,.03-4.45-2.22-6.34-6.52-6.23-4.66,.12-9.32,.08-13.97,.29-3.6,.16-5.73-.83-5.56-4.97,.2-4.99,.04-9.99,.05-14.99,.02-11.69-2.39-12.59,13.21-12.28,.5,0,1,.02,1.49,.1,5.75,.84,7.22-.31,7.27-6,.07-7.33,.26-14.67-.07-21.98-.2-4.31,1.41-5.41,5.44-5.23,6.49,.29,12.99,.06,19.49,.08,4.11,.02,6.18-1.95,6.15-6.09-.02-2.16-.09-4.33,.02-6.49,.31-6.7-.83-13.47,.86-20.41h-4.94c-14.5,0-29,0-43.49,0-7.23,0-7.42-.2-7.43-7.15,0-6.33-.02-12.66,0-18.99,.02-5.9,.81-6.73,6.56-6.75,6.83-.03,13.67-.08,20.5,.03,2.48,.04,3.1-.43,3.1-3.26-.01-10.18-1.02-20.41,.67-30.83-3.59,0-7.25-.15-10.89,.04-3.66,.19-5.06-1.25-4.99-4.94,.16-9.32,.04-18.65,.03-27.98,27.35,0,54.69-.02,82.04-.02,0,8.98,.18,17.96-.08,26.93-.11,3.88,.99,5.14,5,5.12,35.43-.16,70.86-.11,106.29-.12Z"/><path class="cls-7" d="M316.89,701.88c-.03-8.99,.06-17.98-.14-26.97-.08-3.72,1.33-5.04,4.99-4.92,5.99,.19,12-.04,17.99,.1,4.15,.1,6.19-1.45,6.1-5.82-.14-7.49-.12-14.99,0-22.48,.06-3.99-1.61-5.84-5.65-5.75-5,.1-10-.08-14.99,.06-3.23,.09-4.47-1.25-4.41-4.45,.12-7.32,.15-14.65-.01-21.98-.08-3.52,1.38-4.77,4.76-4.62,3.49,.16,7,.09,10.49,.02,5.6-.11,6.76-1.27,6.78-6.72,.02-7.16,.2-14.33-.07-21.48-.16-4.26,1.11-6.06,5.62-5.83,6.32,.32,12.66,.03,18.99,.1,3.75,.04,5.5-1.64,5.47-5.42-.07-7.16,.16-14.32-.08-21.48-.13-3.98,1.4-5.2,5.26-5.16,14.99,.16,29.99,.08,44.98,.04,1.73,0,3.57,.41,5.72-.85-2.04-1.73-4.07-1.1-5.85-1.1-33.15-.05-66.31-.11-99.46,.06-4.26,.02-5.93-.88-5.67-5.47,.4-6.97,.23-13.98,.04-20.97-.09-3.27,.65-4.72,4.36-4.71,35.65,.13,71.31,.09,106.96,.1,.94,8.62,.7,17.27,.47,25.9-.11,4.24,.81,5.65,5.4,5.6,14.8-.16,29.6,.41,44.4,.34,4.13-.02,5.16,1.5,5.07,5.23-.17,7.65-.19,15.3,0,22.95,.11,4.38-1.72,5.91-5.98,5.73-6.64-.28-13.31-.09-19.96-.28-3.64-.1-5,1.33-4.9,5.01,.21,7.64-.05,15.3,.11,22.95,.07,3.4-1.04,4.87-4.59,4.68-4.15-.22-8.32,.02-12.48-.07-3.27-.07-4.92,1.15-4.86,4.67,.13,7.64,.1,15.29,0,22.94-.04,3.16,1.18,4.51,4.43,4.42,5.65-.15,11.32,.06,16.97-.08,3.16-.07,4.55,1.07,4.5,4.34-.12,8.31-.16,16.63,.01,24.94,.08,3.78-1.94,4.44-5.02,4.38-6.48-.13-12.96-.04-19.43-.27-4.07-.15-5.61,1.4-5.52,5.55,.2,8.97,0,17.96-.04,26.94-16.96,0-33.93,0-50.89-.03-19.96-.04-39.93-.11-59.89-.16Z"/><path class="cls-7" d="M456.73,743.04c-4.45,3.2-9.87,3.83-14.9,5.24-30.5,8.54-54.68,26.29-75.11,49.97-8.78,10.18-15.33,21.59-21.01,33.61-1.46,3.09-3.87,3.28-6.63,3.03-3.2-.28-2.25-2.8-2.28-4.59-.13-9.15-.13-18.3-.19-27.45,.11-.29,.19-.59,.23-.9,7.91,0,15.83,0,23.74,0l-.02-.82h-23.89c-31.05-.1-62.1-.21-93.16-.3q-6.61-.02-6.61-6.83c0-6.98,.14-13.97-.06-20.95-.1-3.49,1.42-4.86,4.67-4.86,5.32,0,10.65-.05,15.97,0,3.76,.04,5.45-1.76,5.42-5.49-.06-7.15,.14-14.3-.08-21.44-.12-3.76,1.52-5.12,4.99-5.06,3.33,.05,6.66-.13,9.98,.04,4.57,.23,6.2-1.91,6.14-6.31-.11-8.64,.07-17.29,.12-25.93,47.94-.2,95.88,.47,143.81-1.37,14.31,.13,28.62,.26,42.93,.38,6.51,.06,7.01,.62,6.96,7.23-.05,6.99-.21,13.98,.06,20.95,.16,4.21-1.41,5.72-5.5,5.42-3.31-.24-6.66-.09-9.99-.04-5.71,.08-6.06,.5-5.63,6.46Z"/><path class="cls-9" d="M566.89,371.16c28.42,1.15,51.23,25.32,49.61,54.87-1.59,28.86-27.11,51.24-55.62,48.92-30.78-2.5-49.9-26.75-48.61-53.73,1.45-30.41,25.69-51.97,54.62-50.06Zm-1.84,71.08c-1.06-1.95-1.77-3.06-2.3-4.25-5.48-12.26-10.97-24.51-16.36-36.8-1.18-2.7-2.22-5.65-5.89-4.2-3.58,1.42-2.79,4.47-1.62,7.18,2.56,5.93,5.27,11.81,7.89,17.71,4.45,9.99,8.79,20.04,13.35,29.98,2.24,4.88,5.8,5.58,8,1.57,6.46-11.78,12.6-23.74,18.92-35.59,1.21-2.26,.51-3.9-1.4-5.08-2.07-1.27-3.83-.43-5.19,1.35-.5,.65-.88,1.41-1.27,2.13-4.59,8.44-9.17,16.87-14.13,25.99Z"/><path class="cls-7" d="M429.76,505.21c-25.92-1.63-51.87-.88-77.81-.94-3.36,0-4.27-1.19-4.2-4.37,.18-7.49,.28-14.99-.03-22.46-.17-4.14,1.09-5.36,5.28-5.33,28.65,.17,57.29,.11,85.94,.06,1.92,0,4.02,.68,5.75-.83,2.03-.13,4.07-.27,6.1-.4,8.09,.32,9.78,2.02,8.74,9.87-.83,6.3-.76,12.6-.41,18.87,.22,3.99-1.09,5.42-4.96,5.38-8.13-.07-16.27,.09-24.4,.15Z"/><path class="cls-9" d="M722.76,84.33c.16,.02,.33,.06,.5,.07q11.37,.35,11.37,11.69c0,18.14-.11,36.28,.09,54.42,.04,3.9-.96,5.47-4.98,4.99-2.29-.27-4.65,.05-6.98,.1-1.33-.06-2.66-.22-3.98-.14-3.14,.18-4.71-1.3-4.71-4.37-.02-20.76-.11-41.52,.05-62.28,.05-6.3,5.29-3.86,8.64-4.47Z"/><path class="cls-9" d="M701.66,164.44c1.54,1.52,3.48,.84,5.23,.85,43.66,.17,87.31,.28,130.97,.46,6.65,.03,13.3,.47,19.95,.54,6.39,.07,7.24-.85,7.24-7.16,0-45.62-.01-91.24,.04-136.86,0-3.84,.34-7.6-5.73-5.43,.98-6.49,4.25-11.19,6.86-16.84,3.51,5.11,5.74,10.26,7.29,16.22-5.52-.59-5.96,2.55-5.95,6.77,.11,46.13,.07,92.26,.06,138.38q0,7.04-6.88,7.05c-28.33,.05-56.65,.11-84.98,.16-17.62-.15-35.25-.25-52.87-.47-5.97-.08-11.94-.47-17.91-.67-2.37-.08-4.53,.2-3.78,3.53,.71,3.14-1.34,2.38-2.89,1.93-4.91-1.45-9.6-3.41-14.76-6.62,5.53-2.33,10.33-4.87,15.45-6.36,4.6-1.34,.27,3.84,2.67,4.53Z"/><path class="cls-3" d="M427.9,702.63c-47.92,1.85-95.87,1.17-143.81,1.37-22.72-.04-45.44-.07-68.16-.11-.11-.21-.14-.43-.09-.66,5.88-2.29,12.05-.59,18.04-1.29,27.67-.02,55.34-.05,83.01-.07,19.96,.06,39.93,.13,59.89,.16,16.96,.03,33.93,.02,50.89,.03,.24,.13,.31,.31,.22,.57Z"/><path class="cls-6" d="M545.88,710.99h112.7c0,.34,0,.67,0,1.01-37.58,0-75.16,0-112.74,0,.01-.34,.02-.67,.03-1.01Z"/><path class="cls-9" d="M1086.7,188.34c12.61,8.2,21.83,19.11,24.88,34.05,4.48,21.92-2.06,40.28-19.42,54.62-.89,.73-1.74,1.51-2.61,2.27-7.45,3.64-14.81,7.25-23.25,8.39-27.1,3.66-55.43-14.9-59.59-45.16-3.13-22.78,5.49-41.04,24.17-53.07,15.93-10.25,33.97-11.77,51.83-3.09,1.33,.65,2.66,1.33,3.98,1.99Zm-14.88,35.82c.29-5.44-2.77-8.22-6.81-9.75-3.65-1.39-6.82-2.5-6.41-7.37,.17-2-1.53-2.88-3.46-2.56-1.77,.3-3.61,1.52-3,3.26,1.85,5.29-1.24,7.29-5.22,8.99-1.99,.85-2.98,2.33-1.73,4.34,1.16,1.86,2.69,1.29,4.28,.25,2.35-1.55,4.75-2.99,7.8-2.92,2.6,.07,5.38-.02,6.16,2.97,.76,2.91,.83,5.91-2.71,7.66-3.42,1.69-6.62,3.8-9.97,5.64-3.85,2.11-6.14,5.41-5.9,9.66,.28,4.93,2.63,8.97,7.77,10.5,3.72,1.1,5.97,3.15,6.55,7.18,.24,1.65,1.04,3.82,3.68,2.82,1.83-.69,3.16-1.57,2.26-4.08-1.01-2.8,.48-4.78,3.01-6.03,1.64-.81,3.37-1.49,4.89-2.49,1.63-1.07,3.74-2.35,2.16-4.73-1.4-2.1-3.36-.98-4.83,.08-2.36,1.71-4.92,2.46-7.75,3.05-4.46,.93-7.51-.31-9.29-4.4-1.86-4.29,1.16-6.58,4.08-8.52,3.17-2.11,6.74-3.61,9.95-5.67,2.93-1.89,4.82-4.58,4.51-7.88Z"/><path class="cls-9" d="M849.61,93.58c0,18.47-.11,36.94,.07,55.41,.05,4.66-1.45,6.56-6.28,6.62-13.46,.16-14.36-.58-14.37-14.19,0-34.95,0-69.9,0-104.86,0-7.87,1.8-9.45,9.55-8.48,1.15,.14,2.31,.27,3.47,.34,5.53,.33,7.18,1.86,7.47,7.74,.25,5.15,.08,10.32,.08,15.48,0,13.98,0,27.96,0,41.94Z"/><path class="cls-9" d="M743.05,102.48c0-15.32,.1-30.64-.06-45.96-.05-4.43,1.27-6.12,6-6.11,14.12,.02,14.63,.29,14.63,14.39,0,27.65,0,55.29,0,82.94,0,7.35-.4,7.76-7.5,7.71-14.66-.11-13.04,1.87-13.06-12.99-.02-13.32,0-26.65,0-39.97Z"/><path class="cls-9" d="M820.62,112.72c0,12.29-.1,24.59,.06,36.88,.06,4.24-1.42,5.89-5.8,5.91-14.38,.06-14.38,.19-14.38-14.18,0-21.27,0-42.54,0-63.8,0-6.94,.19-7.12,6.83-7.13q13.41-.03,13.41,13.41c0,9.64,0,19.27,0,28.91h-.13Z"/><path class="cls-9" d="M771.5,128.94c0-7.32,.07-14.65-.03-21.97-.05-3.39,1.31-4.83,4.78-4.64,3.82,.2,7.67,.21,11.49,0,3.99-.22,4.89,2.04,4.72,5.28-.73,14.12-.76,28.24,.02,42.35,.2,3.59-1.08,5.72-5.15,5.51-3.66-.18-7.34-.23-10.99,.01-3.86,.25-4.93-1.62-4.88-5.08,.11-7.16,.03-14.31,.03-21.47Z"/><path class="cls-5" d="M233.88,701.95c-5.99,.7-12.16-1-18.04,1.29-14.15-.12-28.3-.24-42.45-.35-7.06-.05-7.75-.74-7.72-7.67,.03-6.99,.13-13.98-.04-20.96-.09-3.65,1.37-5.16,4.97-5.1,6.49,.1,13-.13,19.48,.11,3.56,.14,5.22-.78,5.13-4.65-.2-7.82-.15-15.64-.02-23.46,.05-3.2-1.16-4.53-4.38-4.45-5.33,.13-10.66-.08-15.98,.09-3.53,.12-5.25-1.05-5.19-4.82,.14-8.15,.12-16.31,.01-24.46-.05-3.49,1.48-4.73,4.85-4.59,3.99,.17,7.99-.04,11.99,.06,3.62,.09,5.27-1.49,4.87-5.13-.77-6.95,.51-13.9-.08-20.89-.45-5.31,1.69-6.97,6.96-6.35,6.32,.74,12.64,.14,18.95,.38,3.62,.14,5.05-1.57,4.99-5.14-.12-7.48-.13-14.97,0-22.45,.07-3.78-1.76-4.87-5.23-4.83-14.15,.15-28.3,.21-42.45,.23-6.4,0-7.73-1.25-7.28-7.68,.46-6.48,.49-12.92,0-19.4-.45-5.98,1.28-7.21,7.27-6.89,5.81,.31,11.65,.14,17.47,.21,3.65,.05,4.94-1.82,4.88-5.33-.13-7.49-.2-14.98,.02-22.46,.13-4.31-1.59-5.96-5.81-6.09-8.64-.26-8.9-.66-8.91-9.19,0-6.32,.1-12.65-.04-18.97-.08-3.76,1.37-5.46,5.25-5.47,21.14-.02,42.27-.05,63.4,.76,0,9.33,.13,18.65-.03,27.98-.06,3.7,1.33,5.14,4.99,4.94,3.64-.19,7.3-.04,10.89-.04-1.69,10.42-.68,20.65-.67,30.83,0,2.84-.61,3.31-3.1,3.26-6.83-.12-13.66-.06-20.5-.03-5.75,.03-6.54,.85-6.56,6.75-.02,6.33,0,12.66,0,18.99,0,6.95,.19,7.15,7.43,7.15,14.5,0,29,0,43.49,0h4.94c-1.69,6.94-.54,13.71-.86,20.41-.1,2.16-.03,4.33-.02,6.49,.03,4.14-2.04,6.1-6.15,6.09-6.5-.03-13.01,.21-19.49-.08-4.03-.18-5.64,.91-5.44,5.23,.33,7.31,.14,14.65,.07,21.98-.05,5.7-1.52,6.85-7.27,6-.49-.07-1-.09-1.49-.1-15.6-.31-13.19,.6-13.21,12.28,0,5,.15,10-.05,14.99-.17,4.15,1.96,5.13,5.56,4.97,4.65-.21,9.32-.17,13.97-.29,4.3-.11,6.55,1.78,6.52,6.23-.05,7.16-.05,14.32,0,21.48,.03,3.66-1.31,5.49-5.33,5.35-6.49-.23-13-.02-19.5-.08-3.73-.03-5.36,1.47-5.25,5.41,.23,9.15,.12,18.32,.15,27.47Z"/><path class="cls-7" d="M444,470.19c-35.43,.01-70.86-.03-106.29,.12-4.01,.02-5.11-1.25-5-5.12,.26-8.97,.08-17.95,.08-26.93,35.71-.2,71.41-.4,107.12-.63,2.66-.02,4.72,.57,4.67,3.72-.16,9.61-.38,19.23-.58,28.84Z"/><path class="cls-7" d="M323.81,999.78c0-9.14-.04-18.27,0-27.41,.02-5.06,1.2-5.81,6.41-4.97,5.84,.94,11.69,.46,17.4-.94,1.41-.34,2.24-.29,2.9,.86,6.5,11.33,14.43,21.65,23.52,32.58-12.19,0-23.25,0-34.31,0-5.31-.04-10.61-.08-15.92-.12Z"/><path class="cls-4" d="M238.85,900.73c27.3,.07,54.6,.13,81.9,.2h-.01c-1.4,1.8-3.37,.95-5.08,.98-8.93,.18-17.87,.23-26.81,.32-16.9-.1-33.81-.21-50.71-.3-5.05-.03-10.1,0-15.15-1.2h15.85Z"/><path class="cls-1" d="M336.69,801.14h23.89l.02,.82c-7.92,0-15.83,0-23.74,0-.07-.27-.12-.54-.17-.82Z"/><path class="cls-1" d="M1008.22,515.09c3.26-9.4,6.53-18.8,9.77-28.2,1.31-3.81,4.04-4.65,7.52-3.43,15.33,5.38,30.64,10.84,45.96,16.26,3.26,1.15,4.35,3.29,3.25,6.61-.89,2.67-1.64,5.38-2.46,8.07-2.34,2.24-5.27-1.53-7.61,.74-18.81-.02-37.62-.03-56.43-.05Z"/><path class="cls-9" d="M1189.71,965.67c-4.34,2.98-9.42,3.01-14.28,3.03-33.33,.15-66.66,.07-99.99,.07-148.65,0-297.3,0-445.95,0-2.96,0-5.92-.01-8.89-.02-.1-.93,.39-1.53,1.11-2,3.49,.17,6.98,.48,10.47,.48,134.61,.02,269.21,0,403.82,.04,29.81,0,59.62,.48,89.43,.33,21.43-.11,42.94,1.5,64.27-1.93Z"/><path class="cls-9" d="M897.93,932.16c2.58-1.1,5.35-.14,7.98-.71,.56,.44,1.09,1.38,.54,1.62-2.95,1.27-6.02,2.46-8.52-.9Z"/><path class="cls-4" d="M652.84,933.84c2.2-3.97,5.44-1.6,8.34-1.6,.2,2.09-1.58,1.43-2.35,2.05-1.96-.73-4.07,.68-6-.45Z"/><path class="cls-9" d="M860.78,933.83c2.53-4.17,5.72-2.12,8.83-.93-2.75,2.12-5.85,.94-8.83,.93Z"/><path class="cls-9" d="M844.74,934.24c-.74-.27-1.89-.35-2.14-.86-.47-.98,.66-1.27,1.35-1.34,2.44-.26,5.18-1.49,6.71,1.76-1.98,.15-3.95,.29-5.93,.44Z"/><path class="cls-4" d="M1197.59,824.77c1.48,4.05,1.57,7.14,.16,10.46q-2.2-4.68-.16-10.46Z"/><path class="cls-4" d="M945.92,933.06c-4,1.49-7.15,1-10.64,.51,3.02-2.14,5.23-2.27,10.64-.51Z"/><path class="cls-4" d="M1146.78,552.55c-3.85,1.11-7.03,1.12-10.85,.06,3.79-2,6.97-1.86,10.85-.06Z"/><path class="cls-9" d="M879.26,933c2.82-2.47,6.1-.75,9.17-1.01-2.64,4.07-5.92,2.37-9.17,1.01Z"/><path class="cls-4" d="M1197.22,891.75c-1.57-3.18-1.3-6.32-.23-9.61,2.29,3.1,2.33,4.99,.23,9.61Z"/><path class="cls-4" d="M1195.15,900.11c.84,4.54-1.03,6.93-4.37,9.94,.57-4.25,1.66-6.98,4.37-9.94Z"/><path class="cls-4" d="M1124.69,553.93c-1.74-.26-3.57-.27-5.21-.84-2.01-.69-.98-1.51,.22-2.1,1.6,.08,3.21,.15,4.81,.23,.78,.04,1.81-.13,2,.84,.26,1.29-1.28,1.16-1.83,1.87Z"/><path class="cls-4" d="M1197.44,645.42c-1.3-2.85-1.27-5.69-.26-8.9,2.35,3.15,1.55,6.02,.26,8.9Z"/><path class="cls-4" d="M1197.34,816.03c-1.32-3.97-1.66-6.78,.01-9.84,2.11,3.27,1.61,6.19-.01,9.84Z"/><path class="cls-4" d="M1197.08,862.12c2.14,3.8,1.98,6.51,.48,9.95-1.71-3.29-1.2-6.01-.48-9.95Z"/><path class="cls-4" d="M1114.44,932.91c-2.65,1.49-5.29,1.33-8.71,.28,3.35-2,6.03-1.43,8.71-.28Z"/><path class="cls-4" d="M1197.46,692.98c1.48,3.49,1.78,6.09,.09,8.99-2.04-3.06-1.62-5.76-.09-8.99Z"/><path class="cls-4" d="M1197.34,656.89c2.12,3.07,1.47,5.78,.32,9.09-2.06-3.26-1.78-5.97-.32-9.09Z"/><path class="cls-9" d="M714.71,934.35c-1.26-.73-2.96-.04-4.36-1.54,2.79-1.59,5.49-.94,8.54-.55-.85,2.29-3.01,1.15-4.11,2.09,0,0-.08,0-.08,0Z"/><path class="cls-9" d="M1181.89,564.28c-3.88-1.16-6.24-2.8-8.18-5.86,3.79,.5,6.01,2.45,8.18,5.86Z"/><path class="cls-4" d="M1165.49,554.77c-4.01,.57-6.69-.04-9.58-2.14,3.69-1.04,6.36-.32,9.58,2.14Z"/><path class="cls-4" d="M1197.23,617.9c1.98,3.13,1.91,5.87,.09,9.33-1.13-3.44-1.3-6.18-.09-9.33Z"/><path class="cls-4" d="M1197.54,777.22c-1.49-2.52-1.2-5.02-.4-8.02,2.18,2.92,1.76,5.47,.4,8.02Z"/><path class="cls-4" d="M1066.98,932.81c3.7-1.38,6.37-1.14,10.25-.35-3.81,2.16-6.49,1.83-10.25,.35Z"/><path class="cls-4" d="M1086.61,933.12c3.18-1.98,5.77-.97,8.66-1.22q-2.51,2.59-8.66,1.22Z"/><path class="cls-4" d="M1197.08,674.93c2.12,4.4,2.12,4.87,.03,8.74-1.03-2.93-.78-5.56-.03-8.74Z"/><path class="cls-4" d="M1197.65,760.91c-1.57-3.85-1.27-6.43-.17-9.1,1.54,2.34,1.43,4.89,.17,9.1Z"/><path class="cls-4" d="M675.67,934.27c-1.09-.28-2.17-.57-3.75-.98,2.97-2.12,5.51-1.59,8.39-.75-.85,1.79-2.47,1.1-3.45,1.73-.4,0-.8,0-1.2,0Z"/><path class="cls-4" d="M1171.04,927.67c-2.94,3.44-5.55,4.39-9.18,4.09,2.13-3.25,5.35-2.86,9.18-4.09Z"/><path class="cls-4" d="M1197.73,720.65c-1.65-2.34-1.51-4.77-.44-7.63,2.21,2.7,1.2,5.15,.44,7.63Z"/><path class="cls-9" d="M981.31,932.94c-2.64,1.16-5.3,1.16-8.91,.34,3.57-2.07,6.22-1.45,8.91-.34Z"/><path class="cls-9" d="M1038.97,932.74c-2.66,1.52-5.38,1.53-8.88,.51,3.36-2.22,6.13-.95,8.88-.51Z"/><path class="cls-9" d="M1125.61,933.23c2.19-2.05,4.66-1.15,8.07-1.22-3.14,2.94-5.66,1.48-8.07,1.22Z"/><path class="cls-4" d="M1185.62,917.44c-1.07,2.79-2.79,4.47-5.44,5.65,.64-3.74,.96-4.08,5.44-5.65Z"/><path class="cls-4" d="M1191.54,577.94c-1.98-1.92-3.19-3.94-4.44-7.32,3.84,1.73,4.88,3.85,4.44,7.32Z"/><path class="cls-4" d="M955.04,933.17c3.31-1.73,5.64-1.73,8.89,.06-3.26,.88-5.59,.91-8.89-.06Z"/><path class="cls-9" d="M993.54,933.31c2.16-2.21,4.53-1.16,7.93-1.34-3.08,2.98-5.63,1.43-7.93,1.34Z"/><path class="cls-9" d="M1151.79,932.32c-2.7,2.69-5.27,1.48-7.86,0h7.86Z"/><path class="cls-9" d="M1057.12,932.83c-2.24,1.31-4.5,1.16-7.42,.48,2.76-2.12,5.1-1.47,7.42-.48Z"/><path class="cls-9" d="M1198.7,962.69c-2.29,3.23-5.72,3.06-9.1,3.07,3.03-1.02,6.06-2.04,9.1-3.07Z"/><path class="cls-9" d="M1206.69,958.66c-.35,1.01-1.19,1.11-2.07,1.13,.4-.9,1.21-1.06,2.07-1.13Z"/><path class="cls-9" d="M1204.71,959.72c-.37,.98-1.23,1.01-2.08,1.08,.69-.36,1.39-.72,2.08-1.08Z"/><path class="cls-9" d="M1202.71,960.75c-.38,.97-1.25,.99-2.09,1.05,.48-.77,1.24-.99,2.09-1.05Z"/><path class="cls-9" d="M1200.71,961.75c-.4,.97-1.25,1-2.11,1.03,.43-.91,1.28-.95,2.11-1.03Z"/><path class="cls-9" d="M1225.66,938.73c-.02,1.06-.37,1.86-1.53,2.09,.51-.69,1.02-1.39,1.53-2.09Z"/><path class="cls-9" d="M1212.61,954.55c-.25,1.09-1.08,1.24-2.01,1.23,.41-.83,1.02-1.34,2.01-1.23Z"/><path class="cls-9" d="M1209.68,956.67c-.33,.99-1.18,1.07-2.02,1.16,.67-.39,1.35-.77,2.02-1.16Z"/><path class="cls-9" d="M1207.72,957.79c-.38,.33-.77,.67-1.15,1,.38-.33,.77-.67,1.15-1Z"/><path class="cls-9" d="M1214.68,952.27c-.37,.51-.73,1.02-1.1,1.53-.05-.81,.5-1.19,1.1-1.53Z"/><path class="cls-9" d="M1213.64,953.63c-.38,.37-.76,.73-1.15,1.1-.08-.84,.46-1.05,1.15-1.1Z"/><path class="cls-9" d="M1210.69,955.72c-.38,.36-.75,.71-1.13,1.07,.38-.36,.75-.71,1.13-1.07Z"/><path class="cls-5" d="M485.59,1034.78c-77.19,.55-140.53-61.65-140.56-140.45-.03-76.55,61.8-142.44,144.77-140.33,75.05,1.91,136.88,62.18,136.76,140.8-.12,77.15-62.02,140.75-140.98,139.98Zm-5.82-53.7c0,11.02,0,10.9,9.73,10.81,3.19-.03,4.53-.91,4.36-4.25-.22-4.32-.21-8.66,0-12.98,.18-3.83,1-6.65,6.2-7.11,6.36-.57,12.65-2.36,18.79-4.52q12.24-4.31,8.1-16.37c-1.36-3.97-3.24-4.61-6.6-2.61-11.9,7.1-24.72,8.95-38.28,6.77-15.15-2.44-25.07-20.19-16-33.83,5.43-8.16,13.6-12.47,22.26-16.09,8.89-3.72,17.89-7.25,25.64-13.14,10.57-8.04,16.1-18.84,14.43-32.02-2.12-16.72-11.63-27.67-28.28-32.23-7.7-2.11-9.78-6.03-7.98-13.88,.57-2.5,.73-4.94,.56-7.41-.37-5.5-4.44-5.26-8.41-5.29-3.88-.03-5.92,1.31-5.59,5.59,.28,3.64-.13,7.33,.1,10.98,.32,4.9-2.16,6.92-6.66,7.45-4.77,.56-9.47,1.42-14.05,2.98-10.67,3.65-10.6,3.65-7.16,14.4,1.43,4.46,3.29,5.29,7.61,3.36,10.27-4.58,20.88-7.3,32.36-4.78,11.66,2.56,21.11,14.03,16.1,26.83-2.07,5.29-6.05,8.47-10.62,11.4-9.73,6.23-20.75,9.72-30.98,14.88-23.31,11.77-28.03,36.05-18.27,56.36,5.11,10.63,14.94,15.75,25.57,19.21,4.97,1.62,6.93,4.71,7.06,9.51,.05,2,0,3.99,.01,5.99Z"/><path class="cls-7" d="M320.75,900.93c0-9.27-.02-18.55,.04-27.82,.03-4.51,2.06-5.8,7.82-5.15,4.04,.46,6.09,2.34,4.82,6.66-1.24,4.22-.59,8.56-.56,12.83,.03,3.99-.59,7.87-1,11.8-.24,2.28-1.36,3.02-3.28,2.34-2.6-.92-5.21-.74-7.85-.67h.01Z"/><path class="cls-6" d="M613.8,808.92h181.69c0,.34,0,.67,0,1.01-60.21,0-120.43,0-180.64,0-.35-.34-.71-.67-1.06-1.01Z"/><path class="cls-6" d="M606.73,798.96h180.73l.04,1.01c-1.59,0-3.18,0-4.77,0-56.27,0-112.55-.01-168.82,.04-2.05,0-4.36-.87-6.15,1.01-.34-.69-.69-1.38-1.03-2.06Z"/><path class="cls-9" d="M635.74,928.04c2.63,.76,5.45,1.11,7.76,3.34-3.26,1.37-5.74-.6-8.4-1.32,.22-.67,.43-1.35,.65-2.02Z"/><path class="cls-9" d="M617.73,972.73c0,.88-.13,1.69-1.09,2.06-.07-.92,.22-1.65,1.09-2.06Z"/><path class="cls-9" d="M615.74,975.73c0,.88-.12,1.69-1.09,2.06-.09-.93,.23-1.64,1.09-2.06Z"/><path class="cls-9" d="M613.74,978.73c0,.88-.14,1.68-1.09,2.06-.08-.92,.23-1.64,1.09-2.06Z"/><path class="cls-9" d="M611.73,981.72c.02,.89-.12,1.7-1.09,2.06-.13-.95,.2-1.65,1.09-2.06Z"/><path class="cls-9" d="M619.73,969.73c.02,.89-.13,1.69-1.08,2.06-.12-.94,.19-1.66,1.08-2.06Z"/><path class="cls-9" d="M608.76,985.74c-.02,.87-.15,1.68-1.1,2.04-.06-.91,.31-1.59,1.1-2.04Z"/><path class="cls-9" d="M606.73,988.71c.02,.89-.14,1.69-1.11,2.05-.24-1.01,.25-1.63,1.11-2.05Z"/><path class="cls-9" d="M620.73,968.71c-.35,.36-.7,.73-1.05,1.09,.1-.6,.29-1.13,1.05-1.09Z"/><path class="cls-9" d="M618.73,971.71c-.35,.37-.7,.73-1.05,1.1,.1-.61,.3-1.12,1.05-1.1Z"/><path class="cls-9" d="M616.73,974.71c-.35,.37-.7,.73-1.05,1.1,.12-.59,.33-1.09,1.05-1.1Z"/><path class="cls-9" d="M614.74,977.71c-.35,.36-.7,.73-1.06,1.09,.12-.59,.33-1.09,1.06-1.09Z"/><path class="cls-9" d="M612.73,980.7c-.35,.37-.7,.73-1.06,1.1,.1-.61,.33-1.09,1.06-1.1Z"/><path class="cls-9" d="M609.75,984.71c-.35,.37-.69,.73-1.04,1.1,.35-.37,.69-.73,1.04-1.1Z"/><path class="cls-9" d="M607.74,987.71c-.36,.36-.71,.72-1.07,1.08,.1-.61,.36-1.06,1.07-1.08Z"/><path class="cls-9" d="M605.71,990.67c-.35,.37-.7,.73-1.06,1.1,.04-.67,.23-1.18,1.06-1.1Z"/><path class="cls-9" d="M610.73,983.7c-.35,.36-.7,.73-1.06,1.09,.09-.62,.3-1.12,1.06-1.09Z"/><path class="cls-8" d="M781.75,743.03c0,18.67-15.26,33.67-34.14,33.6-19.02-.08-34.72-15.51-34.58-34.01,.14-19.82,15.23-34.64,35.44-34.63,15.54,0,34,13.68,33.28,35.05Z"/><path class="cls-9" d="M874.77,514.96c-8.58-3.94-17.45-7.07-26.45-9.92-5.02-1.59-10.12-3.08-14.89-5.25-5.64-2.56-1.62-6.79-.41-9.64,1.03-2.42-.15-8.38,6.37-6.03,18.23,6.57,36.55,12.87,54.86,19.22,5.31,1.84,5.88,3.02,3.59,8.34-.46,1.06-.78,2.18-1.16,3.27-7.31,0-14.61,0-21.92,.01Z"/><path class="cls-6" d="M608.86,683.04h180.95c-.8,1.51-1.86,1-2.66,1-58.43,.03-116.87,.03-175.3,.02-1.16,0-2.32-.13-3.49-.19,.08-.32,.24-.6,.49-.82Z"/><path class="cls-6" d="M811.71,782.69c0-23.39,0-46.77,0-70.16,0-.8,.08-1.59,.72-2.37v72.64c-.24-.04-.49-.07-.73-.11Z"/><path class="cls-9" d="M910.91,514.05c.95-3.31,2.96-4.22,6-2.56,2.31,1.26,5.09,1.55,7.07,3.47-4.37-.06-8.83,1.06-13.07-.91Z"/><path class="cls-4" d="M1097.8,552.76c4.18-2.19,7.42-1.63,10.68-.65-3.17,1.66-6.43,1.4-10.68,.65Z"/><path class="cls-2" d="M939.93,551.37c-3.91,2.8-6.95,2.74-10.05,1.84-.25-.07-.5-1.13-.44-1.16,3.05-1.67,6.22-.67,10.49-.68Z"/><path class="cls-4" d="M985,552.52c3.64-1.87,6.74-1.62,9.86-.1-3.05,1.12-6.13,1.33-9.86,.1Z"/><path class="cls-4" d="M902.02,552.55c-4.5,1.08-7.63,1.06-11.4,.01,3.79-1.92,6.96-1.75,11.4-.01Z"/><path class="cls-9" d="M783.59,933.03c4.41-1.53,7.49-1.74,11.43,.21-3.99,.99-7.07,1.04-11.43-.21Z"/><path class="cls-4" d="M777.4,552.58c3.96-1.93,7.12-1.8,11.03-.13-3.86,1.32-7.02,1.09-11.03,.13Z"/><path class="cls-4" d="M607.28,636.98c1.83,3.27,2.15,6.25,.04,9.48-1.84-3.23-1.56-6.2-.04-9.48Z"/><path class="cls-4" d="M646.41,552.56c2.48-1.7,5.16-1.55,8.23-1.15-3.3,3.12-3.7,3.17-8.23,1.15Z"/><path class="cls-4" d="M607.58,610.04c-1.84-3.47-1.18-6.4-.41-9.85,2.06,3.38,2.11,6.29,.41,9.85Z"/><path class="cls-4" d="M608.86,683.04c-.25,.22-.41,.49-.49,.82-4.65-2.03-1.86-4.97-1.19-8,2.47,2.24,1.13,4.91,1.69,7.18Z"/><path class="cls-4" d="M1013.95,551.95c-2.59,1.93-5.37,1.45-8.88,.82,3.18-2.36,6.05-1.4,8.88-.82Z"/><path class="cls-2" d="M1051.02,551.25c-.31,.87-.32,1.09-.42,1.15-2.34,1.31-4.79,1.83-7.38,.86-.24-.09-.46-1.07-.34-1.16,2.48-1.81,5.22-.6,8.14-.85Z"/><path class="cls-4" d="M740.09,552.34c3.34-1.5,5.95-.77,9.95-.91-3.87,2.49-6.45,2.31-9.95,.91Z"/><path class="cls-4" d="M842.91,552.31c-2.57,1.2-5.2,1.4-8.17,.28,2.89-2.14,5.5-1.37,8.17-.28Z"/><path class="cls-4" d="M909.15,552.62c3.89-1.99,6.53-1.5,10.37-.54-3.85,1.85-6.48,1.25-10.37,.54Z"/><path class="cls-4" d="M692.68,552.55c-3.24,1.1-5.77,.9-8.62,.26,3.35-2.05,3.8-2.07,8.62-.26Z"/><path class="cls-4" d="M760.85,552.05c2.42-.59,4.89-1.09,7.96,.15-3.1,1.86-5.52,1.12-7.96-.15Z"/><path class="cls-4" d="M796.17,552.67c3.78-1.75,6.39-2.01,9.66-.19-3.28,1.14-5.92,1.06-9.66,.19Z"/><path class="cls-4" d="M956.73,552.57c-3.35,.96-5.89,1.08-8.54,.11,3.2-1.92,3.69-1.94,8.54-.11Z"/><path class="cls-9" d="M766.19,933.15c2.49-1.84,5.08-1.38,9.2-.55-3.91,1.9-6.55,1.38-9.2,.55Z"/><path class="cls-4" d="M611.83,581.61c-1.06,3.74-1.76,6.23-2.47,8.72-2.33-3.23-.89-5.56,2.47-8.72Z"/><path class="cls-4" d="M967.68,552.67c3.17-2.05,5.82-1.76,9.38-.46-3.47,1.54-6.12,1.23-9.38,.46Z"/><path class="cls-9" d="M615.61,573.09c.76-4.18,3.24-5.82,5.9-8.57-.59,4.27-2.69,6.31-5.9,8.57Z"/><path class="cls-4" d="M607.22,618.96c2.01,3.18,2,5.76,.19,8.5-1.88-2.7-1.2-5.3-.19-8.5Z"/><path class="cls-4" d="M731.16,552.33c-3.64,1.39-6.13,1.02-9.22,.43,2.99-2.15,5.49-1.82,9.22-.43Z"/><path class="cls-4" d="M607.4,656.99c1.62,3,1.91,5.37,.06,8-1.98-2.63-1.55-5.08-.06-8Z"/><path class="cls-9" d="M732.38,934.32c-1.03-.93-3.04,.2-3.78-2.1h7.91c-.7,2.3-2.79,1.36-4.06,2.06l-.06,.03Z"/><path class="cls-4" d="M757.25,933.09c-4.05,1.06-6.81,.71-9.6-.13,2.7-.92,5.42-1.37,9.6,.13Z"/><path class="cls-4" d="M804.69,932.21h7.6c-2.95,2.32-2.97,2.33-7.6,0Z"/><path class="cls-4" d="M1060.58,552.47c3.35-1.63,6.01-1.95,9.19,.21-3.23,.81-5.89,.97-9.19-.21Z"/><path class="cls-9" d="M831.77,932.81c-3.38,1.61-5.79,1.18-8.89,.57,3-2.19,5.42-1.67,8.89-.57Z"/><path class="cls-2" d="M1023.1,551.84c3.64-.92,6.08-.74,8.56,.08-2.28,1.73-4.7,1.69-8.56-.08Z"/><path class="cls-2" d="M712.09,551.6c-3.53,2.19-5.99,2.03-9.89,0h9.89Z"/><path class="cls-2" d="M862.93,551.69c-3.52,2.05-6.02,2.31-9.05-.16,3.11-.47,5.6-.58,9.05,.16Z"/><path class="cls-9" d="M760.83,457.11c2.45-.24,4.47,.66,6.48,1.37,17.34,6.12,34.63,12.38,52.02,18.37,3.03,1.04,3.38,2.22,2.44,5.02-4.13,12.31-4.05,12.31-16.09,8-15.6-5.57-31.16-11.3-46.88-16.51-4.83-1.6-6.05-3.79-4.12-8.25,.72-1.66,1.12-3.46,1.73-5.17,.77-2.15,2.29-3.19,4.41-2.82Z"/><path class="cls-7" d="M848.84,355.93c-.01,6.45-3.36,8.57-9.17,5.81-7.94-3.77-9.5-3.04-11.76,5.46-1.76,6.61-2.19,6.81-8.45,4.54-7.49-2.72-14.98-5.46-22.53-7.99-3.45-1.15-4.39-2.91-3.04-6.34,2.19-5.56,4.14-11.21,6.05-16.88,.91-2.7,2.04-3.62,5.09-2.51,13.42,4.9,26.94,9.52,40.42,14.27,1.72,.61,3.6,1.16,3.4,3.62Z"/><path class="cls-7" d="M866.24,399.18c-.83-.23-2.62-.62-4.32-1.23-11.72-4.16-23.35-8.57-35.15-12.48-5.07-1.68-4.03-4.4-2.8-8.05,1.5-4.44,4.07-3.43,6.98-1.97,1.04,.52,2.04,1.11,3.11,1.57,5.29,2.28,7.24,1.53,8.78-4.04,3.15-11.41,3.32-9.12,12.33-5.91,6.56,2.34,13.07,4.84,19.7,6.95,3.25,1.03,4.33,2.36,2.94,5.73-2.07,5.05-3.71,10.28-5.62,15.4-.84,2.27-2.1,4.21-5.95,4.02Z"/><path class="cls-4" d="M565.05,442.25c4.95-9.12,9.54-17.56,14.13-25.99,.4-.73,.77-1.48,1.27-2.13,1.36-1.78,3.13-2.62,5.19-1.35,1.92,1.18,2.61,2.82,1.4,5.08-6.32,11.86-12.46,23.81-18.92,35.59-2.2,4.01-5.76,3.31-8-1.57-4.57-9.94-8.91-19.98-13.35-29.98-2.63-5.91-5.33-11.78-7.89-17.71-1.17-2.71-1.96-5.77,1.62-7.18,3.66-1.45,4.7,1.5,5.89,4.2,5.39,12.3,10.88,24.55,16.36,36.8,.53,1.19,1.24,2.3,2.3,4.25Z"/><path class="cls-4" d="M1071.82,224.16c.31,3.3-1.58,5.99-4.51,7.88-3.21,2.06-6.78,3.56-9.95,5.67-2.91,1.94-5.94,4.24-4.08,8.52,1.78,4.09,4.84,5.33,9.29,4.4,2.84-.59,5.39-1.35,7.75-3.05,1.46-1.06,3.43-2.17,4.83-.08,1.59,2.38-.52,3.66-2.16,4.73-1.52,1-3.25,1.67-4.89,2.49-2.53,1.26-4.02,3.23-3.01,6.03,.9,2.51-.43,3.39-2.26,4.08-2.64,1-3.44-1.17-3.68-2.82-.58-4.02-2.83-6.08-6.55-7.18-5.15-1.52-7.49-5.57-7.77-10.5-.24-4.25,2.05-7.56,5.9-9.66,3.35-1.83,6.55-3.95,9.97-5.64,3.55-1.75,3.47-4.75,2.71-7.66-.78-3-3.56-2.9-6.16-2.97-3.05-.08-5.45,1.36-7.8,2.92-1.59,1.05-3.12,1.62-4.28-.25-1.25-2.01-.26-3.49,1.73-4.34,3.98-1.7,7.07-3.69,5.22-8.99-.61-1.74,1.23-2.96,3-3.26,1.93-.33,3.63,.56,3.46,2.56-.4,4.87,2.76,5.98,6.41,7.37,4.04,1.53,7.1,4.32,6.81,9.75Z"/><path class="cls-1" d="M479.77,981.08c0-2,.04-4-.01-5.99-.13-4.8-2.08-7.89-7.06-9.51-10.63-3.46-20.46-8.58-25.57-19.21-9.76-20.31-5.04-44.59,18.27-56.36,10.23-5.16,21.25-8.66,30.98-14.88,4.56-2.92,8.55-6.11,10.62-11.4,5.01-12.8-4.44-24.27-16.1-26.83-11.47-2.52-22.08,.2-32.36,4.78-4.33,1.93-6.19,1.09-7.61-3.36-3.44-10.75-3.51-10.75,7.16-14.4,4.58-1.57,9.28-2.43,14.05-2.98,4.51-.53,6.98-2.55,6.66-7.45-.23-3.65,.18-7.34-.1-10.98-.33-4.28,1.71-5.62,5.59-5.59,3.97,.03,8.04-.21,8.41,5.29,.17,2.47,.01,4.9-.56,7.41-1.8,7.85,.28,11.77,7.98,13.88,16.64,4.56,26.16,15.51,28.28,32.23,1.67,13.18-3.85,23.99-14.43,32.02-7.75,5.89-16.75,9.42-25.64,13.14-8.66,3.63-16.83,7.93-22.26,16.09-9.07,13.64,.85,31.39,16,33.83,13.56,2.18,26.38,.33,38.28-6.77,3.35-2,5.23-1.36,6.6,2.61q4.15,12.07-8.1,16.37c-6.14,2.16-12.43,3.95-18.79,4.52-5.2,.47-6.02,3.28-6.2,7.11-.21,4.32-.22,8.66,0,12.98,.17,3.35-1.17,4.22-4.36,4.25-9.73,.09-9.73,.21-9.73-10.81Z"/></g></g></svg>